M48
; DRILL file {KiCad 8.0.8} date 2025-02-15T14:10:57+0100
; FORMAT={-:-/ absolute / inch / decimal}
; #@! TF.CreationDate,2025-02-15T14:10:57+01:00
; #@! TF.GenerationSoftware,Kicad,Pcbnew,8.0.8
; #@! TF.FileFunction,Plated,1,4,PTH
FMAT,2
INCH
; #@! TA.AperFunction,Plated,PTH,ComponentDrill
T1C0.0236
; #@! TA.AperFunction,Plated,PTH,ComponentDrill
T2C0.0276
; #@! TA.AperFunction,Plated,PTH,ComponentDrill
T3C0.0315
; #@! TA.AperFunction,Plated,PTH,ComponentDrill
T4C0.0354
; #@! TA.AperFunction,Plated,PTH,ComponentDrill
T5C0.0394
; #@! TA.AperFunction,Plated,PTH,ComponentDrill
T6C0.0591
; #@! TA.AperFunction,Plated,PTH,ComponentDrill
T7C0.0630
%
G90
G05
T2
X6.2319Y-2.178
X6.4594Y-2.178
T3
X5.7898Y-2.1386
X5.7898Y-2.4339
T4
X5.7776Y-2.2421
X5.7776Y-2.3327
T5
X7.4242Y-4.1305
X7.4311Y-4.3602
X7.5242Y-4.1305
X7.5492Y-4.3602
X7.6242Y-4.1305
X7.7242Y-4.1305
T6
X7.3543Y-3.0906
X7.6181Y-3.0906
T7
X3.72Y-3.01
X3.72Y-3.7875
X3.72Y-4.565
X3.97Y-2.91
X3.97Y-3.6875
X3.97Y-4.465
X4.495Y-2.825
X4.495Y-3.5875
X4.495Y-4.35
X4.745Y-2.725
X4.745Y-3.4875
X4.745Y-4.25
X5.26Y-2.71
X5.26Y-3.4925
X5.26Y-4.275
X5.51Y-2.61
X5.51Y-3.3925
X5.51Y-4.175
X5.56Y-5.22
X5.81Y-5.12
X6.035Y-2.82
X6.035Y-3.595
X6.035Y-4.37
X6.285Y-2.72
X6.285Y-3.495
X6.285Y-4.27
X6.451Y-5.2796
X6.7184Y-5.2477
X6.815Y-2.91
X6.815Y-3.6875
X6.815Y-4.465
X7.065Y-2.81
X7.065Y-3.5875
X7.065Y-4.365
X7.4651Y-5.3534
X7.7316Y-5.3918
T1
G00X6.1756Y-2.1394
M15
G01X6.1756Y-2.1748
M16
G05
G00X6.1756Y-2.311
M15
G01X6.1756Y-2.3346
M16
G05
G00X6.5157Y-2.1394
M15
G01X6.5157Y-2.1748
M16
G05
G00X6.5157Y-2.311
M15
G01X6.5157Y-2.3346
M16
G05
M30
