%TF.GenerationSoftware,KiCad,Pcbnew,8.0.8*%
%TF.CreationDate,2025-02-15T19:25:02+01:00*%
%TF.ProjectId,sichergo-left,73696368-6572-4676-9f2d-6c6566742e6b,rev?*%
%TF.SameCoordinates,Original*%
%TF.FileFunction,Soldermask,Bot*%
%TF.FilePolarity,Negative*%
%FSLAX46Y46*%
G04 Gerber Fmt 4.6, Leading zero omitted, Abs format (unit mm)*
G04 Created by KiCad (PCBNEW 8.0.8) date 2025-02-15 19:25:02*
%MOMM*%
%LPD*%
G01*
G04 APERTURE LIST*
%ADD10C,4.150000*%
%ADD11C,2.000000*%
%ADD12C,1.000000*%
%ADD13C,0.700000*%
%ADD14O,1.100000X2.000000*%
%ADD15O,1.200000X1.800000*%
%ADD16C,1.500000*%
%ADD17R,1.700000X1.700000*%
%ADD18O,1.700000X1.700000*%
%ADD19C,0.900000*%
G04 APERTURE END LIST*
D10*
%TO.C,SW17*%
X176911000Y-115951000D03*
D11*
X173101000Y-113411000D03*
X179451001Y-110871000D03*
%TD*%
D10*
%TO.C,SW5*%
X117983000Y-93662500D03*
D11*
X114173000Y-91122500D03*
X120523001Y-88582500D03*
%TD*%
D10*
%TO.C,SW2*%
X98298000Y-98742500D03*
D11*
X94488000Y-96202500D03*
X100838001Y-93662500D03*
%TD*%
D10*
%TO.C,SW13*%
X157099000Y-113538000D03*
D11*
X153289000Y-110998000D03*
X159639001Y-108458000D03*
%TD*%
D12*
%TO.C,SW19*%
X188750000Y-110750000D03*
X191750000Y-110750000D03*
%TD*%
D13*
%TO.C,USB1*%
X158290000Y-55320001D03*
X164070000Y-55320001D03*
D14*
X156860000Y-54790000D03*
D15*
X156860000Y-59000000D03*
D14*
X165500000Y-54790000D03*
D15*
X165500000Y-59000000D03*
%TD*%
D10*
%TO.C,SW10*%
X145034000Y-135128000D03*
D11*
X141224000Y-132588000D03*
X147574001Y-130048000D03*
%TD*%
D10*
%TO.C,SW11*%
X157099000Y-74168000D03*
D11*
X153289000Y-71628000D03*
X159639001Y-69088000D03*
%TD*%
D10*
%TO.C,SW14*%
X166878000Y-137541000D03*
D11*
X163855222Y-134101448D03*
X170646251Y-133291497D03*
%TD*%
D10*
%TO.C,SW16*%
X176911000Y-96202500D03*
D11*
X173101000Y-93662500D03*
X179451001Y-91122500D03*
%TD*%
D10*
%TO.C,SW18*%
X191643000Y-140081000D03*
D11*
X189613443Y-135976295D03*
X196382705Y-136951591D03*
%TD*%
D16*
%TO.C,Audio1*%
X186800000Y-82804000D03*
X193500000Y-82804000D03*
%TD*%
D10*
%TO.C,SW4*%
X117983000Y-74295000D03*
D11*
X114173000Y-71755000D03*
X120523001Y-69215000D03*
%TD*%
D10*
%TO.C,SW6*%
X117983000Y-113030000D03*
D11*
X114173000Y-110490000D03*
X120523001Y-107950000D03*
%TD*%
D17*
%TO.C,J1*%
X196195000Y-104913800D03*
D18*
X193655000Y-104913799D03*
X191115001Y-104913800D03*
X188575000Y-104913800D03*
%TD*%
D10*
%TO.C,SW15*%
X176911000Y-76454000D03*
D11*
X173101000Y-73914000D03*
X179451001Y-71374000D03*
%TD*%
D10*
%TO.C,SW1*%
X98298000Y-78994000D03*
D11*
X94488000Y-76454000D03*
X100838001Y-73914000D03*
%TD*%
D10*
%TO.C,SW7*%
X137414000Y-71374000D03*
D11*
X133604000Y-68834000D03*
X139954001Y-66294000D03*
%TD*%
D10*
%TO.C,SW12*%
X157099000Y-93853000D03*
D11*
X153289000Y-91313000D03*
X159639001Y-88773000D03*
%TD*%
D10*
%TO.C,SW9*%
X137414000Y-111125000D03*
D11*
X133604000Y-108585000D03*
X139954001Y-106045000D03*
%TD*%
D10*
%TO.C,SW8*%
X137414000Y-91249500D03*
D11*
X133604000Y-88709500D03*
X139954001Y-86169500D03*
%TD*%
D19*
%TO.C,U3*%
X146750000Y-59250000D03*
X146750000Y-56950000D03*
D12*
X147060000Y-54320000D03*
X147060000Y-61820000D03*
%TD*%
D10*
%TO.C,SW3*%
X98298000Y-118491000D03*
D11*
X94488000Y-115951000D03*
X100838001Y-113411000D03*
%TD*%
M02*
