M48
; DRILL file {KiCad 8.0.8} date 2025-02-16T12:34:13+0100
; FORMAT={-:-/ absolute / inch / decimal}
; #@! TF.CreationDate,2025-02-16T12:34:13+01:00
; #@! TF.GenerationSoftware,Kicad,Pcbnew,8.0.8
; #@! TF.FileFunction,Plated,1,2,PTH
FMAT,2
INCH
; #@! TA.AperFunction,Plated,PTH,ComponentDrill
T1C0.0197
; #@! TA.AperFunction,Plated,PTH,ComponentDrill
T2C0.0236
; #@! TA.AperFunction,Plated,PTH,ComponentDrill
T3C0.0276
; #@! TA.AperFunction,Plated,PTH,ComponentDrill
T4C0.0315
; #@! TA.AperFunction,Plated,PTH,ComponentDrill
T5C0.0354
; #@! TA.AperFunction,Plated,PTH,ComponentDrill
T6C0.0394
; #@! TA.AperFunction,Plated,PTH,ComponentDrill
T7C0.0591
; #@! TA.AperFunction,Plated,PTH,ComponentDrill
T8C0.0630
%
G90
G05
T1
X4.8352Y-1.1102
X5.2352Y-0.7142
X5.3692Y-0.9882
X7.2016Y-2.1773
X8.4042Y-0.771
X8.5002Y-0.775
T3
X6.2051Y-0.7781
X6.4327Y-0.7781
T4
X5.763Y-0.7388
X5.763Y-1.0341
T5
X5.7508Y-0.8423
X5.7508Y-0.9329
T6
X8.2604Y-2.2935
X8.2673Y-2.5232
X8.3604Y-2.2935
X8.3854Y-2.5232
X8.4604Y-2.2935
X8.5604Y-2.2935
T7
X8.1906Y-1.423
X8.4543Y-1.423
T8
X4.4843Y-2.91
X4.4843Y-3.6875
X4.4843Y-4.465
X4.7343Y-2.81
X4.7343Y-3.5875
X4.7343Y-4.365
X5.067Y-2.8549
X5.067Y-3.6324
X5.067Y-4.4099
X5.317Y-2.7549
X5.317Y-3.5324
X5.317Y-4.3099
X5.6496Y-2.7998
X5.6496Y-3.5773
X5.6496Y-4.3548
X5.8661Y-5.1176
X5.8996Y-2.6998
X5.8996Y-3.4773
X5.8996Y-4.2548
X6.1297Y-5.0626
X6.2323Y-2.8549
X6.2323Y-3.6324
X6.2323Y-4.4099
X6.4823Y-2.7549
X6.4823Y-3.5324
X6.4823Y-4.3099
X6.6416Y-5.2544
X6.815Y-2.91
X6.815Y-3.6875
X6.815Y-4.465
X6.9051Y-5.1993
X7.065Y-2.81
X7.065Y-3.5875
X7.065Y-4.365
X7.429Y-5.6481
X7.6925Y-5.593
T2
G00X6.1488Y-0.7396
M15
G01X6.1488Y-0.775
M16
G05
G00X6.1488Y-0.9112
M15
G01X6.1488Y-0.9348
M16
G05
G00X6.489Y-0.7396
M15
G01X6.489Y-0.775
M16
G05
G00X6.489Y-0.9112
M15
G01X6.489Y-0.9348
M16
G05
M30
