%TF.GenerationSoftware,KiCad,Pcbnew,8.0.8*%
%TF.CreationDate,2025-02-15T14:10:54+01:00*%
%TF.ProjectId,sichergo-left,73696368-6572-4676-9f2d-6c6566742e6b,rev?*%
%TF.SameCoordinates,Original*%
%TF.FileFunction,Copper,L1,Top*%
%TF.FilePolarity,Positive*%
%FSLAX46Y46*%
G04 Gerber Fmt 4.6, Leading zero omitted, Abs format (unit mm)*
G04 Created by KiCad (PCBNEW 8.0.8) date 2025-02-15 14:10:54*
%MOMM*%
%LPD*%
G01*
G04 APERTURE LIST*
G04 Aperture macros list*
%AMRoundRect*
0 Rectangle with rounded corners*
0 $1 Rounding radius*
0 $2 $3 $4 $5 $6 $7 $8 $9 X,Y pos of 4 corners*
0 Add a 4 corners polygon primitive as box body*
4,1,4,$2,$3,$4,$5,$6,$7,$8,$9,$2,$3,0*
0 Add four circle primitives for the rounded corners*
1,1,$1+$1,$2,$3*
1,1,$1+$1,$4,$5*
1,1,$1+$1,$6,$7*
1,1,$1+$1,$8,$9*
0 Add four rect primitives between the rounded corners*
20,1,$1+$1,$2,$3,$4,$5,0*
20,1,$1+$1,$4,$5,$6,$7,0*
20,1,$1+$1,$6,$7,$8,$9,0*
20,1,$1+$1,$8,$9,$2,$3,0*%
%AMFreePoly0*
4,1,17,0.785355,0.785355,0.800000,0.750000,0.800000,-0.750000,0.785355,-0.785355,0.750000,-0.800000,-0.750000,-0.800000,-0.785355,-0.785355,-0.800000,-0.750000,-0.800000,-0.050000,-0.785355,-0.014645,-0.750000,0.000000,-0.100000,0.000000,-0.100000,0.750000,-0.085355,0.785355,-0.050000,0.800000,0.750000,0.800000,0.785355,0.785355,0.785355,0.785355,$1*%
%AMFreePoly1*
4,1,17,0.085355,0.785355,0.100000,0.750000,0.100000,0.000000,0.750000,0.000000,0.785355,-0.014645,0.800000,-0.050000,0.800000,-0.750000,0.785355,-0.785355,0.750000,-0.800000,-0.750000,-0.800000,-0.785355,-0.785355,-0.800000,-0.750000,-0.800000,0.750000,-0.785355,0.785355,-0.750000,0.800000,0.050000,0.800000,0.085355,0.785355,0.085355,0.785355,$1*%
G04 Aperture macros list end*
%TA.AperFunction,SMDPad,CuDef*%
%ADD10RoundRect,0.250000X-0.475000X0.337500X-0.475000X-0.337500X0.475000X-0.337500X0.475000X0.337500X0*%
%TD*%
%TA.AperFunction,SMDPad,CuDef*%
%ADD11RoundRect,0.237500X0.287500X0.237500X-0.287500X0.237500X-0.287500X-0.237500X0.287500X-0.237500X0*%
%TD*%
%TA.AperFunction,SMDPad,CuDef*%
%ADD12RoundRect,0.237500X0.250000X0.237500X-0.250000X0.237500X-0.250000X-0.237500X0.250000X-0.237500X0*%
%TD*%
%TA.AperFunction,SMDPad,CuDef*%
%ADD13RoundRect,0.250000X0.450000X-0.325000X0.450000X0.325000X-0.450000X0.325000X-0.450000X-0.325000X0*%
%TD*%
%TA.AperFunction,ComponentPad*%
%ADD14C,2.000000*%
%TD*%
%TA.AperFunction,SMDPad,CuDef*%
%ADD15RoundRect,0.162500X-0.162500X0.617500X-0.162500X-0.617500X0.162500X-0.617500X0.162500X0.617500X0*%
%TD*%
%TA.AperFunction,SMDPad,CuDef*%
%ADD16RoundRect,0.237500X-0.250000X-0.237500X0.250000X-0.237500X0.250000X0.237500X-0.250000X0.237500X0*%
%TD*%
%TA.AperFunction,ComponentPad*%
%ADD17C,1.000000*%
%TD*%
%TA.AperFunction,SMDPad,CuDef*%
%ADD18R,1.000000X1.500000*%
%TD*%
%TA.AperFunction,ComponentPad*%
%ADD19C,0.700000*%
%TD*%
%TA.AperFunction,SMDPad,CuDef*%
%ADD20R,0.550000X1.100000*%
%TD*%
%TA.AperFunction,SMDPad,CuDef*%
%ADD21R,0.300000X1.100000*%
%TD*%
%TA.AperFunction,ComponentPad*%
%ADD22O,1.100000X2.000000*%
%TD*%
%TA.AperFunction,ComponentPad*%
%ADD23O,1.200000X1.800000*%
%TD*%
%TA.AperFunction,SMDPad,CuDef*%
%ADD24RoundRect,0.250000X-0.337500X-0.475000X0.337500X-0.475000X0.337500X0.475000X-0.337500X0.475000X0*%
%TD*%
%TA.AperFunction,SMDPad,CuDef*%
%ADD25RoundRect,0.237500X-0.237500X0.250000X-0.237500X-0.250000X0.237500X-0.250000X0.237500X0.250000X0*%
%TD*%
%TA.AperFunction,SMDPad,CuDef*%
%ADD26RoundRect,0.237500X0.339173X0.154997X-0.216234X0.303818X-0.339173X-0.154997X0.216234X-0.303818X0*%
%TD*%
%TA.AperFunction,SMDPad,CuDef*%
%ADD27RoundRect,0.375000X-0.625000X-0.375000X0.625000X-0.375000X0.625000X0.375000X-0.625000X0.375000X0*%
%TD*%
%TA.AperFunction,SMDPad,CuDef*%
%ADD28RoundRect,0.500000X-0.500000X-1.400000X0.500000X-1.400000X0.500000X1.400000X-0.500000X1.400000X0*%
%TD*%
%TA.AperFunction,SMDPad,CuDef*%
%ADD29RoundRect,0.237500X0.237500X-0.287500X0.237500X0.287500X-0.237500X0.287500X-0.237500X-0.287500X0*%
%TD*%
%TA.AperFunction,SMDPad,CuDef*%
%ADD30RoundRect,0.075000X0.662500X0.075000X-0.662500X0.075000X-0.662500X-0.075000X0.662500X-0.075000X0*%
%TD*%
%TA.AperFunction,SMDPad,CuDef*%
%ADD31RoundRect,0.075000X0.075000X0.662500X-0.075000X0.662500X-0.075000X-0.662500X0.075000X-0.662500X0*%
%TD*%
%TA.AperFunction,ComponentPad*%
%ADD32C,1.500000*%
%TD*%
%TA.AperFunction,SMDPad,CuDef*%
%ADD33R,1.400000X2.500000*%
%TD*%
%TA.AperFunction,SMDPad,CuDef*%
%ADD34RoundRect,0.075000X0.200000X-0.075000X0.200000X0.075000X-0.200000X0.075000X-0.200000X-0.075000X0*%
%TD*%
%TA.AperFunction,SMDPad,CuDef*%
%ADD35RoundRect,0.237500X-0.287500X-0.237500X0.287500X-0.237500X0.287500X0.237500X-0.287500X0.237500X0*%
%TD*%
%TA.AperFunction,SMDPad,CuDef*%
%ADD36RoundRect,0.237500X-0.335256X-0.080681X0.097756X-0.330681X0.335256X0.080681X-0.097756X0.330681X0*%
%TD*%
%TA.AperFunction,ComponentPad*%
%ADD37R,1.700000X1.700000*%
%TD*%
%TA.AperFunction,ComponentPad*%
%ADD38O,1.700000X1.700000*%
%TD*%
%TA.AperFunction,SMDPad,CuDef*%
%ADD39RoundRect,0.237500X0.237500X-0.250000X0.237500X0.250000X-0.237500X0.250000X-0.237500X-0.250000X0*%
%TD*%
%TA.AperFunction,SMDPad,CuDef*%
%ADD40RoundRect,0.250000X-1.450000X0.400000X-1.450000X-0.400000X1.450000X-0.400000X1.450000X0.400000X0*%
%TD*%
%TA.AperFunction,SMDPad,CuDef*%
%ADD41R,1.800000X2.100000*%
%TD*%
%TA.AperFunction,SMDPad,CuDef*%
%ADD42RoundRect,0.237500X-0.302951X-0.164703X0.180012X-0.294112X0.302951X0.164703X-0.180012X0.294112X0*%
%TD*%
%TA.AperFunction,SMDPad,CuDef*%
%ADD43RoundRect,0.250000X0.337500X0.475000X-0.337500X0.475000X-0.337500X-0.475000X0.337500X-0.475000X0*%
%TD*%
%TA.AperFunction,ComponentPad*%
%ADD44C,0.900000*%
%TD*%
%TA.AperFunction,SMDPad,CuDef*%
%ADD45R,1.200000X1.200000*%
%TD*%
%TA.AperFunction,SMDPad,CuDef*%
%ADD46FreePoly0,90.000000*%
%TD*%
%TA.AperFunction,SMDPad,CuDef*%
%ADD47FreePoly1,90.000000*%
%TD*%
%TA.AperFunction,SMDPad,CuDef*%
%ADD48RoundRect,0.237500X0.367732X0.061931X-0.130232X0.349431X-0.367732X-0.061931X0.130232X-0.349431X0*%
%TD*%
%TA.AperFunction,SMDPad,CuDef*%
%ADD49RoundRect,0.200000X-0.200000X0.750000X-0.200000X-0.750000X0.200000X-0.750000X0.200000X0.750000X0*%
%TD*%
%TA.AperFunction,Conductor*%
%ADD50C,0.200000*%
%TD*%
%TA.AperFunction,Conductor*%
%ADD51C,0.267000*%
%TD*%
G04 APERTURE END LIST*
D10*
%TO.P,C13,1*%
%TO.N,Net-(C13-Pad1)*%
X152400000Y-58906500D03*
%TO.P,C13,2*%
%TO.N,GND*%
X152400000Y-60981500D03*
%TD*%
D11*
%TO.P,D17,1,K*%
%TO.N,GND*%
X147790500Y-144907000D03*
%TO.P,D17,2,A*%
%TO.N,Net-(D17-A)*%
X146040500Y-144907000D03*
%TD*%
D12*
%TO.P,R8,1*%
%TO.N,Net-(Q1-G)*%
X168000000Y-68500000D03*
%TO.P,R8,2*%
%TO.N,GND*%
X166174998Y-68500000D03*
%TD*%
D11*
%TO.P,D30,1,K*%
%TO.N,GND*%
X179578000Y-86360000D03*
%TO.P,D30,2,A*%
%TO.N,Net-(D30-A)*%
X177828000Y-86360000D03*
%TD*%
D13*
%TO.P,D18,1,K*%
%TO.N,/KB_ROW_0*%
X143383000Y-82305000D03*
%TO.P,D18,2,A*%
%TO.N,Net-(D18-A)*%
X143383000Y-80255000D03*
%TD*%
%TO.P,D7,1,K*%
%TO.N,/KB_ROW_2*%
X107823000Y-124469000D03*
%TO.P,D7,2,A*%
%TO.N,Net-(D7-A)*%
X107823000Y-122419000D03*
%TD*%
D11*
%TO.P,D16,1,K*%
%TO.N,GND*%
X140283500Y-120904000D03*
%TO.P,D16,2,A*%
%TO.N,Net-(D16-A)*%
X138533500Y-120904000D03*
%TD*%
D14*
%TO.P,SW17,1,1*%
%TO.N,/KB_COL_4*%
X173101000Y-113411000D03*
%TO.P,SW17,2,2*%
%TO.N,Net-(D36-A)*%
X179451001Y-110871000D03*
%TD*%
D11*
%TO.P,D32,1,K*%
%TO.N,GND*%
X179460500Y-125857000D03*
%TO.P,D32,2,A*%
%TO.N,Net-(D32-A)*%
X177710500Y-125857000D03*
%TD*%
D12*
%TO.P,R28,1*%
%TO.N,/MatrixL/LED_DRIVE*%
X168000000Y-77500000D03*
%TO.P,R28,2*%
%TO.N,+3V3*%
X166175000Y-77500000D03*
%TD*%
D13*
%TO.P,D27,1,K*%
%TO.N,/KB_ROW_1*%
X163195000Y-104657000D03*
%TO.P,D27,2,A*%
%TO.N,Net-(D27-A)*%
X163195000Y-102607000D03*
%TD*%
D15*
%TO.P,U6,1*%
%TO.N,GND*%
X197345000Y-90050900D03*
%TO.P,U6,2*%
%TO.N,/UART_TX*%
X196395000Y-90050900D03*
%TO.P,U6,3,GND*%
%TO.N,GND*%
X195445000Y-90050900D03*
%TO.P,U6,4*%
%TO.N,Net-(Audio1-Pad3)*%
X195445000Y-92750900D03*
%TO.P,U6,5,VCC*%
%TO.N,+3V3*%
X197345000Y-92750900D03*
%TD*%
D13*
%TO.P,D19,1,K*%
%TO.N,/KB_ROW_1*%
X143510000Y-101981000D03*
%TO.P,D19,2,A*%
%TO.N,Net-(D19-A)*%
X143510000Y-99931000D03*
%TD*%
D14*
%TO.P,SW5,1,1*%
%TO.N,/KB_COL_1*%
X114173000Y-91122500D03*
%TO.P,SW5,2,2*%
%TO.N,Net-(D12-A)*%
X120523001Y-88582500D03*
%TD*%
%TO.P,SW2,1,1*%
%TO.N,/KB_COL_0*%
X94488000Y-96202500D03*
%TO.P,SW2,2,2*%
%TO.N,Net-(D6-A)*%
X100838001Y-93662500D03*
%TD*%
D11*
%TO.P,D4,1,K*%
%TO.N,GND*%
X101017000Y-88519000D03*
%TO.P,D4,2,A*%
%TO.N,Net-(D4-A)*%
X99267000Y-88519000D03*
%TD*%
D16*
%TO.P,R12,1*%
%TO.N,/MatrixL/LED_DRIVE*%
X95711000Y-88519000D03*
%TO.P,R12,2*%
%TO.N,Net-(D4-A)*%
X97536000Y-88519000D03*
%TD*%
D14*
%TO.P,SW13,1,1*%
%TO.N,/KB_COL_3*%
X153289000Y-110998000D03*
%TO.P,SW13,2,2*%
%TO.N,Net-(D28-A)*%
X159639001Y-108458000D03*
%TD*%
D17*
%TO.P,SW19,*%
%TO.N,*%
X188750000Y-110750000D03*
X191750000Y-110750000D03*
D18*
%TO.P,SW19,1,1*%
%TO.N,/SWCLK*%
X187750000Y-108000000D03*
%TO.P,SW19,2,2*%
%TO.N,Net-(J1-Pin_3)*%
X190250000Y-108000000D03*
%TO.P,SW19,3,3*%
%TO.N,/OLED_SCL*%
X192750000Y-108000000D03*
%TO.P,SW19,4,4*%
%TO.N,/SWDIO*%
X187750000Y-113500000D03*
%TO.P,SW19,5,5*%
%TO.N,Net-(J1-Pin_4)*%
X190250000Y-113500000D03*
%TO.P,SW19,6,6*%
%TO.N,/OLED_SDA*%
X192750000Y-113500000D03*
%TD*%
D10*
%TO.P,C4,1*%
%TO.N,Net-(U4-PD1)*%
X182727600Y-129721700D03*
%TO.P,C4,2*%
%TO.N,GND*%
X182727600Y-131796700D03*
%TD*%
D13*
%TO.P,D11,1,K*%
%TO.N,/KB_ROW_0*%
X123952000Y-84836000D03*
%TO.P,D11,2,A*%
%TO.N,Net-(D11-A)*%
X123952000Y-82786000D03*
%TD*%
D19*
%TO.P,USB1,*%
%TO.N,*%
X158290000Y-55320001D03*
X164070000Y-55320001D03*
D20*
%TO.P,USB1,1,GND*%
%TO.N,GND*%
X157979999Y-54240001D03*
%TO.P,USB1,2,VBUS*%
%TO.N,/VBUS*%
X158780000Y-54240000D03*
D21*
%TO.P,USB1,3,SBU2*%
%TO.N,unconnected-(USB1-SBU2-Pad3)*%
X159430001Y-54240000D03*
%TO.P,USB1,4,CC1*%
%TO.N,Net-(USB1-CC1)*%
X159930000Y-54240000D03*
%TO.P,USB1,5,DN2*%
%TO.N,/D-*%
X160430000Y-54240001D03*
%TO.P,USB1,6,DP1*%
%TO.N,/D+*%
X160930000Y-54240000D03*
%TO.P,USB1,7,DN1*%
%TO.N,/D-*%
X161430000Y-54240001D03*
%TO.P,USB1,8,DP2*%
%TO.N,/D+*%
X161930000Y-54240000D03*
%TO.P,USB1,9,SBU1*%
%TO.N,unconnected-(USB1-SBU1-Pad9)*%
X162430000Y-54240000D03*
%TO.P,USB1,10,CC2*%
%TO.N,Net-(USB1-CC2)*%
X162930000Y-54240000D03*
D20*
%TO.P,USB1,11,VBUS*%
%TO.N,/VBUS*%
X163580000Y-54240000D03*
%TO.P,USB1,12,GND*%
%TO.N,GND*%
X164379999Y-54240001D03*
D22*
%TO.P,USB1,13,SHELL*%
%TO.N,Net-(C13-Pad1)*%
X156860000Y-54790000D03*
D23*
X156860000Y-59000000D03*
D22*
%TO.P,USB1,14,SHELL*%
X165500000Y-54790000D03*
D23*
X165500000Y-59000000D03*
%TD*%
D11*
%TO.P,D3,1,K*%
%TO.N,GND*%
X101144000Y-128016000D03*
%TO.P,D3,2,A*%
%TO.N,Net-(D3-A)*%
X99394000Y-128016000D03*
%TD*%
D24*
%TO.P,C5,1*%
%TO.N,Net-(U4-NRST)*%
X186175000Y-57250000D03*
%TO.P,C5,2*%
%TO.N,GND*%
X188250000Y-57250000D03*
%TD*%
D14*
%TO.P,SW10,1,1*%
%TO.N,/KB_COL_2*%
X141224000Y-132588000D03*
%TO.P,SW10,2,2*%
%TO.N,Net-(D21-A)*%
X147574001Y-130048000D03*
%TD*%
D16*
%TO.P,R10,1*%
%TO.N,/MatrixL/LED_DRIVE*%
X95607500Y-108458000D03*
%TO.P,R10,2*%
%TO.N,Net-(D2-A)*%
X97432500Y-108458000D03*
%TD*%
%TO.P,R15,1*%
%TO.N,/MatrixL/LED_DRIVE*%
X115142000Y-122555000D03*
%TO.P,R15,2*%
%TO.N,Net-(D10-A)*%
X116967000Y-122555000D03*
%TD*%
D13*
%TO.P,D12,1,K*%
%TO.N,/KB_ROW_1*%
X124079000Y-104403000D03*
%TO.P,D12,2,A*%
%TO.N,Net-(D12-A)*%
X124079000Y-102353000D03*
%TD*%
D14*
%TO.P,SW11,1,1*%
%TO.N,/KB_COL_3*%
X153289000Y-71628000D03*
%TO.P,SW11,2,2*%
%TO.N,Net-(D26-A)*%
X159639001Y-69088000D03*
%TD*%
D16*
%TO.P,R22,1*%
%TO.N,/MatrixL/LED_DRIVE*%
X154291000Y-123444000D03*
%TO.P,R22,2*%
%TO.N,Net-(D24-A)*%
X156116000Y-123444000D03*
%TD*%
D24*
%TO.P,C12,1*%
%TO.N,+3V3*%
X186175000Y-65197680D03*
%TO.P,C12,2*%
%TO.N,GND*%
X188250000Y-65197680D03*
%TD*%
D25*
%TO.P,R1,1*%
%TO.N,Net-(USB1-CC2)*%
X129032000Y-64695700D03*
%TO.P,R1,2*%
%TO.N,GND*%
X129032000Y-66520700D03*
%TD*%
D14*
%TO.P,SW14,1,1*%
%TO.N,/KB_COL_3*%
X163855222Y-134101448D03*
%TO.P,SW14,2,2*%
%TO.N,Net-(D29-A)*%
X170646251Y-133291497D03*
%TD*%
D25*
%TO.P,R5,1*%
%TO.N,+3V3*%
X197250000Y-108619599D03*
%TO.P,R5,2*%
%TO.N,/OLED_SDA*%
X197250000Y-110444599D03*
%TD*%
D26*
%TO.P,D25,1,K*%
%TO.N,GND*%
X167005000Y-147828000D03*
%TO.P,D25,2,A*%
%TO.N,Net-(D25-A)*%
X165314630Y-147375066D03*
%TD*%
D16*
%TO.P,R25,1*%
%TO.N,/MatrixL/LED_DRIVE*%
X174352000Y-106045000D03*
%TO.P,R25,2*%
%TO.N,Net-(D31-A)*%
X176177000Y-106045000D03*
%TD*%
%TO.P,R7,1*%
%TO.N,Net-(U4-BOOT0)*%
X182000000Y-68024000D03*
%TO.P,R7,2*%
%TO.N,GND*%
X183825000Y-68024002D03*
%TD*%
D14*
%TO.P,SW16,1,1*%
%TO.N,/KB_COL_4*%
X173101000Y-93662500D03*
%TO.P,SW16,2,2*%
%TO.N,Net-(D35-A)*%
X179451001Y-91122500D03*
%TD*%
D27*
%TO.P,U1,1,GND*%
%TO.N,GND*%
X130100001Y-55950000D03*
%TO.P,U1,2,VO*%
%TO.N,+3V3*%
X130100000Y-58249999D03*
D28*
X136400000Y-58250001D03*
D27*
%TO.P,U1,3,VI*%
%TO.N,Net-(U1-VI)*%
X130100001Y-60550000D03*
%TD*%
D10*
%TO.P,C3,1*%
%TO.N,Net-(U4-PD0)*%
X180670200Y-129721700D03*
%TO.P,C3,2*%
%TO.N,GND*%
X180670200Y-131796700D03*
%TD*%
%TO.P,C1,1*%
%TO.N,Net-(C1-Pad1)*%
X146000000Y-65175000D03*
%TO.P,C1,2*%
%TO.N,GND*%
X146000000Y-67250000D03*
%TD*%
D29*
%TO.P,D1,1,A1*%
%TO.N,GND*%
X124250000Y-64000000D03*
%TO.P,D1,2,A2*%
%TO.N,/VBUS*%
X124250000Y-62249998D03*
%TD*%
D11*
%TO.P,D15,1,K*%
%TO.N,GND*%
X140180000Y-100965000D03*
%TO.P,D15,2,A*%
%TO.N,Net-(D15-A)*%
X138430000Y-100965000D03*
%TD*%
D13*
%TO.P,D13,1,K*%
%TO.N,/KB_ROW_2*%
X127508000Y-122183000D03*
%TO.P,D13,2,A*%
%TO.N,Net-(D13-A)*%
X127508000Y-120133000D03*
%TD*%
D14*
%TO.P,SW18,1,1*%
%TO.N,/KB_COL_4*%
X189613443Y-135976295D03*
%TO.P,SW18,2,2*%
%TO.N,Net-(D37-A)*%
X196382705Y-136951591D03*
%TD*%
D24*
%TO.P,C9,1*%
%TO.N,+3V3*%
X193000000Y-64802320D03*
%TO.P,C9,2*%
%TO.N,GND*%
X195075000Y-64802320D03*
%TD*%
%TO.P,C8,1*%
%TO.N,+3V3*%
X170925000Y-68250000D03*
%TO.P,C8,2*%
%TO.N,GND*%
X173000000Y-68250000D03*
%TD*%
D30*
%TO.P,U4,1,VBAT*%
%TO.N,+3V3*%
X179412501Y-64499999D03*
%TO.P,U4,2,PC13*%
%TO.N,unconnected-(U4-PC13-Pad2)*%
X179412500Y-64000000D03*
%TO.P,U4,3,PC14*%
%TO.N,unconnected-(U4-PC14-Pad3)*%
X179412500Y-63500000D03*
%TO.P,U4,4,PC15*%
%TO.N,unconnected-(U4-PC15-Pad4)*%
X179412500Y-63000001D03*
%TO.P,U4,5,PD0*%
%TO.N,Net-(U4-PD0)*%
X179412501Y-62499999D03*
%TO.P,U4,6,PD1*%
%TO.N,Net-(U4-PD1)*%
X179412500Y-62000000D03*
%TO.P,U4,7,NRST*%
%TO.N,Net-(U4-NRST)*%
X179412500Y-61500000D03*
%TO.P,U4,8,VSSA*%
%TO.N,GND*%
X179412500Y-61000000D03*
%TO.P,U4,9,VDDA*%
%TO.N,+3V3*%
X179412499Y-60500000D03*
%TO.P,U4,10,PA0*%
%TO.N,/KB_COL_0*%
X179412499Y-59999999D03*
%TO.P,U4,11,PA1*%
%TO.N,/KB_COL_1*%
X179412500Y-59500000D03*
%TO.P,U4,12,PA2*%
%TO.N,/KB_COL_2*%
X179412499Y-59000000D03*
D31*
%TO.P,U4,13,PA3*%
%TO.N,/KB_COL_3*%
X177999999Y-57587499D03*
%TO.P,U4,14,PA4*%
%TO.N,/KB_COL_4*%
X177500000Y-57587500D03*
%TO.P,U4,15,PA5*%
%TO.N,/KB_ROW_0*%
X177000000Y-57587500D03*
%TO.P,U4,16,PA6*%
%TO.N,/KB_ROW_1*%
X176500001Y-57587500D03*
%TO.P,U4,17,PA7*%
%TO.N,/KB_ROW_2*%
X175999999Y-57587499D03*
%TO.P,U4,18,PB0*%
%TO.N,unconnected-(U4-PB0-Pad18)*%
X175500000Y-57587500D03*
%TO.P,U4,19,PB1*%
%TO.N,unconnected-(U4-PB1-Pad19)*%
X175000000Y-57587500D03*
%TO.P,U4,20,PB2*%
%TO.N,unconnected-(U4-PB2-Pad20)*%
X174500000Y-57587500D03*
%TO.P,U4,21,PB10*%
%TO.N,unconnected-(U4-PB10-Pad21)*%
X174000000Y-57587501D03*
%TO.P,U4,22,PB11*%
%TO.N,unconnected-(U4-PB11-Pad22)*%
X173499999Y-57587501D03*
%TO.P,U4,23,VSS*%
%TO.N,GND*%
X173000000Y-57587500D03*
%TO.P,U4,24,VDD*%
%TO.N,+3V3*%
X172500000Y-57587501D03*
D30*
%TO.P,U4,25,PB12*%
%TO.N,unconnected-(U4-PB12-Pad25)*%
X171087499Y-59000001D03*
%TO.P,U4,26,PB13*%
%TO.N,Net-(Q1-G)*%
X171087500Y-59500000D03*
%TO.P,U4,27,PB14*%
%TO.N,unconnected-(U4-PB14-Pad27)*%
X171087500Y-60000000D03*
%TO.P,U4,28,PB15*%
%TO.N,unconnected-(U4-PB15-Pad28)*%
X171087500Y-60499999D03*
%TO.P,U4,29,PA8*%
%TO.N,/KB_ROW_3*%
X171087499Y-61000001D03*
%TO.P,U4,30,PA9*%
%TO.N,/UART_TX*%
X171087500Y-61500000D03*
%TO.P,U4,31,PA10*%
%TO.N,/UART_RX*%
X171087500Y-62000000D03*
%TO.P,U4,32,PA11*%
%TO.N,/D-*%
X171087500Y-62500000D03*
%TO.P,U4,33,PA12*%
%TO.N,/D+*%
X171087501Y-63000000D03*
%TO.P,U4,34,PA13*%
%TO.N,/SWDIO*%
X171087501Y-63500001D03*
%TO.P,U4,35,VSS*%
%TO.N,GND*%
X171087500Y-64000000D03*
%TO.P,U4,36,VDD*%
%TO.N,+3V3*%
X171087501Y-64500000D03*
D31*
%TO.P,U4,37,PA14*%
%TO.N,/SWCLK*%
X172500001Y-65912501D03*
%TO.P,U4,38,PA15*%
%TO.N,unconnected-(U4-PA15-Pad38)*%
X173000000Y-65912500D03*
%TO.P,U4,39,PB3*%
%TO.N,unconnected-(U4-PB3-Pad39)*%
X173500000Y-65912500D03*
%TO.P,U4,40,PB4*%
%TO.N,unconnected-(U4-PB4-Pad40)*%
X173999999Y-65912500D03*
%TO.P,U4,41,PB5*%
%TO.N,unconnected-(U4-PB5-Pad41)*%
X174500001Y-65912501D03*
%TO.P,U4,42,PB6*%
%TO.N,/OLED_SCL*%
X175000000Y-65912500D03*
%TO.P,U4,43,PB7*%
%TO.N,/OLED_SDA*%
X175500000Y-65912500D03*
%TO.P,U4,44,BOOT0*%
%TO.N,Net-(U4-BOOT0)*%
X176000000Y-65912500D03*
%TO.P,U4,45,PB8*%
%TO.N,unconnected-(U4-PB8-Pad45)*%
X176500000Y-65912499D03*
%TO.P,U4,46,PB9*%
%TO.N,unconnected-(U4-PB9-Pad46)*%
X177000001Y-65912499D03*
%TO.P,U4,47,VSS*%
%TO.N,GND*%
X177500000Y-65912500D03*
%TO.P,U4,48,VDD*%
%TO.N,+3V3*%
X178000000Y-65912499D03*
%TD*%
D24*
%TO.P,C6,1*%
%TO.N,+3V3*%
X193000000Y-62750000D03*
%TO.P,C6,2*%
%TO.N,GND*%
X195075000Y-62750000D03*
%TD*%
D32*
%TO.P,Audio1,*%
%TO.N,*%
X186800000Y-78500000D03*
X193500000Y-78500000D03*
D33*
%TO.P,Audio1,1,1*%
%TO.N,Net-(Audio1-Pad1)*%
X186800000Y-82750000D03*
%TO.P,Audio1,2,2*%
%TO.N,+3V3*%
X195000000Y-74250000D03*
%TO.P,Audio1,3,3*%
%TO.N,Net-(Audio1-Pad3)*%
X192000000Y-74250001D03*
%TO.P,Audio1,4,4*%
%TO.N,Net-(Audio1-Pad4)*%
X188100000Y-74250000D03*
%TO.P,Audio1,5,5*%
%TO.N,+3V3*%
X195000000Y-82750000D03*
%TD*%
D11*
%TO.P,D2,1,K*%
%TO.N,GND*%
X100974500Y-108458000D03*
%TO.P,D2,2,A*%
%TO.N,Net-(D2-A)*%
X99224500Y-108458000D03*
%TD*%
D13*
%TO.P,D36,1,K*%
%TO.N,/KB_ROW_2*%
X182753000Y-127145000D03*
%TO.P,D36,2,A*%
%TO.N,Net-(D36-A)*%
X182753000Y-125095000D03*
%TD*%
D34*
%TO.P,U2,1,D1+*%
%TO.N,/D+*%
X127500000Y-61250000D03*
%TO.P,U2,2,D1-*%
%TO.N,/D-*%
X127500000Y-60750000D03*
%TO.P,U2,3,GND*%
%TO.N,GND*%
X127500000Y-60250000D03*
%TO.P,U2,4,D2+*%
%TO.N,unconnected-(U2-D2+-Pad4)*%
X127500000Y-59750000D03*
%TO.P,U2,5,D2-*%
%TO.N,unconnected-(U2-D2--Pad5)*%
X127500000Y-59250000D03*
%TO.P,U2,6,NC*%
%TO.N,unconnected-(U2-NC-Pad6)*%
X126730000Y-59250000D03*
%TO.P,U2,7,NC*%
%TO.N,unconnected-(U2-NC-Pad7)*%
X126730000Y-59750000D03*
%TO.P,U2,8,GND*%
%TO.N,GND*%
X126730000Y-60250000D03*
%TO.P,U2,9,NC*%
%TO.N,unconnected-(U2-NC-Pad9)*%
X126730000Y-60750000D03*
%TO.P,U2,10,NC*%
%TO.N,unconnected-(U2-NC-Pad10)*%
X126730000Y-61250000D03*
%TD*%
D13*
%TO.P,D35,1,K*%
%TO.N,/KB_ROW_1*%
X183134000Y-106943000D03*
%TO.P,D35,2,A*%
%TO.N,Net-(D35-A)*%
X183134000Y-104893000D03*
%TD*%
D25*
%TO.P,R2,1*%
%TO.N,Net-(USB1-CC1)*%
X127025400Y-64719200D03*
%TO.P,R2,2*%
%TO.N,GND*%
X127025400Y-66544200D03*
%TD*%
D11*
%TO.P,D9,1,K*%
%TO.N,GND*%
X120645500Y-103505000D03*
%TO.P,D9,2,A*%
%TO.N,Net-(D9-A)*%
X118895500Y-103505000D03*
%TD*%
%TO.P,D23,1,K*%
%TO.N,GND*%
X159738000Y-103759000D03*
%TO.P,D23,2,A*%
%TO.N,Net-(D23-A)*%
X157988000Y-103759000D03*
%TD*%
D14*
%TO.P,SW4,1,1*%
%TO.N,/KB_COL_1*%
X114173000Y-71755000D03*
%TO.P,SW4,2,2*%
%TO.N,Net-(D11-A)*%
X120523001Y-69215000D03*
%TD*%
%TO.P,SW6,1,1*%
%TO.N,/KB_COL_1*%
X114173000Y-110490000D03*
%TO.P,SW6,2,2*%
%TO.N,Net-(D13-A)*%
X120523001Y-107950000D03*
%TD*%
D35*
%TO.P,L1,1,1*%
%TO.N,/VBUS*%
X139625000Y-54750000D03*
%TO.P,L1,2,2*%
%TO.N,Net-(C1-Pad1)*%
X141375000Y-54750000D03*
%TD*%
D16*
%TO.P,R17,1*%
%TO.N,/MatrixL/LED_DRIVE*%
X134747000Y-100965000D03*
%TO.P,R17,2*%
%TO.N,Net-(D15-A)*%
X136572000Y-100965000D03*
%TD*%
%TO.P,R24,1*%
%TO.N,/MatrixL/LED_DRIVE*%
X174220500Y-86360000D03*
%TO.P,R24,2*%
%TO.N,Net-(D30-A)*%
X176045500Y-86360000D03*
%TD*%
D36*
%TO.P,R27,1*%
%TO.N,/MatrixL/LED_DRIVE*%
X184093504Y-147550500D03*
%TO.P,R27,2*%
%TO.N,Net-(D33-A)*%
X185674000Y-148463000D03*
%TD*%
D37*
%TO.P,J1,1,Pin_1*%
%TO.N,GND*%
X196195000Y-104913800D03*
D38*
%TO.P,J1,2,Pin_2*%
%TO.N,+3V3*%
X193655000Y-104913799D03*
%TO.P,J1,3,Pin_3*%
%TO.N,Net-(J1-Pin_3)*%
X191115001Y-104913800D03*
%TO.P,J1,4,Pin_4*%
%TO.N,Net-(J1-Pin_4)*%
X188575000Y-104913800D03*
%TD*%
D13*
%TO.P,D6,1,K*%
%TO.N,/KB_ROW_1*%
X104267000Y-109601000D03*
%TO.P,D6,2,A*%
%TO.N,Net-(D6-A)*%
X104267000Y-107551000D03*
%TD*%
%TO.P,D5,1,K*%
%TO.N,/KB_ROW_0*%
X104394000Y-89417000D03*
%TO.P,D5,2,A*%
%TO.N,Net-(D5-A)*%
X104394000Y-87367000D03*
%TD*%
D39*
%TO.P,R9,1*%
%TO.N,GND*%
X193286000Y-91494900D03*
%TO.P,R9,2*%
%TO.N,Net-(Audio1-Pad1)*%
X193286000Y-89669900D03*
%TD*%
D13*
%TO.P,D37,1,K*%
%TO.N,/KB_ROW_3*%
X197000000Y-151000000D03*
%TO.P,D37,2,A*%
%TO.N,Net-(D37-A)*%
X197000000Y-148950000D03*
%TD*%
D15*
%TO.P,U5,1*%
%TO.N,GND*%
X189745000Y-90017900D03*
%TO.P,U5,2*%
%TO.N,Net-(Audio1-Pad4)*%
X188795000Y-90017900D03*
%TO.P,U5,3,GND*%
%TO.N,GND*%
X187845000Y-90017900D03*
%TO.P,U5,4*%
%TO.N,/UART_RX*%
X187845000Y-92717900D03*
%TO.P,U5,5,VCC*%
%TO.N,+3V3*%
X189745000Y-92717900D03*
%TD*%
D16*
%TO.P,R21,1*%
%TO.N,/MatrixL/LED_DRIVE*%
X154385000Y-103759000D03*
%TO.P,R21,2*%
%TO.N,Net-(D23-A)*%
X156210000Y-103759000D03*
%TD*%
D14*
%TO.P,SW15,1,1*%
%TO.N,/KB_COL_4*%
X173101000Y-73914000D03*
%TO.P,SW15,2,2*%
%TO.N,Net-(D34-A)*%
X179451001Y-71374000D03*
%TD*%
D16*
%TO.P,R26,1*%
%TO.N,/MatrixL/LED_DRIVE*%
X173839500Y-125857000D03*
%TO.P,R26,2*%
%TO.N,Net-(D32-A)*%
X175664500Y-125857000D03*
%TD*%
D14*
%TO.P,SW1,1,1*%
%TO.N,/KB_COL_0*%
X94488000Y-76454000D03*
%TO.P,SW1,2,2*%
%TO.N,Net-(D5-A)*%
X100838001Y-73914000D03*
%TD*%
D16*
%TO.P,R18,1*%
%TO.N,/MatrixL/LED_DRIVE*%
X134700000Y-120904000D03*
%TO.P,R18,2*%
%TO.N,Net-(D16-A)*%
X136525000Y-120904000D03*
%TD*%
D13*
%TO.P,D34,1,K*%
%TO.N,/KB_ROW_0*%
X182880000Y-87267000D03*
%TO.P,D34,2,A*%
%TO.N,Net-(D34-A)*%
X182880000Y-85217000D03*
%TD*%
D24*
%TO.P,C10,1*%
%TO.N,+3V3*%
X193000000Y-66854640D03*
%TO.P,C10,2*%
%TO.N,GND*%
X195075000Y-66854640D03*
%TD*%
D16*
%TO.P,R16,1*%
%TO.N,/MatrixL/LED_DRIVE*%
X134620000Y-81280000D03*
%TO.P,R16,2*%
%TO.N,Net-(D14-A)*%
X136445000Y-81280000D03*
%TD*%
D10*
%TO.P,C2,1*%
%TO.N,+3V3*%
X148108200Y-65175000D03*
%TO.P,C2,2*%
%TO.N,GND*%
X148108200Y-67250000D03*
%TD*%
D16*
%TO.P,R20,1*%
%TO.N,/MatrixL/LED_DRIVE*%
X154432000Y-84074000D03*
%TO.P,R20,2*%
%TO.N,Net-(D22-A)*%
X156257000Y-84074000D03*
%TD*%
%TO.P,R13,1*%
%TO.N,/MatrixL/LED_DRIVE*%
X115316000Y-83947000D03*
%TO.P,R13,2*%
%TO.N,Net-(D8-A)*%
X117141000Y-83947000D03*
%TD*%
D14*
%TO.P,SW7,1,1*%
%TO.N,/KB_COL_2*%
X133604000Y-68834000D03*
%TO.P,SW7,2,2*%
%TO.N,Net-(D18-A)*%
X139954001Y-66294000D03*
%TD*%
D16*
%TO.P,R19,1*%
%TO.N,/MatrixL/LED_DRIVE*%
X142216500Y-144907000D03*
%TO.P,R19,2*%
%TO.N,Net-(D17-A)*%
X144041500Y-144907000D03*
%TD*%
D40*
%TO.P,F1,1*%
%TO.N,Net-(C1-Pad1)*%
X140750000Y-57000000D03*
%TO.P,F1,2*%
%TO.N,Net-(U1-VI)*%
X140750000Y-61450000D03*
%TD*%
D13*
%TO.P,D28,1,K*%
%TO.N,/KB_ROW_2*%
X163322000Y-124469000D03*
%TO.P,D28,2,A*%
%TO.N,Net-(D28-A)*%
X163322000Y-122419000D03*
%TD*%
D16*
%TO.P,R31,1*%
%TO.N,+3V3*%
X163587500Y-65000000D03*
%TO.P,R31,2*%
%TO.N,/D+*%
X165412500Y-65000000D03*
%TD*%
%TO.P,R14,1*%
%TO.N,/MatrixL/LED_DRIVE*%
X115292500Y-103505000D03*
%TO.P,R14,2*%
%TO.N,Net-(D9-A)*%
X117117500Y-103505000D03*
%TD*%
D11*
%TO.P,D10,1,K*%
%TO.N,GND*%
X120575000Y-122555000D03*
%TO.P,D10,2,A*%
%TO.N,Net-(D10-A)*%
X118825000Y-122555000D03*
%TD*%
D12*
%TO.P,R3,1*%
%TO.N,+3V3*%
X153139000Y-55573400D03*
%TO.P,R3,2*%
%TO.N,Net-(U4-NRST)*%
X151314000Y-55573400D03*
%TD*%
D41*
%TO.P,Y1,1,1*%
%TO.N,Net-(U4-PD1)*%
X186449999Y-59750000D03*
%TO.P,Y1,2,2*%
%TO.N,GND*%
X186449998Y-62650002D03*
%TO.P,Y1,3,3*%
%TO.N,Net-(U4-PD0)*%
X188749999Y-62650002D03*
%TO.P,Y1,4,4*%
%TO.N,GND*%
X188750000Y-59750000D03*
%TD*%
D11*
%TO.P,D24,1,K*%
%TO.N,GND*%
X159738000Y-123444000D03*
%TO.P,D24,2,A*%
%TO.N,Net-(D24-A)*%
X157988000Y-123444000D03*
%TD*%
D42*
%TO.P,R23,1*%
%TO.N,/MatrixL/LED_DRIVE*%
X161559186Y-146339656D03*
%TO.P,R23,2*%
%TO.N,Net-(D25-A)*%
X163322000Y-146812000D03*
%TD*%
D11*
%TO.P,D8,1,K*%
%TO.N,GND*%
X120669000Y-83947000D03*
%TO.P,D8,2,A*%
%TO.N,Net-(D8-A)*%
X118919000Y-83947000D03*
%TD*%
%TO.P,D31,1,K*%
%TO.N,GND*%
X179705000Y-106045000D03*
%TO.P,D31,2,A*%
%TO.N,Net-(D31-A)*%
X177955000Y-106045000D03*
%TD*%
D14*
%TO.P,SW12,1,1*%
%TO.N,/KB_COL_3*%
X153289000Y-91313000D03*
%TO.P,SW12,2,2*%
%TO.N,Net-(D27-A)*%
X159639001Y-88773000D03*
%TD*%
%TO.P,SW9,1,1*%
%TO.N,/KB_COL_2*%
X133604000Y-108585000D03*
%TO.P,SW9,2,2*%
%TO.N,Net-(D20-A)*%
X139954001Y-106045000D03*
%TD*%
%TO.P,SW8,1,1*%
%TO.N,/KB_COL_2*%
X133604000Y-88709500D03*
%TO.P,SW8,2,2*%
%TO.N,Net-(D19-A)*%
X139954001Y-86169500D03*
%TD*%
D24*
%TO.P,C11,1*%
%TO.N,+3V3*%
X186175000Y-67250000D03*
%TO.P,C11,2*%
%TO.N,GND*%
X188250000Y-67250000D03*
%TD*%
D11*
%TO.P,D14,1,K*%
%TO.N,GND*%
X140053000Y-81280000D03*
%TO.P,D14,2,A*%
%TO.N,Net-(D14-A)*%
X138303000Y-81280000D03*
%TD*%
D12*
%TO.P,R6,1*%
%TO.N,+3V3*%
X183825000Y-66500002D03*
%TO.P,R6,2*%
%TO.N,Net-(U4-BOOT0)*%
X182000000Y-66500000D03*
%TD*%
D39*
%TO.P,R4,1*%
%TO.N,+3V3*%
X195345000Y-110444599D03*
%TO.P,R4,2*%
%TO.N,/OLED_SCL*%
X195345000Y-108619599D03*
%TD*%
D43*
%TO.P,C7,1*%
%TO.N,+3V3*%
X170575000Y-56000000D03*
%TO.P,C7,2*%
%TO.N,GND*%
X168500000Y-56000000D03*
%TD*%
D44*
%TO.P,U3,*%
%TO.N,*%
X146750000Y-59250000D03*
X146750000Y-56950000D03*
D45*
%TO.P,U3,1,1*%
%TO.N,GND*%
X144750000Y-60190000D03*
%TO.P,U3,2,2*%
%TO.N,Net-(U4-NRST)*%
X144750000Y-56000000D03*
D46*
%TO.P,U3,3,3*%
%TO.N,GND*%
X147310000Y-54640000D03*
D17*
X147060000Y-54320000D03*
%TO.P,U3,4,4*%
X147060000Y-61820000D03*
D47*
X147310000Y-61540000D03*
%TD*%
D48*
%TO.P,D33,1,K*%
%TO.N,GND*%
X188713544Y-150227000D03*
%TO.P,D33,2,A*%
%TO.N,Net-(D33-A)*%
X187198000Y-149352000D03*
%TD*%
D16*
%TO.P,R11,1*%
%TO.N,/MatrixL/LED_DRIVE*%
X95711000Y-128016000D03*
%TO.P,R11,2*%
%TO.N,Net-(D3-A)*%
X97536000Y-128016000D03*
%TD*%
D13*
%TO.P,D26,1,K*%
%TO.N,/KB_ROW_0*%
X163068000Y-84836000D03*
%TO.P,D26,2,A*%
%TO.N,Net-(D26-A)*%
X163068000Y-82786000D03*
%TD*%
D11*
%TO.P,D22,1,K*%
%TO.N,GND*%
X159785000Y-84074000D03*
%TO.P,D22,2,A*%
%TO.N,Net-(D22-A)*%
X158035000Y-84074000D03*
%TD*%
D13*
%TO.P,D29,1,K*%
%TO.N,/KB_ROW_3*%
X174498000Y-148472000D03*
%TO.P,D29,2,A*%
%TO.N,Net-(D29-A)*%
X174498000Y-146422000D03*
%TD*%
%TO.P,D21,1,K*%
%TO.N,/KB_ROW_3*%
X154051000Y-145043000D03*
%TO.P,D21,2,A*%
%TO.N,Net-(D21-A)*%
X154051000Y-142993000D03*
%TD*%
D49*
%TO.P,Q1,1,G*%
%TO.N,Net-(Q1-G)*%
X167950000Y-72000000D03*
%TO.P,Q1,2,S*%
%TO.N,GND*%
X166050000Y-72000000D03*
%TO.P,Q1,3,D*%
%TO.N,/MatrixL/LED_DRIVE*%
X167000000Y-75000000D03*
%TD*%
D14*
%TO.P,SW3,1,1*%
%TO.N,/KB_COL_0*%
X94488000Y-115951000D03*
%TO.P,SW3,2,2*%
%TO.N,Net-(D7-A)*%
X100838001Y-113411000D03*
%TD*%
D13*
%TO.P,D20,1,K*%
%TO.N,/KB_ROW_2*%
X143637000Y-121802000D03*
%TO.P,D20,2,A*%
%TO.N,Net-(D20-A)*%
X143637000Y-119752000D03*
%TD*%
D50*
%TO.N,/D+*%
X160955000Y-54265000D02*
X160955000Y-55832527D01*
X162005001Y-59007527D02*
X161405001Y-59007527D01*
X161580001Y-57007527D02*
X160355001Y-57007527D01*
X160355001Y-60457527D02*
X160780001Y-60457527D01*
X160955001Y-58457527D02*
X162005001Y-58457527D01*
X160955001Y-60832527D02*
X160955000Y-61752576D01*
X161405001Y-59007527D02*
X160355001Y-59007527D01*
X160955000Y-61752576D02*
X161869212Y-62666788D01*
X159730001Y-59632527D02*
X159730001Y-59832527D01*
X160930000Y-54240000D02*
X160955000Y-54265000D01*
X160955001Y-60632527D02*
X160955001Y-60832527D01*
X162005001Y-57007527D02*
X161580001Y-57007527D01*
X162180001Y-56632527D02*
X162180001Y-56832527D01*
X162180001Y-58632527D02*
X162180001Y-58832527D01*
X160355001Y-58457527D02*
X160955001Y-58457527D01*
D51*
X171079000Y-63008501D02*
X162210925Y-63008501D01*
D50*
X160955000Y-55832527D02*
X160955001Y-55832527D01*
X159730001Y-57632527D02*
X159730001Y-57832527D01*
D51*
X171087501Y-63000000D02*
X171079000Y-63008501D01*
X171087501Y-63000000D02*
X171021001Y-62933500D01*
X162210925Y-63008501D02*
X161869212Y-62666788D01*
D50*
X161580001Y-56457527D02*
X162005001Y-56457527D01*
X160355001Y-57007527D02*
G75*
G03*
X159730027Y-57632527I-1J-624973D01*
G01*
X160955001Y-55832527D02*
G75*
G03*
X161580001Y-56457499I624999J27D01*
G01*
X159730001Y-57832527D02*
G75*
G03*
X160355001Y-58457499I624999J27D01*
G01*
X162180001Y-56832527D02*
G75*
G02*
X162005001Y-57007501I-175001J27D01*
G01*
X162180001Y-58832527D02*
G75*
G02*
X162005001Y-59007501I-175001J27D01*
G01*
X162005001Y-58457527D02*
G75*
G02*
X162179973Y-58632527I-1J-174973D01*
G01*
X160355001Y-59007527D02*
G75*
G03*
X159730027Y-59632527I-1J-624973D01*
G01*
X159730001Y-59832527D02*
G75*
G03*
X160355001Y-60457499I624999J27D01*
G01*
X162005001Y-56457527D02*
G75*
G02*
X162179973Y-56632527I-1J-174973D01*
G01*
X160780001Y-60457527D02*
G75*
G02*
X160954973Y-60632527I-1J-174973D01*
G01*
%TO.N,/D-*%
X161405001Y-60832527D02*
X161405001Y-61471425D01*
X161405001Y-59457527D02*
X160355001Y-59457527D01*
X162630001Y-56632527D02*
X162630001Y-56832527D01*
D51*
X171087500Y-62500000D02*
X171021001Y-62566499D01*
X171087500Y-62500000D02*
X171079000Y-62491500D01*
D50*
X162630001Y-58632527D02*
X162630001Y-58832527D01*
X161405001Y-60632527D02*
X161405001Y-60832527D01*
X161580001Y-57457527D02*
X160355001Y-57457527D01*
X161430000Y-54240001D02*
X161405001Y-54265000D01*
X160955001Y-58007527D02*
X162005001Y-58007527D01*
X162005001Y-59457527D02*
X161405001Y-59457527D01*
X162005001Y-57457527D02*
X161580001Y-57457527D01*
X160180001Y-59632527D02*
X160180001Y-59832527D01*
X161405001Y-54265000D02*
X161405001Y-55832527D01*
D51*
X171079000Y-62491500D02*
X162425076Y-62491500D01*
X162425076Y-62491500D02*
X162234788Y-62301212D01*
D50*
X161405001Y-61471425D02*
X162234788Y-62301212D01*
X161580001Y-56007527D02*
X162005001Y-56007527D01*
X160355001Y-60007527D02*
X160780001Y-60007527D01*
X160180001Y-57632527D02*
X160180001Y-57832527D01*
X160355001Y-58007527D02*
X160955001Y-58007527D01*
X162630001Y-58832527D02*
G75*
G02*
X162005001Y-59457501I-625001J27D01*
G01*
X161405001Y-55832527D02*
G75*
G03*
X161580001Y-56007499I174999J27D01*
G01*
X162005001Y-58007527D02*
G75*
G02*
X162629973Y-58632527I-1J-624973D01*
G01*
X160780001Y-60007527D02*
G75*
G02*
X161404973Y-60632527I-1J-624973D01*
G01*
X160180001Y-59832527D02*
G75*
G03*
X160355001Y-60007499I174999J27D01*
G01*
X160355001Y-59457527D02*
G75*
G03*
X160180027Y-59632527I-1J-174973D01*
G01*
X160355001Y-57457527D02*
G75*
G03*
X160180027Y-57632527I-1J-174973D01*
G01*
X162005001Y-56007527D02*
G75*
G02*
X162629973Y-56632527I-1J-624973D01*
G01*
X162630001Y-56832527D02*
G75*
G02*
X162005001Y-57457501I-625001J27D01*
G01*
X160180001Y-57832527D02*
G75*
G03*
X160355001Y-58007499I174999J27D01*
G01*
%TD*%
M02*
