%TF.GenerationSoftware,KiCad,Pcbnew,8.0.8*%
%TF.CreationDate,2025-02-15T14:10:55+01:00*%
%TF.ProjectId,sichergo-left,73696368-6572-4676-9f2d-6c6566742e6b,rev?*%
%TF.SameCoordinates,Original*%
%TF.FileFunction,Copper,L4,Bot*%
%TF.FilePolarity,Positive*%
%FSLAX46Y46*%
G04 Gerber Fmt 4.6, Leading zero omitted, Abs format (unit mm)*
G04 Created by KiCad (PCBNEW 8.0.8) date 2025-02-15 14:10:55*
%MOMM*%
%LPD*%
G01*
G04 APERTURE LIST*
%TA.AperFunction,ComponentPad*%
%ADD10C,2.000000*%
%TD*%
%TA.AperFunction,ComponentPad*%
%ADD11C,1.000000*%
%TD*%
%TA.AperFunction,ComponentPad*%
%ADD12C,0.700000*%
%TD*%
%TA.AperFunction,ComponentPad*%
%ADD13O,1.100000X2.000000*%
%TD*%
%TA.AperFunction,ComponentPad*%
%ADD14O,1.200000X1.800000*%
%TD*%
%TA.AperFunction,ComponentPad*%
%ADD15C,1.500000*%
%TD*%
%TA.AperFunction,ComponentPad*%
%ADD16R,1.700000X1.700000*%
%TD*%
%TA.AperFunction,ComponentPad*%
%ADD17O,1.700000X1.700000*%
%TD*%
%TA.AperFunction,ComponentPad*%
%ADD18C,0.900000*%
%TD*%
G04 APERTURE END LIST*
D10*
%TO.P,SW17,1,1*%
%TO.N,/KB_COL_4*%
X173101000Y-113411000D03*
%TO.P,SW17,2,2*%
%TO.N,Net-(D36-A)*%
X179451001Y-110871000D03*
%TD*%
%TO.P,SW5,1,1*%
%TO.N,/KB_COL_1*%
X114173000Y-91122500D03*
%TO.P,SW5,2,2*%
%TO.N,Net-(D12-A)*%
X120523001Y-88582500D03*
%TD*%
%TO.P,SW2,1,1*%
%TO.N,/KB_COL_0*%
X94488000Y-96202500D03*
%TO.P,SW2,2,2*%
%TO.N,Net-(D6-A)*%
X100838001Y-93662500D03*
%TD*%
%TO.P,SW13,1,1*%
%TO.N,/KB_COL_3*%
X153289000Y-110998000D03*
%TO.P,SW13,2,2*%
%TO.N,Net-(D28-A)*%
X159639001Y-108458000D03*
%TD*%
D11*
%TO.P,SW19,*%
%TO.N,*%
X188750000Y-110750000D03*
X191750000Y-110750000D03*
%TD*%
D12*
%TO.P,USB1,*%
%TO.N,*%
X158290000Y-55320001D03*
X164070000Y-55320001D03*
D13*
%TO.P,USB1,13,SHELL*%
%TO.N,Net-(C13-Pad1)*%
X156860000Y-54790000D03*
D14*
X156860000Y-59000000D03*
D13*
%TO.P,USB1,14,SHELL*%
X165500000Y-54790000D03*
D14*
X165500000Y-59000000D03*
%TD*%
D10*
%TO.P,SW10,1,1*%
%TO.N,/KB_COL_2*%
X141224000Y-132588000D03*
%TO.P,SW10,2,2*%
%TO.N,Net-(D21-A)*%
X147574001Y-130048000D03*
%TD*%
%TO.P,SW11,1,1*%
%TO.N,/KB_COL_3*%
X153289000Y-71628000D03*
%TO.P,SW11,2,2*%
%TO.N,Net-(D26-A)*%
X159639001Y-69088000D03*
%TD*%
%TO.P,SW14,1,1*%
%TO.N,/KB_COL_3*%
X163855222Y-134101448D03*
%TO.P,SW14,2,2*%
%TO.N,Net-(D29-A)*%
X170646251Y-133291497D03*
%TD*%
%TO.P,SW16,1,1*%
%TO.N,/KB_COL_4*%
X173101000Y-93662500D03*
%TO.P,SW16,2,2*%
%TO.N,Net-(D35-A)*%
X179451001Y-91122500D03*
%TD*%
%TO.P,SW18,1,1*%
%TO.N,/KB_COL_4*%
X189613443Y-135976295D03*
%TO.P,SW18,2,2*%
%TO.N,Net-(D37-A)*%
X196382705Y-136951591D03*
%TD*%
D15*
%TO.P,Audio1,*%
%TO.N,*%
X186800000Y-78500000D03*
X193500000Y-78500000D03*
%TD*%
D10*
%TO.P,SW4,1,1*%
%TO.N,/KB_COL_1*%
X114173000Y-71755000D03*
%TO.P,SW4,2,2*%
%TO.N,Net-(D11-A)*%
X120523001Y-69215000D03*
%TD*%
%TO.P,SW6,1,1*%
%TO.N,/KB_COL_1*%
X114173000Y-110490000D03*
%TO.P,SW6,2,2*%
%TO.N,Net-(D13-A)*%
X120523001Y-107950000D03*
%TD*%
D16*
%TO.P,J1,1,Pin_1*%
%TO.N,GND*%
X196195000Y-104913800D03*
D17*
%TO.P,J1,2,Pin_2*%
%TO.N,+3V3*%
X193655000Y-104913799D03*
%TO.P,J1,3,Pin_3*%
%TO.N,Net-(J1-Pin_3)*%
X191115001Y-104913800D03*
%TO.P,J1,4,Pin_4*%
%TO.N,Net-(J1-Pin_4)*%
X188575000Y-104913800D03*
%TD*%
D10*
%TO.P,SW15,1,1*%
%TO.N,/KB_COL_4*%
X173101000Y-73914000D03*
%TO.P,SW15,2,2*%
%TO.N,Net-(D34-A)*%
X179451001Y-71374000D03*
%TD*%
%TO.P,SW1,1,1*%
%TO.N,/KB_COL_0*%
X94488000Y-76454000D03*
%TO.P,SW1,2,2*%
%TO.N,Net-(D5-A)*%
X100838001Y-73914000D03*
%TD*%
%TO.P,SW7,1,1*%
%TO.N,/KB_COL_2*%
X133604000Y-68834000D03*
%TO.P,SW7,2,2*%
%TO.N,Net-(D18-A)*%
X139954001Y-66294000D03*
%TD*%
%TO.P,SW12,1,1*%
%TO.N,/KB_COL_3*%
X153289000Y-91313000D03*
%TO.P,SW12,2,2*%
%TO.N,Net-(D27-A)*%
X159639001Y-88773000D03*
%TD*%
%TO.P,SW9,1,1*%
%TO.N,/KB_COL_2*%
X133604000Y-108585000D03*
%TO.P,SW9,2,2*%
%TO.N,Net-(D20-A)*%
X139954001Y-106045000D03*
%TD*%
%TO.P,SW8,1,1*%
%TO.N,/KB_COL_2*%
X133604000Y-88709500D03*
%TO.P,SW8,2,2*%
%TO.N,Net-(D19-A)*%
X139954001Y-86169500D03*
%TD*%
D18*
%TO.P,U3,*%
%TO.N,*%
X146750000Y-59250000D03*
X146750000Y-56950000D03*
D11*
%TO.P,U3,3,3*%
%TO.N,GND*%
X147060000Y-54320000D03*
%TO.P,U3,4,4*%
X147060000Y-61820000D03*
%TD*%
D10*
%TO.P,SW3,1,1*%
%TO.N,/KB_COL_0*%
X94488000Y-115951000D03*
%TO.P,SW3,2,2*%
%TO.N,Net-(D7-A)*%
X100838001Y-113411000D03*
%TD*%
M02*
