%TF.GenerationSoftware,KiCad,Pcbnew,8.0.8*%
%TF.CreationDate,2025-02-15T19:25:01+01:00*%
%TF.ProjectId,sichergo-left,73696368-6572-4676-9f2d-6c6566742e6b,rev?*%
%TF.SameCoordinates,Original*%
%TF.FileFunction,Soldermask,Top*%
%TF.FilePolarity,Negative*%
%FSLAX46Y46*%
G04 Gerber Fmt 4.6, Leading zero omitted, Abs format (unit mm)*
G04 Created by KiCad (PCBNEW 8.0.8) date 2025-02-15 19:25:01*
%MOMM*%
%LPD*%
G01*
G04 APERTURE LIST*
G04 Aperture macros list*
%AMRoundRect*
0 Rectangle with rounded corners*
0 $1 Rounding radius*
0 $2 $3 $4 $5 $6 $7 $8 $9 X,Y pos of 4 corners*
0 Add a 4 corners polygon primitive as box body*
4,1,4,$2,$3,$4,$5,$6,$7,$8,$9,$2,$3,0*
0 Add four circle primitives for the rounded corners*
1,1,$1+$1,$2,$3*
1,1,$1+$1,$4,$5*
1,1,$1+$1,$6,$7*
1,1,$1+$1,$8,$9*
0 Add four rect primitives between the rounded corners*
20,1,$1+$1,$2,$3,$4,$5,0*
20,1,$1+$1,$4,$5,$6,$7,0*
20,1,$1+$1,$6,$7,$8,$9,0*
20,1,$1+$1,$8,$9,$2,$3,0*%
%AMFreePoly0*
4,1,17,0.785355,0.785355,0.800000,0.750000,0.800000,-0.750000,0.785355,-0.785355,0.750000,-0.800000,-0.750000,-0.800000,-0.785355,-0.785355,-0.800000,-0.750000,-0.800000,-0.050000,-0.785355,-0.014645,-0.750000,0.000000,-0.100000,0.000000,-0.100000,0.750000,-0.085355,0.785355,-0.050000,0.800000,0.750000,0.800000,0.785355,0.785355,0.785355,0.785355,$1*%
%AMFreePoly1*
4,1,17,0.085355,0.785355,0.100000,0.750000,0.100000,0.000000,0.750000,0.000000,0.785355,-0.014645,0.800000,-0.050000,0.800000,-0.750000,0.785355,-0.785355,0.750000,-0.800000,-0.750000,-0.800000,-0.785355,-0.785355,-0.800000,-0.750000,-0.800000,0.750000,-0.785355,0.785355,-0.750000,0.800000,0.050000,0.800000,0.085355,0.785355,0.085355,0.785355,$1*%
G04 Aperture macros list end*
%ADD10RoundRect,0.237500X0.287500X0.237500X-0.287500X0.237500X-0.287500X-0.237500X0.287500X-0.237500X0*%
%ADD11RoundRect,0.237500X0.250000X0.237500X-0.250000X0.237500X-0.250000X-0.237500X0.250000X-0.237500X0*%
%ADD12RoundRect,0.250000X0.450000X-0.325000X0.450000X0.325000X-0.450000X0.325000X-0.450000X-0.325000X0*%
%ADD13C,4.150000*%
%ADD14C,2.000000*%
%ADD15RoundRect,0.162500X-0.162500X0.617500X-0.162500X-0.617500X0.162500X-0.617500X0.162500X0.617500X0*%
%ADD16RoundRect,0.237500X-0.250000X-0.237500X0.250000X-0.237500X0.250000X0.237500X-0.250000X0.237500X0*%
%ADD17C,1.000000*%
%ADD18R,1.000000X1.500000*%
%ADD19RoundRect,0.250000X0.475000X-0.337500X0.475000X0.337500X-0.475000X0.337500X-0.475000X-0.337500X0*%
%ADD20C,0.700000*%
%ADD21R,0.550000X1.100000*%
%ADD22R,0.300000X1.100000*%
%ADD23O,1.100000X2.000000*%
%ADD24O,1.200000X1.800000*%
%ADD25RoundRect,0.250000X-0.475000X0.337500X-0.475000X-0.337500X0.475000X-0.337500X0.475000X0.337500X0*%
%ADD26RoundRect,0.237500X-0.237500X0.250000X-0.237500X-0.250000X0.237500X-0.250000X0.237500X0.250000X0*%
%ADD27RoundRect,0.237500X0.339173X0.154997X-0.216234X0.303818X-0.339173X-0.154997X0.216234X-0.303818X0*%
%ADD28RoundRect,0.375000X-0.625000X-0.375000X0.625000X-0.375000X0.625000X0.375000X-0.625000X0.375000X0*%
%ADD29RoundRect,0.500000X-0.500000X-1.400000X0.500000X-1.400000X0.500000X1.400000X-0.500000X1.400000X0*%
%ADD30RoundRect,0.237500X0.237500X-0.287500X0.237500X0.287500X-0.237500X0.287500X-0.237500X-0.287500X0*%
%ADD31RoundRect,0.250000X-0.337500X-0.475000X0.337500X-0.475000X0.337500X0.475000X-0.337500X0.475000X0*%
%ADD32RoundRect,0.075000X0.662500X0.075000X-0.662500X0.075000X-0.662500X-0.075000X0.662500X-0.075000X0*%
%ADD33RoundRect,0.075000X0.075000X0.662500X-0.075000X0.662500X-0.075000X-0.662500X0.075000X-0.662500X0*%
%ADD34C,1.500000*%
%ADD35R,1.400000X2.500000*%
%ADD36RoundRect,0.075000X0.200000X-0.075000X0.200000X0.075000X-0.200000X0.075000X-0.200000X-0.075000X0*%
%ADD37RoundRect,0.237500X-0.287500X-0.237500X0.287500X-0.237500X0.287500X0.237500X-0.287500X0.237500X0*%
%ADD38RoundRect,0.237500X-0.335256X-0.080681X0.097756X-0.330681X0.335256X0.080681X-0.097756X0.330681X0*%
%ADD39R,1.700000X1.700000*%
%ADD40O,1.700000X1.700000*%
%ADD41RoundRect,0.237500X0.237500X-0.250000X0.237500X0.250000X-0.237500X0.250000X-0.237500X-0.250000X0*%
%ADD42RoundRect,0.250000X0.337500X0.475000X-0.337500X0.475000X-0.337500X-0.475000X0.337500X-0.475000X0*%
%ADD43RoundRect,0.250000X-1.450000X0.400000X-1.450000X-0.400000X1.450000X-0.400000X1.450000X0.400000X0*%
%ADD44R,1.800000X2.100000*%
%ADD45RoundRect,0.237500X-0.302951X-0.164703X0.180012X-0.294112X0.302951X0.164703X-0.180012X0.294112X0*%
%ADD46C,0.900000*%
%ADD47R,1.200000X1.200000*%
%ADD48FreePoly0,90.000000*%
%ADD49FreePoly1,90.000000*%
%ADD50RoundRect,0.237500X0.367732X0.061931X-0.130232X0.349431X-0.367732X-0.061931X0.130232X-0.349431X0*%
%ADD51RoundRect,0.200000X-0.200000X0.750000X-0.200000X-0.750000X0.200000X-0.750000X0.200000X0.750000X0*%
G04 APERTURE END LIST*
D10*
%TO.C,D17*%
X147790500Y-144907000D03*
X146040500Y-144907000D03*
%TD*%
D11*
%TO.C,R8*%
X166825301Y-68580000D03*
X165000299Y-68580000D03*
%TD*%
D10*
%TO.C,D30*%
X179578000Y-86360000D03*
X177828000Y-86360000D03*
%TD*%
D12*
%TO.C,D18*%
X143383000Y-82305000D03*
X143383000Y-80255000D03*
%TD*%
%TO.C,D7*%
X107823000Y-124469000D03*
X107823000Y-122419000D03*
%TD*%
D10*
%TO.C,D16*%
X140283500Y-120904000D03*
X138533500Y-120904000D03*
%TD*%
D13*
%TO.C,SW17*%
X176911000Y-115951000D03*
D14*
X173101000Y-113411000D03*
X179451001Y-110871000D03*
%TD*%
D10*
%TO.C,D32*%
X179460500Y-125857000D03*
X177710500Y-125857000D03*
%TD*%
D11*
%TO.C,R28*%
X168000000Y-77500000D03*
X166175000Y-77500000D03*
%TD*%
D12*
%TO.C,D27*%
X163195000Y-104657000D03*
X163195000Y-102607000D03*
%TD*%
D15*
%TO.C,U6*%
X196444000Y-71661000D03*
X195494000Y-71661000D03*
X194544000Y-71661000D03*
X194544000Y-74361000D03*
X196444000Y-74361000D03*
%TD*%
D12*
%TO.C,D19*%
X143510000Y-101981000D03*
X143510000Y-99931000D03*
%TD*%
D13*
%TO.C,SW5*%
X117983000Y-93662500D03*
D14*
X114173000Y-91122500D03*
X120523001Y-88582500D03*
%TD*%
D13*
%TO.C,SW2*%
X98298000Y-98742500D03*
D14*
X94488000Y-96202500D03*
X100838001Y-93662500D03*
%TD*%
D10*
%TO.C,D4*%
X101017000Y-88519000D03*
X99267000Y-88519000D03*
%TD*%
D16*
%TO.C,R12*%
X95711000Y-88519000D03*
X97536000Y-88519000D03*
%TD*%
D13*
%TO.C,SW13*%
X157099000Y-113538000D03*
D14*
X153289000Y-110998000D03*
X159639001Y-108458000D03*
%TD*%
D17*
%TO.C,SW19*%
X188750000Y-110750000D03*
X191750000Y-110750000D03*
D18*
X187750000Y-108000000D03*
X190250000Y-108000000D03*
X192750000Y-108000000D03*
X187750000Y-113500000D03*
X190250000Y-113500000D03*
X192750000Y-113500000D03*
%TD*%
D19*
%TO.C,C4*%
X188000000Y-57037500D03*
X188000000Y-54962500D03*
%TD*%
D12*
%TO.C,D11*%
X123952000Y-84836000D03*
X123952000Y-82786000D03*
%TD*%
D20*
%TO.C,USB1*%
X158290000Y-55320001D03*
X164070000Y-55320001D03*
D21*
X157979999Y-54240001D03*
X158780000Y-54240000D03*
D22*
X159430001Y-54240000D03*
X159930000Y-54240000D03*
X160430000Y-54240001D03*
X160930000Y-54240000D03*
X161430000Y-54240001D03*
X161930000Y-54240000D03*
X162430000Y-54240000D03*
X162930000Y-54240000D03*
D21*
X163580000Y-54240000D03*
X164379999Y-54240001D03*
D23*
X156860000Y-54790000D03*
D24*
X156860000Y-59000000D03*
D23*
X165500000Y-54790000D03*
D24*
X165500000Y-59000000D03*
%TD*%
D10*
%TO.C,D3*%
X101144000Y-128016000D03*
X99394000Y-128016000D03*
%TD*%
D19*
%TO.C,C5*%
X180400000Y-57037500D03*
X180400000Y-54962500D03*
%TD*%
D13*
%TO.C,SW10*%
X145034000Y-135128000D03*
D14*
X141224000Y-132588000D03*
X147574001Y-130048000D03*
%TD*%
D16*
%TO.C,R10*%
X95607500Y-108458000D03*
X97432500Y-108458000D03*
%TD*%
%TO.C,R15*%
X115142000Y-122555000D03*
X116967000Y-122555000D03*
%TD*%
D12*
%TO.C,D12*%
X124079000Y-104403000D03*
X124079000Y-102353000D03*
%TD*%
D13*
%TO.C,SW11*%
X157099000Y-74168000D03*
D14*
X153289000Y-71628000D03*
X159639001Y-69088000D03*
%TD*%
D16*
%TO.C,R22*%
X154291000Y-123444000D03*
X156116000Y-123444000D03*
%TD*%
D25*
%TO.C,C13*%
X150600000Y-59762500D03*
X150600000Y-61837500D03*
%TD*%
D19*
%TO.C,C12*%
X182400000Y-57075000D03*
X182400000Y-55000000D03*
%TD*%
D26*
%TO.C,R1*%
X155000000Y-59575000D03*
X155000000Y-61400000D03*
%TD*%
D13*
%TO.C,SW14*%
X166878000Y-137541000D03*
D14*
X163855222Y-134101448D03*
X170646251Y-133291497D03*
%TD*%
D26*
%TO.C,R5*%
X197250000Y-108619599D03*
X197250000Y-110444599D03*
%TD*%
D27*
%TO.C,D25*%
X167005000Y-147828000D03*
X165314630Y-147375066D03*
%TD*%
D16*
%TO.C,R25*%
X174352000Y-106045000D03*
X176177000Y-106045000D03*
%TD*%
%TO.C,R7*%
X181587500Y-67999999D03*
X183412500Y-68000001D03*
%TD*%
D13*
%TO.C,SW16*%
X176911000Y-96202500D03*
D14*
X173101000Y-93662500D03*
X179451001Y-91122500D03*
%TD*%
D28*
%TO.C,U1*%
X127050001Y-58700000D03*
X127050000Y-60999999D03*
D29*
X133350000Y-61000001D03*
D28*
X127050001Y-63300000D03*
%TD*%
D19*
%TO.C,C3*%
X191000000Y-62637500D03*
X191000000Y-60562500D03*
%TD*%
D25*
%TO.C,C1*%
X146000000Y-65175000D03*
X146000000Y-67250000D03*
%TD*%
D30*
%TO.C,D1*%
X137000000Y-56675001D03*
X137000000Y-54924999D03*
%TD*%
D10*
%TO.C,D15*%
X140180000Y-100965000D03*
X138430000Y-100965000D03*
%TD*%
D12*
%TO.C,D13*%
X127508000Y-122183000D03*
X127508000Y-120133000D03*
%TD*%
D13*
%TO.C,SW18*%
X191643000Y-140081000D03*
D14*
X189613443Y-135976295D03*
X196382705Y-136951591D03*
%TD*%
D31*
%TO.C,C9*%
X186512500Y-65200000D03*
X188587500Y-65200000D03*
%TD*%
D25*
%TO.C,C8*%
X170688000Y-66548000D03*
X170688000Y-68623000D03*
%TD*%
D32*
%TO.C,U4*%
X179412501Y-64499999D03*
X179412500Y-64000000D03*
X179412500Y-63500000D03*
X179412500Y-63000001D03*
X179412501Y-62499999D03*
X179412500Y-62000000D03*
X179412500Y-61500000D03*
X179412500Y-61000000D03*
X179412499Y-60500000D03*
X179412499Y-59999999D03*
X179412500Y-59500000D03*
X179412499Y-59000000D03*
D33*
X177999999Y-57587499D03*
X177500000Y-57587500D03*
X177000000Y-57587500D03*
X176500001Y-57587500D03*
X175999999Y-57587499D03*
X175500000Y-57587500D03*
X175000000Y-57587500D03*
X174500000Y-57587500D03*
X174000000Y-57587501D03*
X173499999Y-57587501D03*
X173000000Y-57587500D03*
X172500000Y-57587501D03*
D32*
X171087499Y-59000001D03*
X171087500Y-59500000D03*
X171087500Y-60000000D03*
X171087500Y-60499999D03*
X171087499Y-61000001D03*
X171087500Y-61500000D03*
X171087500Y-62000000D03*
X171087500Y-62500000D03*
X171087501Y-63000000D03*
X171087501Y-63500001D03*
X171087500Y-64000000D03*
X171087501Y-64500000D03*
D33*
X172500001Y-65912501D03*
X173000000Y-65912500D03*
X173500000Y-65912500D03*
X173999999Y-65912500D03*
X174500001Y-65912501D03*
X175000000Y-65912500D03*
X175500000Y-65912500D03*
X176000000Y-65912500D03*
X176500000Y-65912499D03*
X177000001Y-65912499D03*
X177500000Y-65912500D03*
X178000000Y-65912499D03*
%TD*%
D31*
%TO.C,C6*%
X181850000Y-64700000D03*
X183925000Y-64700000D03*
%TD*%
D34*
%TO.C,Audio1*%
X186800000Y-82804000D03*
X193500000Y-82804000D03*
D35*
X186800000Y-87054000D03*
X195000000Y-78554000D03*
X192000000Y-78554001D03*
X188100000Y-78554000D03*
X195000000Y-87054000D03*
%TD*%
D10*
%TO.C,D2*%
X100974500Y-108458000D03*
X99224500Y-108458000D03*
%TD*%
D12*
%TO.C,D36*%
X182753000Y-127145000D03*
X182753000Y-125095000D03*
%TD*%
D36*
%TO.C,U2*%
X154105800Y-56067200D03*
X154105800Y-55567200D03*
X154105800Y-55067200D03*
X154105800Y-54567200D03*
X154105800Y-54067200D03*
X153335800Y-54067200D03*
X153335800Y-54567200D03*
X153335800Y-55067200D03*
X153335800Y-55567200D03*
X153335800Y-56067200D03*
%TD*%
D12*
%TO.C,D35*%
X183134000Y-106943000D03*
X183134000Y-104893000D03*
%TD*%
D26*
%TO.C,R2*%
X152800000Y-59575000D03*
X152800000Y-61400000D03*
%TD*%
D10*
%TO.C,D9*%
X120645500Y-103505000D03*
X118895500Y-103505000D03*
%TD*%
%TO.C,D23*%
X159738000Y-103759000D03*
X157988000Y-103759000D03*
%TD*%
D13*
%TO.C,SW4*%
X117983000Y-74295000D03*
D14*
X114173000Y-71755000D03*
X120523001Y-69215000D03*
%TD*%
D13*
%TO.C,SW6*%
X117983000Y-113030000D03*
D14*
X114173000Y-110490000D03*
X120523001Y-107950000D03*
%TD*%
D37*
%TO.C,L1*%
X139625000Y-54750000D03*
X141375000Y-54750000D03*
%TD*%
D16*
%TO.C,R17*%
X134747000Y-100965000D03*
X136572000Y-100965000D03*
%TD*%
%TO.C,R24*%
X174220500Y-86360000D03*
X176045500Y-86360000D03*
%TD*%
D38*
%TO.C,R27*%
X184093504Y-147550500D03*
X185674000Y-148463000D03*
%TD*%
D39*
%TO.C,J1*%
X196195000Y-104913800D03*
D40*
X193655000Y-104913799D03*
X191115001Y-104913800D03*
X188575000Y-104913800D03*
%TD*%
D12*
%TO.C,D6*%
X104267000Y-109601000D03*
X104267000Y-107551000D03*
%TD*%
%TO.C,D5*%
X104394000Y-89417000D03*
X104394000Y-87367000D03*
%TD*%
D41*
%TO.C,R9*%
X192385000Y-73105000D03*
X192385000Y-71280000D03*
%TD*%
D12*
%TO.C,D37*%
X197000000Y-151000000D03*
X197000000Y-148950000D03*
%TD*%
D15*
%TO.C,U5*%
X188844000Y-71628000D03*
X187894000Y-71628000D03*
X186944000Y-71628000D03*
X186944000Y-74328000D03*
X188844000Y-74328000D03*
%TD*%
D16*
%TO.C,R21*%
X154385000Y-103759000D03*
X156210000Y-103759000D03*
%TD*%
D13*
%TO.C,SW15*%
X176911000Y-76454000D03*
D14*
X173101000Y-73914000D03*
X179451001Y-71374000D03*
%TD*%
D16*
%TO.C,R26*%
X173839500Y-125857000D03*
X175664500Y-125857000D03*
%TD*%
D13*
%TO.C,SW1*%
X98298000Y-78994000D03*
D14*
X94488000Y-76454000D03*
X100838001Y-73914000D03*
%TD*%
D16*
%TO.C,R18*%
X134700000Y-120904000D03*
X136525000Y-120904000D03*
%TD*%
D12*
%TO.C,D34*%
X182880000Y-87267000D03*
X182880000Y-85217000D03*
%TD*%
D31*
%TO.C,C10*%
X186512500Y-67250000D03*
X188587500Y-67250000D03*
%TD*%
D16*
%TO.C,R16*%
X134620000Y-81280000D03*
X136445000Y-81280000D03*
%TD*%
D42*
%TO.C,C2*%
X133637500Y-56000000D03*
X131562500Y-56000000D03*
%TD*%
D16*
%TO.C,R20*%
X154432000Y-84074000D03*
X156257000Y-84074000D03*
%TD*%
%TO.C,R13*%
X115316000Y-83947000D03*
X117141000Y-83947000D03*
%TD*%
D13*
%TO.C,SW7*%
X137414000Y-71374000D03*
D14*
X133604000Y-68834000D03*
X139954001Y-66294000D03*
%TD*%
D16*
%TO.C,R19*%
X142216500Y-144907000D03*
X144041500Y-144907000D03*
%TD*%
D43*
%TO.C,F1*%
X140800000Y-57175000D03*
X140800000Y-61625000D03*
%TD*%
D12*
%TO.C,D28*%
X163322000Y-124469000D03*
X163322000Y-122419000D03*
%TD*%
D16*
%TO.C,R31*%
X163887500Y-64000000D03*
X165712500Y-64000000D03*
%TD*%
%TO.C,R14*%
X115292500Y-103505000D03*
X117117500Y-103505000D03*
%TD*%
D10*
%TO.C,D10*%
X120575000Y-122555000D03*
X118825000Y-122555000D03*
%TD*%
D26*
%TO.C,R3*%
X151180800Y-55221500D03*
X151180800Y-57046500D03*
%TD*%
D44*
%TO.C,Y1*%
X186449999Y-59750000D03*
X186449998Y-62650002D03*
X188749999Y-62650002D03*
X188750000Y-59750000D03*
%TD*%
D10*
%TO.C,D24*%
X159738000Y-123444000D03*
X157988000Y-123444000D03*
%TD*%
D45*
%TO.C,R23*%
X161559186Y-146339656D03*
X163322000Y-146812000D03*
%TD*%
D10*
%TO.C,D8*%
X120669000Y-83947000D03*
X118919000Y-83947000D03*
%TD*%
%TO.C,D31*%
X179705000Y-106045000D03*
X177955000Y-106045000D03*
%TD*%
D13*
%TO.C,SW12*%
X157099000Y-93853000D03*
D14*
X153289000Y-91313000D03*
X159639001Y-88773000D03*
%TD*%
D13*
%TO.C,SW9*%
X137414000Y-111125000D03*
D14*
X133604000Y-108585000D03*
X139954001Y-106045000D03*
%TD*%
D13*
%TO.C,SW8*%
X137414000Y-91249500D03*
D14*
X133604000Y-88709500D03*
X139954001Y-86169500D03*
%TD*%
D19*
%TO.C,C11*%
X186000000Y-57037500D03*
X186000000Y-54962500D03*
%TD*%
D10*
%TO.C,D14*%
X140053000Y-81280000D03*
X138303000Y-81280000D03*
%TD*%
D11*
%TO.C,R6*%
X183412500Y-66500002D03*
X181587500Y-66500000D03*
%TD*%
D41*
%TO.C,R4*%
X195345000Y-110444599D03*
X195345000Y-108619599D03*
%TD*%
D42*
%TO.C,C7*%
X170180000Y-55372000D03*
X168105000Y-55372000D03*
%TD*%
D46*
%TO.C,U3*%
X146750000Y-59250000D03*
X146750000Y-56950000D03*
D47*
X144750000Y-60190000D03*
X144750000Y-56000000D03*
D48*
X147310000Y-54640000D03*
D17*
X147060000Y-54320000D03*
X147060000Y-61820000D03*
D49*
X147310000Y-61540000D03*
%TD*%
D50*
%TO.C,D33*%
X188713544Y-150227000D03*
X187198000Y-149352000D03*
%TD*%
D16*
%TO.C,R11*%
X95711000Y-128016000D03*
X97536000Y-128016000D03*
%TD*%
D12*
%TO.C,D26*%
X163068000Y-84836000D03*
X163068000Y-82786000D03*
%TD*%
D10*
%TO.C,D22*%
X159785000Y-84074000D03*
X158035000Y-84074000D03*
%TD*%
D12*
%TO.C,D29*%
X174498000Y-148472000D03*
X174498000Y-146422000D03*
%TD*%
%TO.C,D21*%
X154051000Y-145043000D03*
X154051000Y-142993000D03*
%TD*%
D51*
%TO.C,Q1*%
X167950000Y-72000000D03*
X166050000Y-72000000D03*
X167000000Y-75000000D03*
%TD*%
D13*
%TO.C,SW3*%
X98298000Y-118491000D03*
D14*
X94488000Y-115951000D03*
X100838001Y-113411000D03*
%TD*%
D12*
%TO.C,D20*%
X143637000Y-121802000D03*
X143637000Y-119752000D03*
%TD*%
M02*
