M48
; DRILL file {KiCad 8.0.8} date 2025-02-15T19:24:59+0100
; FORMAT={-:-/ absolute / inch / decimal}
; #@! TF.CreationDate,2025-02-15T19:24:59+01:00
; #@! TF.GenerationSoftware,Kicad,Pcbnew,8.0.8
; #@! TF.FileFunction,Plated,1,2,PTH
FMAT,2
INCH
; #@! TA.AperFunction,Plated,PTH,ViaDrill
T1C0.0118
; #@! TA.AperFunction,Plated,PTH,ComponentDrill
T2C0.0236
; #@! TA.AperFunction,Plated,PTH,ComponentDrill
T3C0.0276
; #@! TA.AperFunction,Plated,PTH,ComponentDrill
T4C0.0315
; #@! TA.AperFunction,Plated,PTH,ComponentDrill
T5C0.0354
; #@! TA.AperFunction,Plated,PTH,ComponentDrill
T6C0.0394
; #@! TA.AperFunction,Plated,PTH,ComponentDrill
T7C0.0591
; #@! TA.AperFunction,Plated,PTH,ComponentDrill
T8C0.0630
%
G90
G05
T1
X3.8189Y-3.3465
X4.16Y-3.5
X4.16Y-4.3
X4.32Y-4.9
X4.5276Y-3.248
X4.5669Y-3.2087
X4.8Y-3.38
X4.8Y-4.14
X4.94Y-3.32
X4.94Y-4.1
X4.98Y-4.86
X5.08Y-4.86
X5.0866Y-2.5827
X5.2953Y-3.1496
X5.4488Y-2.4331
X5.5039Y-2.0945
X5.54Y-3.28
X5.58Y-4.06
X5.58Y-4.86
X5.6535Y-2.2047
X5.7Y-4.84
X5.72Y-3.24
X5.72Y-4.02
X5.8661Y-3.0236
X5.89Y-2.232
X5.9Y-2.15
X5.9685Y-2.3858
X6.0787Y-2.2913
X6.08Y-5.78
X6.0827Y-3.248
X6.0827Y-5.0197
X6.102Y-2.16
X6.122Y-4.9636
X6.126Y-2.2283
X6.126Y-2.2598
X6.1293Y-2.1956
X6.2441Y-2.2648
X6.2756Y-2.0787
X6.2983Y-2.196
X6.2992Y-2.4213
X6.3228Y-2.2205
X6.34Y-3.38
X6.36Y-4.16
X6.36Y-4.94
X6.378Y-2.1811
X6.4016Y-2.0787
X6.4264Y-2.2319
X6.4724Y-3.0472
X6.48Y-4.96
X6.49Y-2.0787
X6.4961Y-2.9724
X6.5Y-3.36
X6.5Y-4.14
X6.5724Y-2.6216
X6.6Y-4.96
X6.6142Y-2.3425
X6.6339Y-3.1102
X6.64Y-2.4
X6.64Y-2.4354
X6.64Y-4.14
X6.656Y-2.634
X6.658Y-2.678
X6.66Y-3.42
X6.6636Y-2.76
X6.668Y-2.56
X6.7Y-2.78
X6.7913Y-5.6102
X6.8Y-5.86
X6.842Y-2.206
X6.8504Y-3.1693
X6.8976Y-2.7087
X6.9291Y-2.5
X6.9291Y-2.685
X6.9449Y-2.6535
X6.9488Y-2.4409
X6.96Y-5.88
X6.9685Y-2.4016
X6.9882Y-5.2362
X6.9895Y-5.1561
X6.995Y-2.5265
X6.998Y-2.652
X7.0157Y-2.4703
X7.0472Y-2.1024
X7.0472Y-2.6378
X7.0886Y-2.6722
X7.12Y-4.24
X7.12Y-5.02
X7.122Y-2.392
X7.1339Y-2.315
X7.14Y-3.48
X7.1811Y-2.4882
X7.189Y-2.3071
X7.2205Y-2.4094
X7.246Y-2.494
X7.2564Y-2.8
X7.2795Y-2.6634
X7.28Y-2.452
X7.28Y-2.76
X7.2835Y-2.622
X7.304Y-2.7323
X7.3164Y-4.24
X7.3465Y-2.7323
X7.36Y-3.0
X7.3819Y-4.1929
X7.4724Y-2.9685
X7.498Y-2.266
X7.6Y-4.2
X7.68Y-5.96
X7.6899Y-4.3907
X7.748Y-3.0709
X7.76Y-2.44
X7.78Y-3.0
X7.782Y-2.802
X7.7953Y-2.9291
X7.8Y-2.46
X7.8031Y-3.4488
X7.808Y-4.2726
X7.8364Y-2.6836
X7.8364Y-4.22
X7.8681Y-2.5906
X7.874Y-4.3071
X7.8819Y-2.622
X7.8898Y-2.7165
X7.8898Y-2.9291
X7.8898Y-2.9685
X7.8898Y-3.4409
X7.8976Y-3.063
X7.8976Y-4.1732
X7.8976Y-4.3858
T3
X6.2319Y-2.178
X6.4594Y-2.178
T4
X5.7898Y-2.1386
X5.7898Y-2.4339
T5
X5.7776Y-2.2421
X5.7776Y-2.3327
T6
X7.4242Y-4.1305
X7.4311Y-4.3602
X7.5242Y-4.1305
X7.5492Y-4.3602
X7.6242Y-4.1305
X7.7242Y-4.1305
T7
X7.3543Y-3.26
X7.6181Y-3.26
T8
X3.72Y-3.01
X3.72Y-3.7875
X3.72Y-4.565
X3.97Y-2.91
X3.97Y-3.6875
X3.97Y-4.465
X4.495Y-2.825
X4.495Y-3.5875
X4.495Y-4.35
X4.745Y-2.725
X4.745Y-3.4875
X4.745Y-4.25
X5.26Y-2.71
X5.26Y-3.4925
X5.26Y-4.275
X5.51Y-2.61
X5.51Y-3.3925
X5.51Y-4.175
X5.56Y-5.22
X5.81Y-5.12
X6.035Y-2.82
X6.035Y-3.595
X6.035Y-4.37
X6.285Y-2.72
X6.285Y-3.495
X6.285Y-4.27
X6.451Y-5.2796
X6.7184Y-5.2477
X6.815Y-2.91
X6.815Y-3.6875
X6.815Y-4.465
X7.065Y-2.81
X7.065Y-3.5875
X7.065Y-4.365
X7.4651Y-5.3534
X7.7316Y-5.3918
T2
G00X6.1756Y-2.1394
M15
G01X6.1756Y-2.1748
M16
G05
G00X6.1756Y-2.311
M15
G01X6.1756Y-2.3346
M16
G05
G00X6.5157Y-2.1394
M15
G01X6.5157Y-2.1748
M16
G05
G00X6.5157Y-2.311
M15
G01X6.5157Y-2.3346
M16
G05
M30
