%TF.GenerationSoftware,KiCad,Pcbnew,8.0.8*%
%TF.CreationDate,2025-02-15T14:10:55+01:00*%
%TF.ProjectId,sichergo-left,73696368-6572-4676-9f2d-6c6566742e6b,rev?*%
%TF.SameCoordinates,Original*%
%TF.FileFunction,Paste,Top*%
%TF.FilePolarity,Positive*%
%FSLAX46Y46*%
G04 Gerber Fmt 4.6, Leading zero omitted, Abs format (unit mm)*
G04 Created by KiCad (PCBNEW 8.0.8) date 2025-02-15 14:10:55*
%MOMM*%
%LPD*%
G01*
G04 APERTURE LIST*
G04 Aperture macros list*
%AMRoundRect*
0 Rectangle with rounded corners*
0 $1 Rounding radius*
0 $2 $3 $4 $5 $6 $7 $8 $9 X,Y pos of 4 corners*
0 Add a 4 corners polygon primitive as box body*
4,1,4,$2,$3,$4,$5,$6,$7,$8,$9,$2,$3,0*
0 Add four circle primitives for the rounded corners*
1,1,$1+$1,$2,$3*
1,1,$1+$1,$4,$5*
1,1,$1+$1,$6,$7*
1,1,$1+$1,$8,$9*
0 Add four rect primitives between the rounded corners*
20,1,$1+$1,$2,$3,$4,$5,0*
20,1,$1+$1,$4,$5,$6,$7,0*
20,1,$1+$1,$6,$7,$8,$9,0*
20,1,$1+$1,$8,$9,$2,$3,0*%
%AMFreePoly0*
4,1,17,0.785355,0.785355,0.800000,0.750000,0.800000,-0.750000,0.785355,-0.785355,0.750000,-0.800000,-0.750000,-0.800000,-0.785355,-0.785355,-0.800000,-0.750000,-0.800000,-0.050000,-0.785355,-0.014645,-0.750000,0.000000,-0.100000,0.000000,-0.100000,0.750000,-0.085355,0.785355,-0.050000,0.800000,0.750000,0.800000,0.785355,0.785355,0.785355,0.785355,$1*%
%AMFreePoly1*
4,1,17,0.085355,0.785355,0.100000,0.750000,0.100000,0.000000,0.750000,0.000000,0.785355,-0.014645,0.800000,-0.050000,0.800000,-0.750000,0.785355,-0.785355,0.750000,-0.800000,-0.750000,-0.800000,-0.785355,-0.785355,-0.800000,-0.750000,-0.800000,0.750000,-0.785355,0.785355,-0.750000,0.800000,0.050000,0.800000,0.085355,0.785355,0.085355,0.785355,$1*%
G04 Aperture macros list end*
%ADD10RoundRect,0.250000X-0.475000X0.337500X-0.475000X-0.337500X0.475000X-0.337500X0.475000X0.337500X0*%
%ADD11RoundRect,0.237500X0.287500X0.237500X-0.287500X0.237500X-0.287500X-0.237500X0.287500X-0.237500X0*%
%ADD12RoundRect,0.237500X0.250000X0.237500X-0.250000X0.237500X-0.250000X-0.237500X0.250000X-0.237500X0*%
%ADD13RoundRect,0.250000X0.450000X-0.325000X0.450000X0.325000X-0.450000X0.325000X-0.450000X-0.325000X0*%
%ADD14RoundRect,0.162500X-0.162500X0.617500X-0.162500X-0.617500X0.162500X-0.617500X0.162500X0.617500X0*%
%ADD15RoundRect,0.237500X-0.250000X-0.237500X0.250000X-0.237500X0.250000X0.237500X-0.250000X0.237500X0*%
%ADD16R,1.000000X1.500000*%
%ADD17R,0.550000X1.100000*%
%ADD18R,0.300000X1.100000*%
%ADD19RoundRect,0.250000X-0.337500X-0.475000X0.337500X-0.475000X0.337500X0.475000X-0.337500X0.475000X0*%
%ADD20RoundRect,0.237500X-0.237500X0.250000X-0.237500X-0.250000X0.237500X-0.250000X0.237500X0.250000X0*%
%ADD21RoundRect,0.237500X0.339173X0.154997X-0.216234X0.303818X-0.339173X-0.154997X0.216234X-0.303818X0*%
%ADD22RoundRect,0.375000X-0.625000X-0.375000X0.625000X-0.375000X0.625000X0.375000X-0.625000X0.375000X0*%
%ADD23RoundRect,0.500000X-0.500000X-1.400000X0.500000X-1.400000X0.500000X1.400000X-0.500000X1.400000X0*%
%ADD24RoundRect,0.237500X0.237500X-0.287500X0.237500X0.287500X-0.237500X0.287500X-0.237500X-0.287500X0*%
%ADD25RoundRect,0.075000X0.662500X0.075000X-0.662500X0.075000X-0.662500X-0.075000X0.662500X-0.075000X0*%
%ADD26RoundRect,0.075000X0.075000X0.662500X-0.075000X0.662500X-0.075000X-0.662500X0.075000X-0.662500X0*%
%ADD27R,1.400000X2.500000*%
%ADD28RoundRect,0.075000X0.200000X-0.075000X0.200000X0.075000X-0.200000X0.075000X-0.200000X-0.075000X0*%
%ADD29RoundRect,0.237500X-0.287500X-0.237500X0.287500X-0.237500X0.287500X0.237500X-0.287500X0.237500X0*%
%ADD30RoundRect,0.237500X-0.335256X-0.080681X0.097756X-0.330681X0.335256X0.080681X-0.097756X0.330681X0*%
%ADD31RoundRect,0.237500X0.237500X-0.250000X0.237500X0.250000X-0.237500X0.250000X-0.237500X-0.250000X0*%
%ADD32RoundRect,0.250000X-1.450000X0.400000X-1.450000X-0.400000X1.450000X-0.400000X1.450000X0.400000X0*%
%ADD33R,1.800000X2.100000*%
%ADD34RoundRect,0.237500X-0.302951X-0.164703X0.180012X-0.294112X0.302951X0.164703X-0.180012X0.294112X0*%
%ADD35RoundRect,0.250000X0.337500X0.475000X-0.337500X0.475000X-0.337500X-0.475000X0.337500X-0.475000X0*%
%ADD36R,1.200000X1.200000*%
%ADD37FreePoly0,90.000000*%
%ADD38FreePoly1,90.000000*%
%ADD39RoundRect,0.237500X0.367732X0.061931X-0.130232X0.349431X-0.367732X-0.061931X0.130232X-0.349431X0*%
%ADD40RoundRect,0.200000X-0.200000X0.750000X-0.200000X-0.750000X0.200000X-0.750000X0.200000X0.750000X0*%
G04 APERTURE END LIST*
D10*
%TO.C,C13*%
X152400000Y-58906500D03*
X152400000Y-60981500D03*
%TD*%
D11*
%TO.C,D17*%
X147790500Y-144907000D03*
X146040500Y-144907000D03*
%TD*%
D12*
%TO.C,R8*%
X168000000Y-68500000D03*
X166174998Y-68500000D03*
%TD*%
D11*
%TO.C,D30*%
X179578000Y-86360000D03*
X177828000Y-86360000D03*
%TD*%
D13*
%TO.C,D18*%
X143383000Y-82305000D03*
X143383000Y-80255000D03*
%TD*%
%TO.C,D7*%
X107823000Y-124469000D03*
X107823000Y-122419000D03*
%TD*%
D11*
%TO.C,D16*%
X140283500Y-120904000D03*
X138533500Y-120904000D03*
%TD*%
%TO.C,D32*%
X179460500Y-125857000D03*
X177710500Y-125857000D03*
%TD*%
D12*
%TO.C,R28*%
X168000000Y-77500000D03*
X166175000Y-77500000D03*
%TD*%
D13*
%TO.C,D27*%
X163195000Y-104657000D03*
X163195000Y-102607000D03*
%TD*%
D14*
%TO.C,U6*%
X197345000Y-90050900D03*
X196395000Y-90050900D03*
X195445000Y-90050900D03*
X195445000Y-92750900D03*
X197345000Y-92750900D03*
%TD*%
D13*
%TO.C,D19*%
X143510000Y-101981000D03*
X143510000Y-99931000D03*
%TD*%
D11*
%TO.C,D4*%
X101017000Y-88519000D03*
X99267000Y-88519000D03*
%TD*%
D15*
%TO.C,R12*%
X95711000Y-88519000D03*
X97536000Y-88519000D03*
%TD*%
D16*
%TO.C,SW19*%
X187750000Y-108000000D03*
X190250000Y-108000000D03*
X192750000Y-108000000D03*
X187750000Y-113500000D03*
X190250000Y-113500000D03*
X192750000Y-113500000D03*
%TD*%
D10*
%TO.C,C4*%
X182727600Y-129721700D03*
X182727600Y-131796700D03*
%TD*%
D13*
%TO.C,D11*%
X123952000Y-84836000D03*
X123952000Y-82786000D03*
%TD*%
D17*
%TO.C,USB1*%
X157979999Y-54240001D03*
X158780000Y-54240000D03*
D18*
X159430001Y-54240000D03*
X159930000Y-54240000D03*
X160430000Y-54240001D03*
X160930000Y-54240000D03*
X161430000Y-54240001D03*
X161930000Y-54240000D03*
X162430000Y-54240000D03*
X162930000Y-54240000D03*
D17*
X163580000Y-54240000D03*
X164379999Y-54240001D03*
%TD*%
D11*
%TO.C,D3*%
X101144000Y-128016000D03*
X99394000Y-128016000D03*
%TD*%
D19*
%TO.C,C5*%
X186175000Y-57250000D03*
X188250000Y-57250000D03*
%TD*%
D15*
%TO.C,R10*%
X95607500Y-108458000D03*
X97432500Y-108458000D03*
%TD*%
%TO.C,R15*%
X115142000Y-122555000D03*
X116967000Y-122555000D03*
%TD*%
D13*
%TO.C,D12*%
X124079000Y-104403000D03*
X124079000Y-102353000D03*
%TD*%
D15*
%TO.C,R22*%
X154291000Y-123444000D03*
X156116000Y-123444000D03*
%TD*%
D19*
%TO.C,C12*%
X186175000Y-65197680D03*
X188250000Y-65197680D03*
%TD*%
D20*
%TO.C,R1*%
X129032000Y-64695700D03*
X129032000Y-66520700D03*
%TD*%
%TO.C,R5*%
X197250000Y-108619599D03*
X197250000Y-110444599D03*
%TD*%
D21*
%TO.C,D25*%
X167005000Y-147828000D03*
X165314630Y-147375066D03*
%TD*%
D15*
%TO.C,R25*%
X174352000Y-106045000D03*
X176177000Y-106045000D03*
%TD*%
%TO.C,R7*%
X182000000Y-68024000D03*
X183825000Y-68024002D03*
%TD*%
D22*
%TO.C,U1*%
X130100001Y-55950000D03*
X130100000Y-58249999D03*
D23*
X136400000Y-58250001D03*
D22*
X130100001Y-60550000D03*
%TD*%
D10*
%TO.C,C3*%
X180670200Y-129721700D03*
X180670200Y-131796700D03*
%TD*%
%TO.C,C1*%
X146000000Y-65175000D03*
X146000000Y-67250000D03*
%TD*%
D24*
%TO.C,D1*%
X124250000Y-64000000D03*
X124250000Y-62249998D03*
%TD*%
D11*
%TO.C,D15*%
X140180000Y-100965000D03*
X138430000Y-100965000D03*
%TD*%
D13*
%TO.C,D13*%
X127508000Y-122183000D03*
X127508000Y-120133000D03*
%TD*%
D19*
%TO.C,C9*%
X193000000Y-64802320D03*
X195075000Y-64802320D03*
%TD*%
%TO.C,C8*%
X170925000Y-68250000D03*
X173000000Y-68250000D03*
%TD*%
D25*
%TO.C,U4*%
X179412501Y-64499999D03*
X179412500Y-64000000D03*
X179412500Y-63500000D03*
X179412500Y-63000001D03*
X179412501Y-62499999D03*
X179412500Y-62000000D03*
X179412500Y-61500000D03*
X179412500Y-61000000D03*
X179412499Y-60500000D03*
X179412499Y-59999999D03*
X179412500Y-59500000D03*
X179412499Y-59000000D03*
D26*
X177999999Y-57587499D03*
X177500000Y-57587500D03*
X177000000Y-57587500D03*
X176500001Y-57587500D03*
X175999999Y-57587499D03*
X175500000Y-57587500D03*
X175000000Y-57587500D03*
X174500000Y-57587500D03*
X174000000Y-57587501D03*
X173499999Y-57587501D03*
X173000000Y-57587500D03*
X172500000Y-57587501D03*
D25*
X171087499Y-59000001D03*
X171087500Y-59500000D03*
X171087500Y-60000000D03*
X171087500Y-60499999D03*
X171087499Y-61000001D03*
X171087500Y-61500000D03*
X171087500Y-62000000D03*
X171087500Y-62500000D03*
X171087501Y-63000000D03*
X171087501Y-63500001D03*
X171087500Y-64000000D03*
X171087501Y-64500000D03*
D26*
X172500001Y-65912501D03*
X173000000Y-65912500D03*
X173500000Y-65912500D03*
X173999999Y-65912500D03*
X174500001Y-65912501D03*
X175000000Y-65912500D03*
X175500000Y-65912500D03*
X176000000Y-65912500D03*
X176500000Y-65912499D03*
X177000001Y-65912499D03*
X177500000Y-65912500D03*
X178000000Y-65912499D03*
%TD*%
D19*
%TO.C,C6*%
X193000000Y-62750000D03*
X195075000Y-62750000D03*
%TD*%
D27*
%TO.C,Audio1*%
X186800000Y-82750000D03*
X195000000Y-74250000D03*
X192000000Y-74250001D03*
X188100000Y-74250000D03*
X195000000Y-82750000D03*
%TD*%
D11*
%TO.C,D2*%
X100974500Y-108458000D03*
X99224500Y-108458000D03*
%TD*%
D13*
%TO.C,D36*%
X182753000Y-127145000D03*
X182753000Y-125095000D03*
%TD*%
D28*
%TO.C,U2*%
X127500000Y-61250000D03*
X127500000Y-60750000D03*
X127500000Y-60250000D03*
X127500000Y-59750000D03*
X127500000Y-59250000D03*
X126730000Y-59250000D03*
X126730000Y-59750000D03*
X126730000Y-60250000D03*
X126730000Y-60750000D03*
X126730000Y-61250000D03*
%TD*%
D13*
%TO.C,D35*%
X183134000Y-106943000D03*
X183134000Y-104893000D03*
%TD*%
D20*
%TO.C,R2*%
X127025400Y-64719200D03*
X127025400Y-66544200D03*
%TD*%
D11*
%TO.C,D9*%
X120645500Y-103505000D03*
X118895500Y-103505000D03*
%TD*%
%TO.C,D23*%
X159738000Y-103759000D03*
X157988000Y-103759000D03*
%TD*%
D29*
%TO.C,L1*%
X139625000Y-54750000D03*
X141375000Y-54750000D03*
%TD*%
D15*
%TO.C,R17*%
X134747000Y-100965000D03*
X136572000Y-100965000D03*
%TD*%
%TO.C,R24*%
X174220500Y-86360000D03*
X176045500Y-86360000D03*
%TD*%
D30*
%TO.C,R27*%
X184093504Y-147550500D03*
X185674000Y-148463000D03*
%TD*%
D13*
%TO.C,D6*%
X104267000Y-109601000D03*
X104267000Y-107551000D03*
%TD*%
%TO.C,D5*%
X104394000Y-89417000D03*
X104394000Y-87367000D03*
%TD*%
D31*
%TO.C,R9*%
X193286000Y-91494900D03*
X193286000Y-89669900D03*
%TD*%
D13*
%TO.C,D37*%
X197000000Y-151000000D03*
X197000000Y-148950000D03*
%TD*%
D14*
%TO.C,U5*%
X189745000Y-90017900D03*
X188795000Y-90017900D03*
X187845000Y-90017900D03*
X187845000Y-92717900D03*
X189745000Y-92717900D03*
%TD*%
D15*
%TO.C,R21*%
X154385000Y-103759000D03*
X156210000Y-103759000D03*
%TD*%
%TO.C,R26*%
X173839500Y-125857000D03*
X175664500Y-125857000D03*
%TD*%
%TO.C,R18*%
X134700000Y-120904000D03*
X136525000Y-120904000D03*
%TD*%
D13*
%TO.C,D34*%
X182880000Y-87267000D03*
X182880000Y-85217000D03*
%TD*%
D19*
%TO.C,C10*%
X193000000Y-66854640D03*
X195075000Y-66854640D03*
%TD*%
D15*
%TO.C,R16*%
X134620000Y-81280000D03*
X136445000Y-81280000D03*
%TD*%
D10*
%TO.C,C2*%
X148108200Y-65175000D03*
X148108200Y-67250000D03*
%TD*%
D15*
%TO.C,R20*%
X154432000Y-84074000D03*
X156257000Y-84074000D03*
%TD*%
%TO.C,R13*%
X115316000Y-83947000D03*
X117141000Y-83947000D03*
%TD*%
%TO.C,R19*%
X142216500Y-144907000D03*
X144041500Y-144907000D03*
%TD*%
D32*
%TO.C,F1*%
X140750000Y-57000000D03*
X140750000Y-61450000D03*
%TD*%
D13*
%TO.C,D28*%
X163322000Y-124469000D03*
X163322000Y-122419000D03*
%TD*%
D15*
%TO.C,R31*%
X163587500Y-65000000D03*
X165412500Y-65000000D03*
%TD*%
%TO.C,R14*%
X115292500Y-103505000D03*
X117117500Y-103505000D03*
%TD*%
D11*
%TO.C,D10*%
X120575000Y-122555000D03*
X118825000Y-122555000D03*
%TD*%
D12*
%TO.C,R3*%
X153139000Y-55573400D03*
X151314000Y-55573400D03*
%TD*%
D33*
%TO.C,Y1*%
X186449999Y-59750000D03*
X186449998Y-62650002D03*
X188749999Y-62650002D03*
X188750000Y-59750000D03*
%TD*%
D11*
%TO.C,D24*%
X159738000Y-123444000D03*
X157988000Y-123444000D03*
%TD*%
D34*
%TO.C,R23*%
X161559186Y-146339656D03*
X163322000Y-146812000D03*
%TD*%
D11*
%TO.C,D8*%
X120669000Y-83947000D03*
X118919000Y-83947000D03*
%TD*%
%TO.C,D31*%
X179705000Y-106045000D03*
X177955000Y-106045000D03*
%TD*%
D19*
%TO.C,C11*%
X186175000Y-67250000D03*
X188250000Y-67250000D03*
%TD*%
D11*
%TO.C,D14*%
X140053000Y-81280000D03*
X138303000Y-81280000D03*
%TD*%
D12*
%TO.C,R6*%
X183825000Y-66500002D03*
X182000000Y-66500000D03*
%TD*%
D31*
%TO.C,R4*%
X195345000Y-110444599D03*
X195345000Y-108619599D03*
%TD*%
D35*
%TO.C,C7*%
X170575000Y-56000000D03*
X168500000Y-56000000D03*
%TD*%
D36*
%TO.C,U3*%
X144750000Y-60190000D03*
X144750000Y-56000000D03*
D37*
X147310000Y-54640000D03*
D38*
X147310000Y-61540000D03*
%TD*%
D39*
%TO.C,D33*%
X188713544Y-150227000D03*
X187198000Y-149352000D03*
%TD*%
D15*
%TO.C,R11*%
X95711000Y-128016000D03*
X97536000Y-128016000D03*
%TD*%
D13*
%TO.C,D26*%
X163068000Y-84836000D03*
X163068000Y-82786000D03*
%TD*%
D11*
%TO.C,D22*%
X159785000Y-84074000D03*
X158035000Y-84074000D03*
%TD*%
D13*
%TO.C,D29*%
X174498000Y-148472000D03*
X174498000Y-146422000D03*
%TD*%
%TO.C,D21*%
X154051000Y-145043000D03*
X154051000Y-142993000D03*
%TD*%
D40*
%TO.C,Q1*%
X167950000Y-72000000D03*
X166050000Y-72000000D03*
X167000000Y-75000000D03*
%TD*%
D13*
%TO.C,D20*%
X143637000Y-121802000D03*
X143637000Y-119752000D03*
%TD*%
M02*
