M48
; DRILL file {KiCad 8.0.8} date 2025-02-16T16:04:42+0100
; FORMAT={-:-/ absolute / inch / decimal}
; #@! TF.CreationDate,2025-02-16T16:04:42+01:00
; #@! TF.GenerationSoftware,Kicad,Pcbnew,8.0.8
; #@! TF.FileFunction,Plated,1,2,PTH
FMAT,2
INCH
; #@! TA.AperFunction,Plated,PTH,ViaDrill
T1C0.0079
; #@! TA.AperFunction,Plated,PTH,ComponentDrill
T2C0.0197
; #@! TA.AperFunction,Plated,PTH,ComponentDrill
T3C0.0236
; #@! TA.AperFunction,Plated,PTH,ComponentDrill
T4C0.0276
; #@! TA.AperFunction,Plated,PTH,ComponentDrill
T5C0.0315
; #@! TA.AperFunction,Plated,PTH,ComponentDrill
T6C0.0354
; #@! TA.AperFunction,Plated,PTH,ComponentDrill
T7C0.0394
; #@! TA.AperFunction,Plated,PTH,ComponentDrill
T8C0.0591
; #@! TA.AperFunction,Plated,PTH,ComponentDrill
T9C0.0630
%
G90
G05
T1
X7.5185Y-4.1886
X7.5587Y-4.189
X7.5965Y-4.1701
X7.7469Y-4.1783
X7.7547Y-4.2169
T2
X6.9874Y-5.861
X7.8602Y-4.5707
X7.952Y-4.5707
X8.0437Y-4.5707
X8.8012Y-4.9551
X8.8858Y-4.9559
T4
X7.4343Y-4.2664
X7.6618Y-4.2664
T5
X8.5591Y-4.8094
X8.5591Y-5.1047
T6
X8.5469Y-4.913
X8.5469Y-5.0035
T7
X8.465Y-4.2024
X8.5122Y-4.3705
X8.5122Y-4.4886
X8.565Y-4.2024
X8.665Y-4.2024
X8.765Y-4.2024
T8
X8.961Y-4.4067
X8.961Y-4.6705
T9
X4.4843Y-2.91
X4.4843Y-3.6875
X4.4843Y-4.465
X4.7343Y-2.81
X4.7343Y-3.5875
X4.7343Y-4.365
X5.067Y-2.8549
X5.067Y-3.6324
X5.067Y-4.4099
X5.317Y-2.7549
X5.317Y-3.5324
X5.317Y-4.3099
X5.6496Y-2.7998
X5.6496Y-3.5773
X5.6496Y-4.3548
X5.8661Y-5.1176
X5.8996Y-2.6998
X5.8996Y-3.4773
X5.8996Y-4.2548
X6.1297Y-5.0626
X6.2323Y-2.8549
X6.2323Y-3.6324
X6.2323Y-4.4099
X6.4823Y-2.7549
X6.4823Y-3.5324
X6.4823Y-4.3099
X6.6416Y-5.2544
X6.815Y-2.91
X6.815Y-3.6875
X6.815Y-4.465
X6.9051Y-5.1993
X7.065Y-2.81
X7.065Y-3.5875
X7.065Y-4.365
X7.429Y-5.53
X7.6925Y-5.4749
T3
G00X7.378Y-4.2279
M15
G01X7.378Y-4.2633
M16
G05
G00X7.378Y-4.3995
M15
G01X7.378Y-4.4231
M16
G05
G00X7.7181Y-4.2279
M15
G01X7.7181Y-4.2633
M16
G05
G00X7.7181Y-4.3995
M15
G01X7.7181Y-4.4231
M16
G05
M30
