999
FreeCAD v1.0 2_voidlinux
  0
SECTION
  2
HEADER
  9
$ACADVER
  1
AC1014
  9
$ACADMAINTVER
 70
     9
  9
$DWGCODEPAGE
  3
ANSI_1252
  9
$TEXTSTYLE
  7
STANDARD
  9
$DIMSTYLE
  2
STANDARD
  9
$DIMTXSTY
  7
STANDARD
  9
$CMLSTYLE
  2
STANDARD
  9
$LUNITS
 70
2
  9
$INSUNITS
 70
4
  9
$PEXTMAX
 10
50
 20
50
 30
50
  9
$PEXTMIN
 10
0
 20
0
 30
0
  9
$HANDSEED
  5
FFFF
  0
ENDSEC
  0
SECTION
  2
CLASSES
  0
CLASS
  1
ACDBDICTIONARYWDFLT
  2
AcDbDictionaryWithDefault
  3
ObjectDBX Classes
 90
        0
280
     0
281
     0
  0
CLASS
  1
XRECORD
  2
AcDbXrecord
  3
ObjectDBX Classes
 90
        0
280
     0
281
     0
  0
CLASS
  1
LWPOLYLINE
  2
AcDbPolyline
  3
ObjectDBX Classes
 90
        0
280
     0
281
     1
  0
ENDSEC
  0
SECTION
  2
TABLES
  0
TABLE
  2
VPORT
  5
20
330
0
100
AcDbSymbolTable
 70
     1
  0
VPORT
  5
21
330
20
100
AcDbSymbolTableRecord
100
AcDbViewportTableRecord
  2
*ACTIVE
 70
     0
  0
ENDTAB
  0
TABLE
  2
LTYPE
  5
22
330
0
100
AcDbSymbolTable
 70
     1
  0
LTYPE
  5
23
330
21
100
AcDbSymbolTableRecord
100
AcDbLinetypeTableRecord
  2
BYBLOCK
 70
     0
  3

 72
    65
 73
     0
 40
0.0
  0
LTYPE
  5
24
330
21
100
AcDbSymbolTableRecord
100
AcDbLinetypeTableRecord
  2
BYLAYER
 70
     0
  3

 72
    65
 73
     0
 40
0.0
  0
LTYPE
  5
25
330
21
100
AcDbSymbolTableRecord
100
AcDbLinetypeTableRecord
  2
CONTINUOUS
 70
     0
  3
Solid line
 72
    65
 73
     0
 40
0.0
  0
ENDTAB
  0
TABLE
  2
LAYER
  5
A34
330
0
100
AcDbSymbolTable
 70
3
  0
LAYER
  5
A35
330
A34
100
AcDbSymbolTableRecord
100
AcDbLayerTableRecord
  2
0
 70
   0
 62
   7
  6
CONTINUOUS
  0
LAYER
  5
A36
330
A34
100
AcDbSymbolTableRecord
100
AcDbLayerTableRecord
  2
none
 70
    0
 62
    7
  6
CONTINUOUS
  0
LAYER
  5
A37
330
A34
100
AcDbSymbolTableRecord
100
AcDbLayerTableRecord
  2
Sketch
 70
    0
 62
    7
  6
CONTINUOUS
  0
ENDTAB
  0
TABLE
  2
STYLE
  5
70
330
0
100
AcDbSymbolTable
 70
     2
  0
STYLE
  5
71
330
70
100
AcDbSymbolTableRecord
100
AcDbTextStyleTableRecord
  2
STANDARD
 70
     0
 40
0.0
 41
1.0
 50
0.0
 71
     0
 42
2.5
  3
arial.ttf
  4

  0
STYLE
  5
72
330
70
100
AcDbSymbolTableRecord
100
AcDbTextStyleTableRecord
  2
ANNOTATIVE
 70
     0
 40
0.0
 41
1.0
 50
0.0
 71
     0
 42
2.5
  3
arial.ttf
  4

  0
ENDTAB
  0
TABLE
  2
VIEW
  5
73
330
0
100
AcDbSymbolTable
 70
     0
  0
ENDTAB
  0
TABLE
  2
UCS
  5
74
330
0
100
AcDbSymbolTable
 70
     0
  0
ENDTAB
  0
TABLE
  2
APPID
  5
75
330
0
100
AcDbSymbolTable
 70
     2
  0
APPID
  5
76
330
75
100
AcDbSymbolTableRecord
100
AcDbRegAppTableRecord
  2
ACAD
 70
     0
  0
APPID
  5
77
330
75
100
AcDbSymbolTableRecord
100
AcDbRegAppTableRecord
  2
ACADANNOTATIVE
 70
     0
  0
ENDTAB
  0
TABLE
  2
DIMSTYLE
  5
78
330
0
100
AcDbSymbolTable
 70
     2
  0
DIMSTYLE
105
79
330
78
100
AcDbSymbolTableRecord
100
AcDbDimStyleTableRecord
  2
STANDARD
 70
     0
  3

  4

  5

  6

  7

 40
0.0
 41
2.5
 42
0.625
 43
3.75
 44
1.25
 45
0.0
 46
0.0
 47
0.0
 48
0.0
140
2.5
141
2.5
142
0.0
143
0.03937007874016
144
1.0
145
0.0
146
1.0
147
0.625
 71
     0
 72
     0
 73
     0
 74
     0
 75
     0
 76
     0
 77
     1
 78
     8
170
     0
171
     3
172
     1
173
     0
174
     0
175
     0
176
     0
177
     0
178
     0
270
     2
271
     2
272
     2
273
     2
274
     3
340
71
275
     0
280
     0
281
     0
282
     0
283
     0
284
     8
285
     0
286
     0
287
     3
288
     0
  0
ENDTAB
  0
TABLE
  2
BLOCK_RECORD
  5
A01
330
0
100
AcDbSymbolTable
  70
5
  0
BLOCK_RECORD
  5
A02
330
A01
100
AcDbSymbolTableRecord
100
AcDbBlockTableRecord
  2
*MODEL_SPACE
  0
BLOCK_RECORD
  5
A03
330
A01
100
AcDbSymbolTableRecord
100
AcDbBlockTableRecord
  2
*PAPER_SPACE
  0
ENDTAB
  0
ENDSEC
  0
SECTION
  2
BLOCKS
  0
BLOCK
  5
A04
330
A02
100
AcDbEntity
  8
0
100
AcDbBlockBegin
  2
*MODEL_SPACE
 70
   0
 10
0
 20
0
 30
0
  3
*MODEL_SPACE
  1
 
  0
ENDBLK
  5
A05
330
A02
100
AcDbEntity
  8
0
100
AcDbBlockEnd
  0
BLOCK
  5
A06
330
A03
100
AcDbEntity
 67
1
  8
0
100
AcDbBlockBegin
  2
*PAPER_SPACE
 70
   0
 10
0
 20
0
 30
0
  3
*PAPER_SPACE
  1
 
  0
ENDBLK
  5
A07
330
A03
100
AcDbEntity
 67
    1
  8
0
100
AcDbBlockEnd
  0
ENDSEC
  0
SECTION
  2
ENTITIES
  0
LINE
  5
A08
330
A02
100
AcDbEntity
  8
Sketch
100
AcDbLine
 10
-54.576276567
 20
-13.820055038
 30
0.000000000
 11
-44.790536349
 21
13.241741890
 31
0.000000000
  0
ARC
  5
A09
330
A02
100
AcDbEntity
  8
Sketch
100
AcDbCircle
 10
-40.079817464
 20
11.538312093
 30
0.000000000
 40
5.009246000
100
AcDbArc
 50
120.256411834
 51
160.119645481
  0
LINE
  5
A0A
330
A02
100
AcDbEntity
  8
Sketch
100
AcDbLine
 10
-42.603829470
 20
15.865194213
 30
0.000000000
 11
-37.778404084
 21
18.680022829
 31
0.000000000
  0
ARC
  5
A0B
330
A02
100
AcDbEntity
  8
Sketch
100
AcDbCircle
 10
-40.346644847
 20
23.082725753
 30
0.000000000
 40
5.097024000
100
AcDbArc
 50
-59.743588166
 51
-19.290050517
  0
LINE
  5
A0C
330
A02
100
AcDbEntity
  8
Sketch
100
AcDbLine
 10
-35.535776279
 20
21.398921349
 30
0.000000000
 11
-34.848345028
 21
23.363010164
 31
0.000000000
  0
ARC
  5
A0D
330
A02
100
AcDbEntity
  8
Sketch
100
AcDbCircle
 10
-32.080547485
 20
22.394280791
 30
0.000000000
 40
2.932429000
100
AcDbArc
 50
100.407717619
 51
160.709949483
  0
LINE
  5
A0E
330
A02
100
AcDbEntity
  8
Sketch
100
AcDbLine
 10
-32.610295559
 20
25.278462965
 30
0.000000000
 11
-8.961495182
 21
29.622122868
 31
0.000000000
  0
ARC
  5
A0F
330
A02
100
AcDbEntity
  8
Sketch
100
AcDbCircle
 10
-8.028078695
 20
24.540191809
 30
0.000000000
 40
5.166942000
100
AcDbArc
 50
81.119343466
 51
100.407717619
  0
LINE
  5
A10
330
A02
100
AcDbEntity
  8
Sketch
100
AcDbLine
 10
-7.230422542
 20
29.645192719
 30
0.000000000
 11
12.542222295
 21
26.555717888
 31
0.000000000
  0
ARC
  5
A11
330
A02
100
AcDbEntity
  8
Sketch
100
AcDbCircle
 10
14.026345150
 20
36.054107000
 30
0.000000000
 40
9.613637000
100
AcDbArc
 50
-98.880656534
 51
-90.000000000
  0
LINE
  5
A12
330
A02
100
AcDbEntity
  8
Sketch
100
AcDbLine
 10
14.026345150
 20
26.440470000
 30
0.000000000
 11
36.894617362
 21
26.440470000
 31
0.000000000
  0
ARC
  5
A13
330
A02
100
AcDbEntity
  8
Sketch
100
AcDbCircle
 10
36.894617362
 20
33.806465000
 30
0.000000000
 40
7.365995000
100
AcDbArc
 50
-90.000000000
 51
-66.919388268
  0
LINE
  5
A14
330
A02
100
AcDbEntity
  8
Sketch
100
AcDbLine
 10
39.782277714
 20
27.030086909
 30
0.000000000
 11
58.058621302
 21
34.818299440
 31
0.000000000
  0
ARC
  5
A15
330
A02
100
AcDbEntity
  8
Sketch
100
AcDbCircle
 10
59.825271230
 20
30.672559843
 30
0.000000000
 40
4.506463000
100
AcDbArc
 50
27.235200294
 51
113.080611732
  0
LINE
  5
A16
330
A02
100
AcDbEntity
  8
Sketch
100
AcDbLine
 10
63.832126932
 20
32.734916784
 30
0.000000000
 11
64.602545086
 21
31.238107811
 31
0.000000000
  0
ARC
  5
A17
330
A02
100
AcDbEntity
  8
Sketch
100
AcDbCircle
 10
60.801172127
 20
29.281514290
 30
0.000000000
 40
4.275359000
100
AcDbArc
 50
-63.676712802
 51
27.235200294
  0
LINE
  5
A18
330
A02
100
AcDbEntity
  8
Sketch
100
AcDbLine
 10
62.697018171
 20
25.449483190
 30
0.000000000
 11
55.340441341
 21
21.809915369
 31
0.000000000
  0
ARC
  5
A19
330
A02
100
AcDbEntity
  8
Sketch
100
AcDbCircle
 10
59.628667249
 20
13.142220490
 30
0.000000000
 40
9.670461000
100
AcDbArc
 50
116.323287198
 51
135.226456153
  0
LINE
  5
A1A
330
A02
100
AcDbEntity
  8
Sketch
100
AcDbLine
 10
52.763645439
 20
19.953188960
 30
0.000000000
 11
38.013942424
 21
5.086429065
 31
0.000000000
  0
ARC
  5
A1B
330
A02
100
AcDbEntity
  8
Sketch
100
AcDbCircle
 10
32.359817946
 20
10.696034482
 30
0.000000000
 40
7.964722000
100
AcDbArc
 50
-64.025605493
 51
-44.773543847
  0
LINE
  5
A1C
330
A02
100
AcDbEntity
  8
Sketch
100
AcDbLine
 10
35.848122716
 20
3.535830129
 30
0.000000000
 11
22.879803187
 21
-2.782069281
 31
0.000000000
  0
ARC
  5
A1D
330
A02
100
AcDbEntity
  8
Sketch
100
AcDbCircle
 10
22.101880574
 20
-1.185280798
 30
0.000000000
 40
1.776202987
100
AcDbArc
 50
-148.498769638
 51
-64.025605493
  0
LINE
  5
A1E
330
A02
100
AcDbEntity
  8
Sketch
100
AcDbLine
 10
20.587438496
 20
-2.113376830
 30
0.000000000
 11
20.291968974
 21
-1.631237632
 31
0.000000000
  0
ARC
  5
A1F
330
A02
100
AcDbEntity
  8
Sketch
100
AcDbCircle
 10
17.619352361
 20
-3.269098143
 30
0.000000000
 40
3.134560035
100
AcDbArc
 50
31.501230362
 51
94.297028339
  0
LINE
  5
A20
330
A02
100
AcDbEntity
  8
Sketch
100
AcDbLine
 10
17.384489158
 20
-0.143349291
 30
0.000000000
 11
-10.731162059
 21
-2.255909261
 31
0.000000000
  0
ARC
  5
A21
330
A02
100
AcDbEntity
  8
Sketch
100
AcDbCircle
 10
-11.204208102
 20
4.039768834
 30
0.000000000
 40
6.313425000
100
AcDbArc
 50
-118.054614558
 51
-85.702971661
  0
ARC
  5
A22
330
A02
100
AcDbEntity
  8
Sketch
100
AcDbCircle
 10
-15.671816792
 20
-4.343294070
 30
0.000000000
 40
3.185799761
100
AcDbArc
 50
61.945385442
 51
144.933559427
  0
LINE
  5
A23
330
A02
100
AcDbEntity
  8
Sketch
100
AcDbLine
 10
-18.279350476
 20
-2.512969452
 30
0.000000000
 11
-21.593004903
 21
-7.233697925
 31
0.000000000
  0
ARC
  5
A24
330
A02
100
AcDbEntity
  8
Sketch
100
AcDbCircle
 10
-18.874497368
 20
-9.141919206
 30
0.000000000
 40
3.321384000
100
AcDbArc
 50
144.933559427
 51
-162.863721934
  0
LINE
  5
A25
330
A02
100
AcDbEntity
  8
Sketch
100
AcDbLine
 10
-22.048433989
 20
-10.120549880
 30
0.000000000
 11
-18.066053615
 21
-23.036375269
 31
0.000000000
  0
ARC
  5
A26
330
A02
100
AcDbEntity
  8
Sketch
100
AcDbCircle
 10
-22.221673476
 20
-24.317691676
 30
0.000000000
 40
4.348672000
100
AcDbArc
 50
-24.075510230
 51
17.136278066
  0
LINE
  5
A27
330
A02
100
AcDbEntity
  8
Sketch
100
AcDbLine
 10
-18.251298431
 20
-26.091690032
 30
0.000000000
 11
-21.885426319
 21
-34.225209789
 31
0.000000000
  0
ARC
  5
A28
330
A02
100
AcDbEntity
  8
Sketch
100
AcDbCircle
 10
-25.759280831
 20
-32.494337653
 30
0.000000000
 40
4.242955000
100
AcDbArc
 50
-98.337451958
 51
-24.075510230
  0
LINE
  5
A29
330
A02
100
AcDbEntity
  8
Sketch
100
AcDbLine
 10
-26.374521965
 20
-36.692449786
 30
0.000000000
 11
-37.729830526
 21
-35.028308216
 31
0.000000000
  0
ARC
  5
A2A
330
A02
100
AcDbEntity
  8
Sketch
100
AcDbCircle
 10
-38.630566439
 20
-41.174500590
 30
0.000000000
 40
6.211844000
100
AcDbArc
 50
81.662548042
 51
99.508084639
  0
LINE
  5
A2B
330
A02
100
AcDbEntity
  8
Sketch
100
AcDbLine
 10
-39.656680901
 20
-35.047993021
 30
0.000000000
 11
-64.595242288
 21
-39.224894498
 31
0.000000000
  0
ARC
  5
A2C
330
A02
100
AcDbEntity
  8
Sketch
100
AcDbCircle
 10
-65.014895154
 20
-36.719319774
 30
0.000000000
 40
2.540475000
100
AcDbArc
 50
-132.510470542
 51
-80.491915361
  0
LINE
  5
A2D
330
A02
100
AcDbEntity
  8
Sketch
100
AcDbLine
 10
-66.731557447
 20
-38.592040735
 30
0.000000000
 11
-67.696390728
 21
-37.707609500
 31
0.000000000
  0
ARC
  5
A2E
330
A02
100
AcDbEntity
  8
Sketch
100
AcDbCircle
 10
-66.551435649
 20
-36.458568622
 30
0.000000000
 40
1.694410000
100
AcDbArc
 50
133.976966360
 51
-132.510470542
  0
LINE
  5
A2F
330
A02
100
AcDbEntity
  8
Sketch
100
AcDbLine
 10
-67.727981647
 20
-35.239238986
 30
0.000000000
 11
-54.653697009
 21
-22.623702698
 31
0.000000000
  0
ARC
  5
A30
330
A02
100
AcDbEntity
  8
Sketch
100
AcDbCircle
 10
-56.214942253
 20
-21.005684704
 30
0.000000000
 40
2.248437000
100
AcDbArc
 50
-46.023033640
 51
10.007968289
  0
LINE
  5
A31
330
A02
100
AcDbEntity
  8
Sketch
100
AcDbLine
 10
-54.000718384
 20
-20.614939774
 30
0.000000000
 11
-54.781167202
 21
-16.192391282
 31
0.000000000
  0
ARC
  5
A32
330
A02
100
AcDbEntity
  8
Sketch
100
AcDbCircle
 10
-50.234562173
 20
-15.390050160
 30
0.000000000
 40
4.616857000
100
AcDbArc
 50
160.119645481
 51
-169.992031711
  0
LINE
  5
A33
330
A02
100
AcDbEntity
  8
Sketch
100
AcDbLine
 10
-14.720809638
 20
-1.203594448
 30
0.000000000
 11
-16.515405337
 21
0.000000000
 31
0.000000000
  0
ENDSEC
  0
SECTION
  2
OBJECTS
  0
DICTIONARY
  5
F000
330
0
100
AcDbDictionary
  3
ACAD_GROUP
350
F001
  0
DICTIONARY
  5
F001
330
F000
100
AcDbDictionary
  0
ENDSEC
  0
EOF