<?xml version="1.0" encoding="UTF-8" standalone="no"?>
<!-- Created with Inkscape (http://www.inkscape.org/) -->

<svg
   width="201.95978mm"
   height="169.77992mm"
   viewBox="0 0 201.95978 169.77992"
   version="1.1"
   id="svg1"
   xml:space="preserve"
   xmlns="http://www.w3.org/2000/svg"
   xmlns:svg="http://www.w3.org/2000/svg"><defs
     id="defs1" /><g
     id="layer1"
     transform="translate(33.276933,356.03739)"><path
       style="fill:#000000"
       d="m 71.541907,-211.57408 c -1.009516,0.005 -7.22363,1.01627 -11.420977,1.85908 -18.646955,3.74422 -36.897408,10.86041 -53.6003763,20.89977 -2.1100521,1.26825 -4.2229996,2.39008 -4.6954376,2.49295 -1.11522498,0.24283 -2.45458098,-0.21149 -3.294387,-1.11749 -0.367826,-0.39682 -7.674245,-12.86586 -16.2364871,-27.70899 -14.959062,-25.93237 -15.567847,-27.03995 -15.571147,-28.32902 -0.0024,-0.93654 0.159755,-1.56555 0.537136,-2.08361 0.354577,-0.48676 6.359588,-4.09812 17.45305,-10.49613 9.4880791,-5.47212 17.2318921,-10.1054 17.6400851,-10.55442 l 0.727604,-0.80037 v -43.00376 c 0,-47.502 -0.129016,-44.01007 1.6664912,-45.10485 0.8352014,-0.50925 1.9703789,-0.51648 81.1480907,-0.51648 79.177718,0 80.312898,0.007 81.148098,0.51648 1.81303,1.10547 1.67731,-3.84629 1.60216,58.4527 l -0.068,56.34456 -0.66146,0.71687 c -1.38684,1.50299 -0.19989,1.44241 -28.2596,1.44241 -24.7248,0 -25.98567,0.0231 -27.89387,0.51113 -5.20731,1.33181 -9.61616,4.89104 -11.94393,9.64225 -1.338257,2.73152 -1.766586,4.74416 -1.914607,8.99642 -0.221958,6.37626 -0.108021,6.29768 -9.495289,6.54868 -6.228498,0.16654 -10.94343,0.47705 -14.126865,0.93035 z m -65.2237767,21.32764 c 10.9332717,-6.57337 20.9303907,-11.14024 33.6722147,-15.38209 16.168046,-5.38246 31.607871,-8.08517 48.875914,-8.55564 l 6.277998,-0.17104 0.73346,-0.73346 c 0.725144,-0.72514 0.735292,-0.78214 0.895026,-5.02708 0.136635,-3.63109 0.268279,-4.62024 0.853126,-6.41029 2.174558,-6.6557 7.629621,-11.51729 14.520291,-12.9406 1.78144,-0.36797 5.28355,-0.42086 27.86589,-0.42086 h 25.82838 l 0.7734,-0.7734 0.77339,-0.77339 v -55.94365 -55.94365 l -0.68483,-0.68483 c -0.42298,-0.42298 -1.10584,-0.74441 -1.78594,-0.84066 -0.6056,-0.0857 -36.60368,-0.12119 -79.995721,-0.0788 l -78.8946129,0.077 -0.8111145,0.77711 -0.8111146,0.7771 -0.00581,42.87915 c -0.00666,49.17132 0.2629605,44.29806 -2.5443272,45.9869 -0.852997,0.51316 -8.51606,4.94281 -17.0290278,9.84367 -8.512969,4.90086 -15.805547,9.26208 -16.205729,9.6916 -0.858534,0.92147 -0.904934,1.50561 -0.225087,2.83366 1.887562,3.68728 30.86658882,53.48909 31.40121282,53.96446 0.36824,0.32742 0.958751,0.59531 1.31224598,0.59531 0.353495,0 2.6983396,-1.2359 5.2107662,-2.74644 z m -6.21445318,0.89854 c -0.817732,-0.64323 -1.082434,-1.58253 -0.716904,-2.54395 0.560185,-1.4734 2.23947598,-1.89277 3.52622398,-0.88061 0.5624604,0.44243 0.6971399,0.77096 0.6971399,1.70058 0,0.92963 -0.1346795,1.25816 -0.6971399,1.70059 -0.878728,0.69121 -1.94899798,0.70012 -2.80931998,0.0234 z m 2.19259498,-1.34401 c 0.589991,-1.10241 -1.017221,-1.80084 -1.68647898,-0.73287 -0.199676,0.31863 -0.179849,0.55701 0.07152,0.85989 0.48486698,0.58423 1.26723998,0.52269 1.61495798,-0.12702 z m -1.51725898,-22.00965 c -0.116371,-0.1819 -0.442146,-0.33073 -0.723943,-0.33073 -0.39539,0 -1.76831702,-2.17452 -6.01380902,-9.525 -5.0649051,-8.76918 -5.9153221,-10.45104 -5.2844811,-10.45104 0.125341,0 0.175299,-0.27513 0.111016,-0.61141 -0.06428,-0.33627 0.04153,-0.73941 0.235128,-0.89587 0.193603,-0.15645 4.0841351,-2.44117 8.6456281,-5.07713 7.5115235,-4.34072 9.5657516,-5.31312 9.5657516,-4.52809 0,0.14552 0.2852549,0.26458 0.6338998,0.26458 0.5549713,0 1.3044469,1.16128 6.0192705,9.32656 5.210008,9.02287 5.383169,9.36926 5.317754,10.63772 -0.03719,0.72114 -0.156252,1.39344 -0.264583,1.49401 -0.523094,0.4856 -17.3172219,10.02713 -17.6488389,10.02713 -0.209664,0 -0.47642098,-0.14883 -0.59279298,-0.33073 z m 9.14782618,-5.94768 7.7719107,-4.48851 0.06069,-0.99956 c 0.05261,-0.86651 -0.605831,-2.1553 -4.946613,-9.68221 -3.8851479,-6.73684 -5.1005615,-8.64686 -5.4234612,-8.52295 -0.2314095,0.0888 -0.5510471,-0.0248 -0.7199936,-0.25581 -0.2633112,-0.3601 -1.3606575,0.19594 -8.2283762,4.16944 -7.462436,4.3176 -7.934972,4.63594 -8.10335,5.45922 -0.09834,0.48084 -0.147603,0.93673 -0.109468,1.01308 0.03814,0.0764 2.309558,4.03813 5.047607,8.80394 4.30530302,7.49374 5.06204402,8.6651 5.59798002,8.6651 0.34083998,0 0.61970898,0.1318 0.61970898,0.29289 0,0.42021 -0.08771,0.46654 8.4333693,-4.45463 z m 81.9098117,2.71856 c -0.931041,-0.93104 -0.907657,-2.54863 0.04771,-3.30012 1.35979,-1.06961 3.329861,-0.50261 3.672395,1.05694 0.497738,2.26618 -2.119148,3.84413 -3.720103,2.24318 z m 2.279391,-1.09254 c 0.252116,-0.30378 0.271422,-0.54032 0.07018,-0.8599 -0.394584,-0.62662 -1.185613,-0.71085 -1.582205,-0.16848 -0.734389,1.00434 0.714263,1.98962 1.512021,1.02838 z m -61.137155,-1.43303 c 0,-0.14552 -0.223547,-0.26458 -0.49677,-0.26458 -0.273224,0 -0.614036,-0.14883 -0.757361,-0.33073 -0.40743,-0.51709 -5.416379,-19.51482 -5.255691,-19.93356 0.07877,-0.20527 0.317263,-0.37321 0.529991,-0.37321 0.212727,0 0.424823,-0.25727 0.471324,-0.57171 0.07663,-0.51817 1.098043,-0.84363 10.909335,-3.47607 9.801102,-2.6297 10.854753,-2.86338 11.141668,-2.471 0.174285,0.23835 0.571646,0.43336 0.883026,0.43336 0.311379,0 0.566144,0.0522 0.566144,0.1161 0,0.0639 1.131094,4.32957 2.513542,9.47937 2.45615,9.14947 2.794874,10.77745 2.242409,10.77745 -0.149122,0 -0.374788,0.27263 -0.501478,0.60585 -0.2068,0.54393 -1.321779,0.89647 -10.907514,3.44882 -5.872442,1.56364 -10.825995,2.83881 -11.007896,2.83373 -0.181901,-0.005 -0.330729,-0.1283 -0.330729,-0.27382 z m 20.902083,-6.8354 c 0,-0.21027 0.188028,-0.5198 0.417842,-0.68784 0.37231,-0.27224 0.197973,-1.12595 -1.599864,-7.83437 -2.909503,-10.85649 -2.735144,-10.30697 -3.27037,-10.30697 -0.257872,0 -0.606253,-0.1374 -0.77418,-0.30532 -0.230707,-0.23071 -2.700489,0.33506 -10.106277,2.3151 -8.242643,2.20379 -9.801082,2.6954 -9.801761,3.09197 -4.44e-4,0.25935 -0.217987,0.55701 -0.48343,0.66146 -0.446383,0.17565 -0.302767,0.86044 1.912573,9.1196 2.210635,8.24162 2.439321,8.92969 2.967857,8.92969 0.314964,0 0.634843,0.16204 0.710843,0.36009 0.196073,0.51096 20.026767,-4.78013 20.026767,-5.34341 z m 9.337079,0.4854 c -0.07659,-0.29287 -0.360896,-0.52917 -0.636688,-0.52917 -0.479717,0 -0.498308,-0.39485 -0.498308,-10.58333 0,-10.40694 0.0088,-10.58333 0.529166,-10.58333 0.291042,0 0.529167,-0.16586 0.529167,-0.36857 0,-0.20271 0.188332,-0.44084 0.418515,-0.52917 0.230183,-0.0883 5.343119,-0.1606 11.36208,-0.1606 10.270316,0 10.964835,0.0296 11.289298,0.48045 0.190152,0.26424 0.554091,0.55816 0.808753,0.65315 0.430122,0.16044 0.46302,0.90706 0.46302,10.50807 0,9.60101 -0.0329,10.34763 -0.46302,10.50807 -0.254662,0.095 -0.618601,0.38891 -0.808753,0.65315 -0.324728,0.45126 -1.029495,0.48045 -11.600291,0.48045 -11.032043,0 -11.257295,-0.0105 -11.392939,-0.52917 z m 16.922816,-0.19812 c -2.946797,-0.0426 -7.768828,-0.0426 -10.715625,0 -2.946797,0.0426 -0.535781,0.0774 5.357813,0.0774 5.893593,0 8.304609,-0.0348 5.357812,-0.0774 z m 4.960937,-0.97468 c 0,-0.20847 0.238125,-0.45462 0.529167,-0.54699 0.515837,-0.16372 0.529167,-0.40033 0.529167,-9.39271 0,-8.99238 -0.01333,-9.22899 -0.529167,-9.39271 -0.291042,-0.0924 -0.529167,-0.33852 -0.529167,-0.54699 0,-0.32253 -1.538639,-0.37905 -10.318749,-0.37905 -8.936834,0 -10.31875,0.0525 -10.31875,0.39183 0,0.21551 -0.297657,0.46655 -0.661459,0.55785 l -0.661458,0.16602 v 9.20305 9.20305 l 0.661458,0.16602 c 0.363802,0.0913 0.661459,0.34234 0.661459,0.55785 0,0.33935 1.381916,0.39183 10.31875,0.39183 8.78011,0 10.318749,-0.0565 10.318749,-0.37905 z m 1.785555,-14.76835 c -0.04316,-2.65575 -0.07847,-0.48286 -0.07847,4.82865 0,5.31151 0.03531,7.4844 0.07847,4.82865 0.04316,-2.65576 0.04316,-7.00154 0,-9.6573 z m 75.946203,-0.55914 c -1.12025,-0.85111 -1.12488,-2.73615 -0.009,-3.614 1.21703,-0.95732 2.97465,-0.46084 3.52885,0.99681 0.32144,0.84545 -0.13308,2.34655 -0.82219,2.71535 -0.6846,0.36639 -2.15684,0.31282 -2.69778,-0.0982 z m 2.26234,-1.53534 c 0.19968,-0.31864 0.17985,-0.55702 -0.0715,-0.8599 -0.48487,-0.58423 -1.26724,-0.52269 -1.61496,0.12703 -0.58999,1.10241 1.01722,1.80083 1.68648,0.73287 z m -195.232164,0.98203 c -1.600956,-1.60095 -0.023,-4.21784 2.243181,-3.7201 2.502577,0.54966 1.93989,4.36953 -0.643655,4.36953 -0.655964,0 -1.151145,-0.20105 -1.599526,-0.64943 z m 2.443688,-1.10632 c 0.218876,-0.57038 -0.25115,-1.28695 -0.844162,-1.28695 -0.259322,0 -0.592716,0.19217 -0.740875,0.42705 -0.404211,0.64081 -0.03059,1.29274 0.740875,1.29274 0.383689,0 0.750176,-0.18792 0.844162,-0.43284 z m -2.383213,-0.67511 c -0.08446,-0.21106 -0.147156,-0.14837 -0.159852,0.15986 -0.01149,0.27891 0.05105,0.43518 0.138964,0.34726 0.08792,-0.0879 0.09732,-0.31612 0.02089,-0.50712 z m 163.940219,-7.18023 c -0.11637,-0.19288 -0.41994,-0.42727 -0.6746,-0.52087 -0.43025,-0.15813 -0.46302,-0.90744 -0.46302,-10.58705 v -10.41688 l 0.66146,-0.30138 c 0.3638,-0.16576 0.66145,-0.423 0.66145,-0.57164 0,-0.17976 3.81221,-0.27025 11.38539,-0.27025 9.74451,0 11.40678,0.0558 11.53382,0.3868 0.0816,0.21274 0.37555,0.45889 0.65315,0.547 0.48536,0.15405 0.50473,0.56138 0.50473,10.61817 0,10.11058 -0.017,10.46242 -0.51087,10.59158 -0.28097,0.0735 -0.57489,0.30045 -0.65315,0.5044 -0.20557,0.53569 -22.77542,0.55535 -23.09836,0.0201 z m 21.88113,-1.1293 c 0,-0.23191 0.23812,-0.48392 0.52916,-0.56003 0.51659,-0.13509 0.52917,-0.36089 0.52917,-9.50023 0,-8.23052 -0.049,-9.36184 -0.40518,-9.36184 -0.22285,0 -0.47371,-0.1786 -0.55747,-0.39688 -0.13175,-0.34334 -1.53661,-0.39687 -10.41443,-0.39687 -8.87783,0 -10.28268,0.0535 -10.41443,0.39687 -0.0838,0.21828 -0.33463,0.39688 -0.55748,0.39688 -0.35621,0 -0.40518,1.13132 -0.40518,9.36184 0,9.13934 0.0126,9.36514 0.52917,9.50023 0.29104,0.0761 0.52917,0.32812 0.52917,0.56003 0,0.3786 1.0535,0.42164 10.31875,0.42164 9.26525,0 10.31875,-0.043 10.31875,-0.42164 z m -140.94363,-2.57487 c -0.116372,-0.19288 -0.419944,-0.42726 -0.674606,-0.52086 -0.43025,-0.15814 -0.46302,-0.90745 -0.46302,-10.58706 v -10.41688 l 0.661458,-0.30138 c 0.363802,-0.16576 0.661458,-0.42299 0.661458,-0.57163 0,-0.17977 3.812208,-0.27026 11.385387,-0.27026 9.744508,0 11.406779,0.0557 11.533817,0.38681 0.08164,0.21274 0.375557,0.45889 0.653155,0.54699 0.485362,0.15405 0.504724,0.56138 0.504724,10.61818 0,10.11057 -0.01697,10.46242 -0.510864,10.59157 -0.280975,0.0735 -0.574895,0.30046 -0.653155,0.5044 -0.205564,0.53569 -22.77542,0.55535 -23.098354,0.0201 z m 21.881123,-1.1293 c 0,-0.2319 0.238125,-0.48391 0.529167,-0.56002 0.516589,-0.13509 0.529166,-0.3609 0.529166,-9.50023 0,-8.23053 -0.04896,-9.36185 -0.405178,-9.36185 -0.222849,0 -0.473712,-0.1786 -0.557475,-0.39688 -0.131751,-0.34333 -1.536608,-0.39687 -10.41443,-0.39687 -8.877822,0 -10.282678,0.0535 -10.41443,0.39687 -0.08376,0.21828 -0.334625,0.39688 -0.557474,0.39688 -0.356215,0 -0.405179,1.13132 -0.405179,9.36185 0,9.13933 0.01258,9.36514 0.529167,9.50023 0.291042,0.0761 0.529167,0.32812 0.529167,0.56002 0,0.3786 1.053498,0.42165 10.318749,0.42165 9.265252,0 10.31875,-0.0431 10.31875,-0.42165 z m 7.9375,-2.55832 c 0,-0.18377 -0.267891,-0.45166 -0.595312,-0.59531 l -0.595313,-0.26118 v -10.31875 -10.31875 l 0.595313,-0.26118 c 0.327421,-0.14364 0.595312,-0.41154 0.595312,-0.59531 0,-0.264 2.4157,-0.33413 11.509375,-0.33413 9.093674,0 11.509375,0.0701 11.509375,0.33413 0,0.18377 0.26789,0.45167 0.595312,0.59531 l 0.595313,0.26118 v 10.31875 10.31875 l -0.595313,0.26118 c -0.327422,0.14365 -0.595312,0.41154 -0.595312,0.59531 0,0.264 -2.415701,0.33413 -11.509375,0.33413 -9.093675,0 -11.509375,-0.0701 -11.509375,-0.33413 z m 21.960416,-1.38566 c 0,-0.22048 0.235186,-0.39687 0.529167,-0.39687 0.519229,0 0.529167,-0.17639 0.529167,-9.39271 0,-9.21632 -0.0099,-9.39271 -0.529167,-9.39271 -0.293981,0 -0.529167,-0.17639 -0.529167,-0.39687 0,-0.346 -1.323839,-0.39688 -10.327053,-0.39688 -8.935528,0 -10.347575,0.0535 -10.479349,0.39688 -0.08376,0.21828 -0.377682,0.39687 -0.653155,0.39687 -0.482017,0 -0.500859,0.35334 -0.500859,9.39271 0,9.03937 0.01884,9.39271 0.500859,9.39271 0.275473,0 0.569392,0.17859 0.653155,0.39687 0.131774,0.3434 1.543821,0.39688 10.479349,0.39688 9.003214,0 10.327053,-0.0509 10.327053,-0.39688 z m 37.570831,1.38566 c 0,-0.18377 -0.26789,-0.45166 -0.59531,-0.59531 l -0.59531,-0.26118 v -10.31875 -10.31875 l 0.59531,-0.26118 c 0.32742,-0.14364 0.59531,-0.41154 0.59531,-0.59531 0,-0.264 2.4157,-0.33413 11.50938,-0.33413 9.09368,0 11.50938,0.0701 11.50938,0.33413 0,0.18377 0.26789,0.45167 0.59531,0.59531 l 0.59531,0.26118 v 10.31875 10.31875 l -0.59531,0.26118 c -0.32742,0.14365 -0.59531,0.41154 -0.59531,0.59531 0,0.264 -2.4157,0.33413 -11.50938,0.33413 -9.09368,0 -11.50938,-0.0701 -11.50938,-0.33413 z m 21.86474,-1.38566 c 0.0838,-0.21828 0.37769,-0.39687 0.65316,-0.39687 0.48202,0 0.50086,-0.35334 0.50086,-9.39271 0,-9.03937 -0.0188,-9.39271 -0.50086,-9.39271 -0.27547,0 -0.56939,-0.17859 -0.65316,-0.39687 -0.13173,-0.34329 -1.53004,-0.39688 -10.35536,-0.39688 -8.82532,0 -10.22363,0.0536 -10.35536,0.39688 -0.0838,0.21828 -0.37769,0.39687 -0.65316,0.39687 -0.48202,0 -0.50086,0.35334 -0.50086,9.39271 0,9.03937 0.0188,9.39271 0.50086,9.39271 0.27547,0 0.56939,0.17859 0.65316,0.39687 0.13173,0.34329 1.53004,0.39688 10.35536,0.39688 8.82532,0 10.22363,-0.0536 10.35536,-0.39688 z m -51.498071,-2.25463 c 0,-0.14864 -0.297656,-0.40587 -0.661458,-0.57163 l -0.661458,-0.30138 v -10.41688 c 0,-9.67961 0.03277,-10.42892 0.46302,-10.58706 0.254662,-0.0936 0.558234,-0.32798 0.674606,-0.52086 0.322934,-0.53523 22.89279,-0.51557 23.098355,0.0201 0.07826,0.20394 0.372179,0.43092 0.653154,0.5044 0.493894,0.12915 0.510864,0.481 0.510864,10.59157 0,10.0568 -0.01936,10.46413 -0.504724,10.61818 -0.277598,0.0881 -0.571518,0.33425 -0.653154,0.54699 -0.127039,0.33106 -1.78931,0.38681 -11.533818,0.38681 -7.573179,0 -11.385387,-0.0905 -11.385387,-0.27026 z m 21.791514,-1.44953 c 0.08376,-0.21828 0.334625,-0.39688 0.557474,-0.39688 0.35624,0 0.405179,-1.13447 0.405179,-9.39271 0,-8.41792 -0.04376,-9.3927 -0.421646,-9.3927 -0.231904,0 -0.483916,-0.23813 -0.560025,-0.52917 -0.135378,-0.51769 -0.360896,-0.52917 -10.395413,-0.52917 -10.034516,0 -10.260034,0.0115 -10.395412,0.52917 -0.07611,0.29104 -0.328121,0.52917 -0.560026,0.52917 -0.377886,0 -0.421645,0.97478 -0.421645,9.3927 0,8.25824 0.04894,9.39271 0.405179,9.39271 0.222849,0 0.473712,0.1786 0.557474,0.39688 0.131752,0.34333 1.536608,0.39687 10.41443,0.39687 8.877822,0 10.282679,-0.0535 10.414431,-0.39687 z m 37.607447,-17.33021 c -0.0924,-0.29104 -0.39805,-0.52917 -0.67929,-0.52917 -0.49677,0 -0.51133,-0.29795 -0.51133,-10.45934 0,-9.7191 0.0328,-10.47157 0.46302,-10.63206 0.25466,-0.095 0.6186,-0.38891 0.80875,-0.65315 0.32458,-0.45106 1.02368,-0.48045 11.42823,-0.48045 10.40454,0 11.10364,0.0294 11.42822,0.48045 0.19016,0.26424 0.55409,0.55816 0.80876,0.65315 0.43025,0.16049 0.46302,0.91296 0.46302,10.63206 0,10.16139 -0.0146,10.45934 -0.51134,10.45934 -0.28124,0 -0.58692,0.23813 -0.67929,0.52917 -0.16451,0.51832 -0.40032,0.52917 -11.50937,0.52917 -11.10905,0 -11.34487,-0.0108 -11.50938,-0.52917 z m 16.86719,-0.19812 c -2.9468,-0.0426 -7.76883,-0.0426 -10.71563,0 -2.94679,0.0426 -0.53578,0.0774 5.35782,0.0774 5.89359,0 8.30461,-0.0348 5.35781,-0.0774 z m 4.96094,-0.99251 c 0,-0.22048 0.23518,-0.39687 0.52916,-0.39687 0.51921,0 0.52917,-0.17639 0.52917,-9.37488 0,-9.1425 -0.0131,-9.37904 -0.52917,-9.54283 -0.29104,-0.0924 -0.52916,-0.33852 -0.52916,-0.54699 0,-0.32253 -1.53864,-0.37905 -10.31875,-0.37905 -8.78011,0 -10.31875,0.0565 -10.31875,0.37905 0,0.20847 -0.23813,0.45462 -0.52917,0.54699 -0.51605,0.16379 -0.52917,0.40033 -0.52917,9.54283 0,9.19849 0.01,9.37488 0.52917,9.37488 0.29398,0 0.52917,0.17639 0.52917,0.39687 0,0.346 1.32291,0.39688 10.31875,0.39688 8.99583,0 10.31875,-0.0509 10.31875,-0.39688 z M 14.854929,-284.3375 c -0.09237,-0.29104 -0.398053,-0.52916 -0.679288,-0.52916 -0.496771,0 -0.511337,-0.29796 -0.511337,-10.45935 0,-9.7191 0.03277,-10.47157 0.46302,-10.63205 0.254662,-0.095 0.618601,-0.38891 0.808753,-0.65316 0.324463,-0.45089 1.018982,-0.48044 11.289298,-0.48044 6.018961,0 11.131897,0.0723 11.36208,0.1606 0.230183,0.0883 0.418515,0.32645 0.418515,0.52916 0,0.20271 0.238125,0.36857 0.529166,0.36857 0.520348,0 0.529167,0.17639 0.529167,10.58333 0,10.18848 -0.01859,10.58334 -0.498308,10.58334 -0.275792,0 -0.5601,0.23629 -0.636688,0.52916 -0.135675,0.51883 -0.360896,0.52917 -11.522404,0.52917 -11.151651,0 -11.387452,-0.0108 -11.551974,-0.52917 z m 16.867187,-0.19812 c -2.946797,-0.0426 -7.768828,-0.0426 -10.715625,0 -2.946797,0.0426 -0.535781,0.0774 5.357812,0.0774 5.893594,0 8.30461,-0.0348 5.357813,-0.0774 z m 4.960937,-0.97467 c 0,-0.20848 0.238125,-0.45463 0.529167,-0.547 0.515837,-0.16372 0.529166,-0.40032 0.529166,-9.39271 0,-8.99238 -0.01333,-9.22898 -0.529166,-9.3927 -0.291042,-0.0924 -0.529167,-0.33853 -0.529167,-0.547 0,-0.32253 -1.538639,-0.37905 -10.31875,-0.37905 -8.78011,0 -10.318749,0.0565 -10.318749,0.37905 0,0.20847 -0.238125,0.45462 -0.529167,0.547 -0.515837,0.16372 -0.529167,0.40032 -0.529167,9.3927 0,8.99239 0.01333,9.22899 0.529167,9.39271 0.291042,0.0924 0.529167,0.33852 0.529167,0.547 0,0.32252 1.538639,0.37904 10.318749,0.37904 8.780111,0 10.31875,-0.0565 10.31875,-0.37904 z m 8.014163,-2.53137 c -0.07611,-0.29105 -0.349881,-0.52917 -0.608381,-0.52917 -0.2585,0 -0.54227,-0.18833 -0.6306,-0.41852 -0.209698,-0.54646 -0.209698,-19.78317 0,-20.32963 0.08833,-0.23018 0.3721,-0.41852 0.6306,-0.41852 0.2585,0 0.532272,-0.23812 0.608381,-0.52916 0.135654,-0.51874 0.360896,-0.52917 11.432712,-0.52917 11.071816,0 11.297058,0.0104 11.432712,0.52917 0.07611,0.29104 0.34988,0.52916 0.608381,0.52916 0.2585,0 0.54227,0.18834 0.630599,0.41852 0.209699,0.54646 0.209699,19.78317 0,20.32963 -0.08833,0.23019 -0.372099,0.41852 -0.630599,0.41852 -0.258501,0 -0.532272,0.23812 -0.608381,0.52917 -0.135654,0.51874 -0.360896,0.52916 -11.432712,0.52916 -11.071816,0 -11.297058,-0.0104 -11.432712,-0.52916 z m 21.883753,-1.2154 c 0,-0.2319 0.238125,-0.48392 0.529167,-0.56002 0.516409,-0.13505 0.529167,-0.3609 0.529167,-9.36794 0,-8.26864 -0.0439,-9.22956 -0.421646,-9.22956 -0.231904,0 -0.483916,-0.23812 -0.560025,-0.52917 -0.135368,-0.51765 -0.360896,-0.52916 -10.362627,-0.52916 -9.9377,0 -10.233508,0.0148 -10.554716,0.52916 -0.181759,0.29105 -0.508055,0.52917 -0.725103,0.52917 -0.342272,0 -0.394633,1.22871 -0.394633,9.26042 0,8.03171 0.05236,9.26041 0.394633,9.26041 0.217048,0 0.543344,0.23813 0.725103,0.52917 0.321236,0.51438 0.617016,0.52917 10.585575,0.52917 9.207017,0 10.255105,-0.0431 10.255105,-0.42165 z m -10.926964,-5.56643 c -0.102045,-0.10204 -0.185535,-0.99913 -0.185535,-1.99352 v -1.80799 h -1.852084 c -1.675694,0 -1.852083,-0.0504 -1.852083,-0.52916 0,-0.47846 0.176389,-0.52917 1.840492,-0.52917 h 1.840492 l 0.07774,-1.91823 c 0.06954,-1.71593 0.133544,-1.91823 0.606904,-1.91823 0.473359,0 0.537365,0.2023 0.606904,1.91823 l 0.07774,1.91823 h 1.840492 c 1.664103,0 1.840492,0.0507 1.840492,0.52917 0,0.47845 -0.176389,0.52916 -1.840492,0.52916 h -1.840492 l -0.07774,1.91543 c -0.05997,1.47761 -0.171402,1.93327 -0.487515,1.99352 -0.225377,0.043 -0.493268,-0.005 -0.595312,-0.10744 z m 0.540086,-6.2489 c -0.05022,-1.05503 -0.09131,-0.19183 -0.09131,1.91823 0,2.11005 0.04109,2.97325 0.09131,1.91823 0.05022,-1.05503 0.05022,-2.78144 0,-3.83646 z m 48.034379,13.03073 c -0.0761,-0.29105 -0.34989,-0.52917 -0.60839,-0.52917 -0.2585,0 -0.54227,-0.18833 -0.63059,-0.41852 -0.2097,-0.54646 -0.2097,-19.78317 0,-20.32963 0.0883,-0.23018 0.37209,-0.41852 0.63059,-0.41852 0.2585,0 0.53228,-0.23812 0.60839,-0.52916 0.13565,-0.51874 0.36089,-0.52917 11.43271,-0.52917 11.07182,0 11.29706,0.0104 11.43271,0.52917 0.0761,0.29104 0.34988,0.52916 0.60838,0.52916 0.2585,0 0.54227,0.18834 0.6306,0.41852 0.2097,0.54646 0.2097,19.78317 0,20.32963 -0.0883,0.23019 -0.3721,0.41852 -0.6306,0.41852 -0.2585,0 -0.53227,0.23812 -0.60838,0.52917 -0.13565,0.51874 -0.36089,0.52916 -11.43271,0.52916 -11.07182,0 -11.29706,-0.0104 -11.43271,-0.52916 z m 21.88375,-1.32292 c 0.15576,-0.29104 0.45761,-0.52917 0.67077,-0.52917 0.33298,0 0.38757,-1.30418 0.38757,-9.26041 0,-7.95624 -0.0546,-9.26042 -0.38757,-9.26042 -0.21316,0 -0.51501,-0.23812 -0.67077,-0.52917 -0.27562,-0.51499 -0.55399,-0.52916 -10.3967,-0.52916 -9.82697,0 -10.12287,0.015 -10.44398,0.52916 -0.18176,0.29105 -0.50806,0.52917 -0.7251,0.52917 -0.34228,0 -0.39464,1.22871 -0.39464,9.26042 0,8.03171 0.0524,9.26041 0.39464,9.26041 0.21704,0 0.54334,0.23813 0.7251,0.52917 0.32111,0.51417 0.61701,0.52917 10.44398,0.52917 9.84271,0 10.12108,-0.0142 10.3967,-0.52917 z m -51.644894,-2.33253 c -0.190152,-0.26424 -0.554091,-0.55816 -0.808753,-0.65315 -0.430251,-0.16049 -0.46302,-0.91296 -0.46302,-10.63206 0,-10.16139 0.01457,-10.45934 0.511337,-10.45934 0.281235,0 0.586915,-0.23813 0.679288,-0.52917 0.164509,-0.51832 0.400323,-0.52917 11.509374,-0.52917 11.109052,0 11.344865,0.0108 11.509375,0.52917 0.09237,0.29104 0.398053,0.52917 0.679288,0.52917 0.496872,0 0.511337,0.2994 0.511337,10.58333 0,9.92464 -0.02897,10.58333 -0.465522,10.58333 -0.256037,0 -0.614233,0.23813 -0.795992,0.52917 -0.321935,0.5155 -0.617015,0.52917 -11.425725,0.52917 -10.416877,0 -11.116393,-0.0294 -11.440987,-0.48045 z m 21.746976,-1.22152 c 0,-0.20847 0.238125,-0.45462 0.529167,-0.54699 0.515837,-0.16372 0.529167,-0.40033 0.529167,-9.39271 0,-8.99238 -0.01333,-9.22899 -0.529167,-9.39271 -0.291042,-0.0924 -0.529167,-0.33852 -0.529167,-0.54699 0,-0.32253 -1.538639,-0.37905 -10.31875,-0.37905 -8.78011,0 -10.318749,0.0565 -10.318749,0.37905 0,0.20847 -0.238125,0.45462 -0.529167,0.54699 -0.515837,0.16372 -0.529167,0.40033 -0.529167,9.39271 0,8.99238 0.01333,9.22899 0.529167,9.39271 0.291042,0.0924 0.529167,0.33852 0.529167,0.54699 0,0.32253 1.538639,0.37905 10.318749,0.37905 8.780111,0 10.31875,-0.0565 10.31875,-0.37905 z m -4.960937,-20.98574 c -2.946797,-0.0426 -7.768828,-0.0426 -10.715625,0 -2.946797,0.0426 -0.535781,0.0774 5.357812,0.0774 5.893594,0 8.30461,-0.0348 5.357813,-0.0774 z m 42.611065,3.55161 c -0.11637,-0.19288 -0.41994,-0.42726 -0.6746,-0.52086 -0.43025,-0.15814 -0.46302,-0.90745 -0.46302,-10.58706 v -10.41688 l 0.66146,-0.30138 c 0.3638,-0.16576 0.66145,-0.42299 0.66145,-0.57163 0,-0.17977 3.81221,-0.27026 11.38539,-0.27026 9.74451,0 11.40678,0.0557 11.53382,0.3868 0.0816,0.21275 0.37555,0.45889 0.65315,0.547 0.48536,0.15405 0.50473,0.56138 0.50473,10.61818 0,10.11057 -0.017,10.46242 -0.51087,10.59157 -0.28097,0.0735 -0.57489,0.30046 -0.65315,0.5044 -0.20557,0.53569 -22.77542,0.55535 -23.09836,0.0201 z m 21.88113,-1.1293 c 0,-0.2319 0.23812,-0.48391 0.52916,-0.56002 0.51659,-0.13509 0.52917,-0.3609 0.52917,-9.50023 0,-8.23053 -0.049,-9.36185 -0.40518,-9.36185 -0.22285,0 -0.47371,-0.1786 -0.55747,-0.39688 -0.13175,-0.34334 -1.53661,-0.39687 -10.41443,-0.39687 -8.87783,0 -10.28268,0.0535 -10.41443,0.39687 -0.0838,0.21828 -0.33463,0.39688 -0.55748,0.39688 -0.35621,0 -0.40518,1.13132 -0.40518,9.36185 0,9.13933 0.0126,9.36514 0.52917,9.50023 0.29104,0.0761 0.52917,0.32812 0.52917,0.56002 0,0.3786 1.0535,0.42165 10.31875,0.42165 9.26525,0 10.31875,-0.043 10.31875,-0.42165 z m -140.94363,-2.57487 c -0.116372,-0.19287 -0.419944,-0.42726 -0.674606,-0.52086 -0.43025,-0.15814 -0.46302,-0.90744 -0.46302,-10.58706 v -10.41687 l 0.661458,-0.30138 c 0.363802,-0.16576 0.661458,-0.423 0.661458,-0.57164 0,-0.17976 3.812208,-0.27026 11.385387,-0.27026 9.744508,0 11.406779,0.0558 11.533817,0.38681 0.08164,0.21274 0.375557,0.45889 0.653155,0.54699 0.485362,0.15405 0.504724,0.56139 0.504724,10.61818 0,10.11057 -0.01697,10.46242 -0.510864,10.59157 -0.280975,0.0735 -0.574895,0.30046 -0.653155,0.5044 -0.205564,0.53569 -22.77542,0.55535 -23.098354,0.0201 z m 21.881123,-1.12929 c 0,-0.23191 0.238125,-0.48392 0.529167,-0.56003 0.516589,-0.13509 0.529166,-0.3609 0.529166,-9.50023 0,-8.23053 -0.04896,-9.36185 -0.405178,-9.36185 -0.222849,0 -0.473712,-0.17859 -0.557475,-0.39687 -0.131751,-0.34334 -1.536608,-0.39688 -10.41443,-0.39688 -8.877822,0 -10.282678,0.0535 -10.41443,0.39688 -0.08376,0.21828 -0.334625,0.39687 -0.557474,0.39687 -0.356215,0 -0.405179,1.13132 -0.405179,9.36185 0,9.13933 0.01258,9.36514 0.529167,9.50023 0.291042,0.0761 0.529167,0.32812 0.529167,0.56003 0,0.37859 1.053498,0.42164 10.318749,0.42164 9.265252,0 10.31875,-0.043 10.31875,-0.42164 z m 7.9375,-2.55833 c 0,-0.18377 -0.267891,-0.45166 -0.595312,-0.59531 l -0.595313,-0.26118 v -10.31875 -10.31875 l 0.595313,-0.26117 c 0.327421,-0.14365 0.595312,-0.41154 0.595312,-0.59532 0,-0.264 2.4157,-0.33413 11.509375,-0.33413 9.093674,0 11.509375,0.0701 11.509375,0.33413 0,0.18378 0.26789,0.45167 0.595312,0.59532 l 0.595313,0.26117 v 10.31875 10.31875 l -0.595313,0.26118 c -0.327422,0.14365 -0.595312,0.41154 -0.595312,0.59531 0,0.26401 -2.415701,0.33414 -11.509375,0.33414 -9.093675,0 -11.509375,-0.0701 -11.509375,-0.33414 z m 21.960416,-1.38565 c 0,-0.22049 0.235186,-0.39688 0.529167,-0.39688 0.519229,0 0.529167,-0.17639 0.529167,-9.39271 0,-9.21632 -0.0099,-9.39271 -0.529167,-9.39271 -0.293981,0 -0.529167,-0.17638 -0.529167,-0.39687 0,-0.346 -1.323839,-0.39688 -10.327053,-0.39688 -8.935528,0 -10.347575,0.0535 -10.479349,0.39688 -0.08376,0.21828 -0.377682,0.39687 -0.653155,0.39687 -0.482017,0 -0.500859,0.35335 -0.500859,9.39271 0,9.03937 0.01884,9.39271 0.500859,9.39271 0.275473,0 0.569392,0.17859 0.653155,0.39688 0.131774,0.34339 1.543821,0.39687 10.479349,0.39687 9.003214,0 10.327053,-0.0509 10.327053,-0.39687 z m 37.570831,1.38565 c 0,-0.18377 -0.26789,-0.45166 -0.59531,-0.59531 l -0.59531,-0.26118 v -10.31875 -10.31875 l 0.59531,-0.26117 c 0.32742,-0.14365 0.59531,-0.41154 0.59531,-0.59532 0,-0.264 2.4157,-0.33413 11.50938,-0.33413 9.09368,0 11.50938,0.0701 11.50938,0.33413 0,0.18378 0.26789,0.45167 0.59531,0.59532 l 0.59531,0.26117 v 10.31875 10.31875 l -0.59531,0.26118 c -0.32742,0.14365 -0.59531,0.41154 -0.59531,0.59531 0,0.26401 -2.4157,0.33414 -11.50938,0.33414 -9.09368,0 -11.50938,-0.0701 -11.50938,-0.33414 z m 21.86474,-1.38565 c 0.0838,-0.21829 0.37769,-0.39688 0.65316,-0.39688 0.48202,0 0.50086,-0.35334 0.50086,-9.39271 0,-9.03936 -0.0188,-9.39271 -0.50086,-9.39271 -0.27547,0 -0.56939,-0.17859 -0.65316,-0.39687 -0.13173,-0.34328 -1.53004,-0.39688 -10.35536,-0.39688 -8.82532,0 -10.22363,0.0536 -10.35536,0.39688 -0.0838,0.21828 -0.37769,0.39687 -0.65316,0.39687 -0.48202,0 -0.50086,0.35335 -0.50086,9.39271 0,9.03937 0.0188,9.39271 0.50086,9.39271 0.27547,0 0.56939,0.17859 0.65316,0.39688 0.13173,0.34328 1.53004,0.39687 10.35536,0.39687 8.82532,0 10.22363,-0.0536 10.35536,-0.39687 z m -51.498071,-2.25463 c 0,-0.14865 -0.297656,-0.40588 -0.661458,-0.57164 l -0.661458,-0.30138 v -10.41688 c 0,-9.67961 0.03277,-10.42892 0.46302,-10.58705 0.254662,-0.0936 0.558234,-0.32799 0.674606,-0.52087 0.322934,-0.53523 22.89279,-0.51557 23.098355,0.0201 0.07826,0.20394 0.372179,0.43092 0.653154,0.5044 0.493894,0.12916 0.510864,0.481 0.510864,10.59158 0,10.05679 -0.01936,10.46412 -0.504724,10.61817 -0.277598,0.0881 -0.571518,0.33426 -0.653154,0.547 -0.127039,0.33105 -1.78931,0.3868 -11.533818,0.3868 -7.573179,0 -11.385387,-0.0905 -11.385387,-0.27026 z m 21.791514,-1.44954 c 0.08376,-0.21828 0.334625,-0.39688 0.557474,-0.39688 0.35624,0 0.405179,-1.13446 0.405179,-9.3927 0,-8.41793 -0.04376,-9.39271 -0.421646,-9.39271 -0.231904,0 -0.483916,-0.23813 -0.560025,-0.52917 -0.135378,-0.51769 -0.360896,-0.52916 -10.395413,-0.52916 -10.034516,0 -10.260034,0.0115 -10.395412,0.52916 -0.07611,0.29104 -0.328121,0.52917 -0.560026,0.52917 -0.377886,0 -0.421645,0.97478 -0.421645,9.39271 0,8.25824 0.04894,9.3927 0.405179,9.3927 0.222849,0 0.473712,0.1786 0.557474,0.39688 0.131752,0.34334 1.536608,0.39687 10.41443,0.39687 8.877822,0 10.282679,-0.0535 10.414431,-0.39687 z m -21.695184,-26.62288 c -0.657407,-0.333 -1.154663,-1.29816 -1.154663,-2.24118 0,-1.78611 2.826923,-2.68994 3.949546,-1.26276 0.669826,0.85155 0.70902,2.22268 0.08535,2.98576 -0.53816,0.65846 -2.062037,0.93262 -2.880233,0.51818 z m 1.702837,-1.34358 c 0.792197,-0.7922 -0.107263,-2.04247 -1.078395,-1.499 -0.765245,0.42825 -0.406163,1.8165 0.469853,1.8165 0.160073,0 0.433917,-0.14287 0.608542,-0.3175 z m 18.706041,1.3349 c -1.302849,-0.71261 -1.592244,-2.28754 -0.642255,-3.49526 0.75149,-0.95536 2.369074,-0.97875 3.300115,-0.0477 1.778957,1.77896 -0.450204,4.75046 -2.65786,3.54296 z m 1.666875,-1.3349 c 0.792198,-0.7922 -0.107263,-2.04247 -1.078395,-1.499 -0.765245,0.42825 -0.406163,1.8165 0.469854,1.8165 0.160072,0 0.433916,-0.14287 0.608541,-0.3175 z m -90.50439,1.04511 c -0.9790724,-0.74348 -1.1093298,-2.44401 -0.2623175,-3.42459 0.9559948,-1.10675 3.0534673,-0.73678 3.7211922,0.65639 0.4271363,0.89119 0.023422,2.42404 -0.7470283,2.83637 -0.6835141,0.36581 -2.1902254,0.32793 -2.7118464,-0.0682 z m 2.0195554,-1.21851 c 0.478313,-0.52853 0.358187,-1.23117 -0.2504127,-1.46471 -0.5118221,-0.19641 -1.0956896,0.057 -1.2883813,0.55912 -0.1490792,0.3885 0.5091818,1.39649 0.9119636,1.39649 0.100413,0 0.3824866,-0.2209 0.6268304,-0.4909 z m 154.6137826,1.21851 c -0.97907,-0.74348 -1.10933,-2.44401 -0.26232,-3.42459 0.956,-1.10675 3.05347,-0.73678 3.72119,0.65639 0.42714,0.89119 0.0234,2.42404 -0.74703,2.83637 -0.68351,0.36581 -2.19022,0.32793 -2.71184,-0.0682 z m 2.01955,-1.21851 c 0.47832,-0.52853 0.35819,-1.23117 -0.25041,-1.46471 -0.51182,-0.19641 -1.09569,0.057 -1.28838,0.55912 -0.14908,0.3885 0.50918,1.39649 0.91196,1.39649 0.10042,0 0.38249,-0.2209 0.62683,-0.4909 z m -76.628393,137.36268 c -0.254662,-0.0666 -0.671381,-0.0666 -0.926042,0 -0.254662,0.0666 -0.0463,0.121 0.463021,0.121 0.509323,0 0.717682,-0.0544 0.463021,-0.121 z m 64.293753,-25.68058 c -6.94862,-0.0392 -18.31909,-0.0392 -25.26771,0 -6.94862,0.0392 -1.26338,0.0713 12.63386,0.0713 13.89724,0 19.58247,-0.0321 12.63385,-0.0713 z"
       id="path1" /></g></svg>
