<?xml version="1.0" encoding="UTF-8" standalone="no"?>
<!-- Created with Inkscape (http://www.inkscape.org/) -->

<svg
   width="201.95978mm"
   height="169.77992mm"
   viewBox="0 0 201.95978 169.77992"
   version="1.1"
   id="svg1"
   xml:space="preserve"
   xmlns="http://www.w3.org/2000/svg"
   xmlns:svg="http://www.w3.org/2000/svg"><defs
     id="defs1" /><g
     id="layer1"
     transform="translate(249.71874,354.86376)"><path
       style="fill:#000000"
       d="m -152.57778,-210.40046 c 1.00952,0.005 7.22363,1.01627 11.42098,1.85908 18.64695,3.74422 36.89741,10.86041 53.600376,20.89977 2.11005,1.26825 4.223,2.39008 4.69543,2.49295 1.11523,0.24283 2.45458,-0.21149 3.29439,-1.11749 0.36783,-0.39682 7.67425,-12.86586 16.23649,-27.70899 14.95906,-25.93237 15.56784,-27.03995 15.57114,-28.32902 0.002,-0.93654 -0.15975,-1.56555 -0.53713,-2.08361 -0.35458,-0.48676 -6.35959,-4.09812 -17.45305,-10.49613 -9.48808,-5.47212 -17.23189,-10.1054 -17.64009,-10.55442 l -0.7276,-0.80037 v -43.00376 c 0,-47.502 0.12902,-44.01007 -1.66649,-45.10485 -0.8352,-0.50925 -1.97038,-0.51648 -81.148096,-0.51648 -79.17772,0 -80.3129,0.007 -81.1481,0.51648 -1.81303,1.10547 -1.67731,-3.84629 -1.60216,58.4527 l 0.068,56.34456 0.66146,0.71687 c 1.38684,1.50299 0.19989,1.44241 28.2596,1.44241 24.72481,0 25.98568,0.0231 27.89388,0.51113 5.20731,1.33181 9.61616,4.89104 11.94393,9.64225 1.33825,2.73152 1.76658,4.74416 1.9146,8.99642 0.22196,6.37626 0.10802,6.29768 9.49529,6.54868 6.2285,0.16654 10.94343,0.47705 14.12687,0.93035 z m 65.223776,21.32764 c -10.93327,-6.57337 -20.930386,-11.14024 -33.672206,-15.38209 -16.16805,-5.38246 -31.60788,-8.08517 -48.87592,-8.55564 l -6.278,-0.17104 -0.73346,-0.73346 c -0.72515,-0.72514 -0.73529,-0.78214 -0.89503,-5.02708 -0.13663,-3.63109 -0.26828,-4.62024 -0.85312,-6.41029 -2.17456,-6.6557 -7.62962,-11.51729 -14.52029,-12.9406 -1.78144,-0.36797 -5.28355,-0.42086 -27.8659,-0.42086 h -25.82838 l -0.7734,-0.7734 -0.77339,-0.77339 v -55.94365 -55.94365 l 0.68483,-0.68483 c 0.42298,-0.42298 1.10584,-0.74441 1.78594,-0.84066 0.6056,-0.0857 36.60368,-0.12119 79.99573,-0.0788 l 78.894606,0.077 0.81112,0.77711 0.81111,0.7771 0.006,42.87915 c 0.007,49.17132 -0.26296,44.29806 2.54433,45.9869 0.853,0.51316 8.51606,4.94281 17.02903,9.84367 8.51297,4.90086 15.80555,9.26208 16.20573,9.6916 0.85853,0.92147 0.90493,1.50561 0.22508,2.83366 -1.88756,3.68728 -30.86658,53.48909 -31.40121,53.96446 -0.36824,0.32742 -0.95875,0.59531 -1.31224,0.59531 -0.3535,0 -2.69834,-1.2359 -5.21077,-2.74644 z m 6.21445,0.89854 c 0.81773,-0.64323 1.08244,-1.58253 0.71691,-2.54395 -0.56019,-1.4734 -2.23948,-1.89277 -3.52623,-0.88061 -0.56246,0.44243 -0.69714,0.77096 -0.69714,1.70058 0,0.92963 0.13468,1.25816 0.69714,1.70059 0.87873,0.69121 1.949,0.70012 2.80932,0.0234 z m -2.19259,-1.34401 c -0.58999,-1.10241 1.01722,-1.80084 1.68648,-0.73287 0.19967,0.31863 0.17985,0.55701 -0.0715,0.85989 -0.48487,0.58423 -1.26724,0.52269 -1.61496,-0.12702 z m 1.51726,-22.00965 c 0.11637,-0.1819 0.44214,-0.33073 0.72394,-0.33073 0.39539,0 1.76832,-2.17452 6.01381,-9.525 5.0649,-8.76918 5.91532,-10.45104 5.28448,-10.45104 -0.12534,0 -0.1753,-0.27513 -0.11102,-0.61141 0.0643,-0.33627 -0.0415,-0.73941 -0.23512,-0.89587 -0.19361,-0.15645 -4.08414,-2.44117 -8.64563,-5.07713 -7.51153,-4.34072 -9.56575,-5.31312 -9.56575,-4.52809 0,0.14552 -0.28526,0.26458 -0.6339,0.26458 -0.55497,0 -1.30445,1.16128 -6.01927,9.32656 -5.210006,9.02287 -5.383166,9.36926 -5.317756,10.63772 0.0372,0.72114 0.15625,1.39344 0.26458,1.49401 0.523101,0.4856 17.317226,10.02713 17.648836,10.02713 0.20967,0 0.47642,-0.14883 0.5928,-0.33073 z m -9.14783,-5.94768 -7.771905,-4.48851 -0.0607,-0.99956 c -0.0526,-0.86651 0.605825,-2.1553 4.946605,-9.68221 3.88515,-6.73684 5.10056,-8.64686 5.42346,-8.52295 0.23141,0.0888 0.55105,-0.0248 0.72,-0.25581 0.26331,-0.3601 1.36066,0.19594 8.22837,4.16944 7.46244,4.3176 7.93498,4.63594 8.10335,5.45922 0.0983,0.48084 0.14761,0.93673 0.10947,1.01308 -0.0381,0.0764 -2.30956,4.03813 -5.0476,8.80394 -4.30531,7.49374 -5.06205,8.6651 -5.59799,8.6651 -0.34084,0 -0.6197,0.1318 -0.6197,0.29289 0,0.42021 0.0877,0.46654 -8.43337,-4.45463 z m -81.909816,2.71856 c 0.93105,-0.93104 0.90766,-2.54863 -0.0477,-3.30012 -1.35979,-1.06961 -3.32986,-0.50261 -3.67239,1.05694 -0.49774,2.26618 2.11915,3.84413 3.7201,2.24318 z m -2.27939,-1.09254 c -0.25211,-0.30378 -0.27142,-0.54032 -0.0702,-0.8599 0.39459,-0.62662 1.18562,-0.71085 1.58221,-0.16848 0.73439,1.00434 -0.71426,1.98962 -1.51202,1.02838 z m 61.13716,-1.43303 c 0,-0.14552 0.22355,-0.26458 0.49677,-0.26458 0.27323,0 0.61404,-0.14883 0.75736,-0.33073 0.40743,-0.51709 5.41638,-19.51482 5.25569,-19.93356 -0.0788,-0.20527 -0.31726,-0.37321 -0.52999,-0.37321 -0.21272,0 -0.42482,-0.25727 -0.47132,-0.57171 -0.0766,-0.51817 -1.09804,-0.84363 -10.90934,-3.47607 -9.8011,-2.6297 -10.85475,-2.86338 -11.14166,-2.471 -0.17429,0.23835 -0.57165,0.43336 -0.88303,0.43336 -0.31138,0 -0.56614,0.0522 -0.56614,0.1161 0,0.0639 -1.1311,4.32957 -2.51355,9.47937 -2.45615,9.14947 -2.79487,10.77745 -2.2424,10.77745 0.14912,0 0.37478,0.27263 0.50147,0.60585 0.2068,0.54393 1.32178,0.89647 10.90752,3.44882 5.87244,1.56364 10.82599,2.83881 11.00789,2.83373 0.1819,-0.005 0.33073,-0.1283 0.33073,-0.27382 z m -20.90208,-6.8354 c 0,-0.21027 -0.18803,-0.5198 -0.41784,-0.68784 -0.37231,-0.27224 -0.19797,-1.12595 1.59986,-7.83437 2.90951,-10.85649 2.73515,-10.30697 3.27037,-10.30697 0.25787,0 0.60626,-0.1374 0.77418,-0.30532 0.23071,-0.23071 2.70049,0.33506 10.10628,2.3151 8.24264,2.20379 9.80108,2.6954 9.80176,3.09197 4.4e-4,0.25935 0.21799,0.55701 0.48343,0.66146 0.44638,0.17565 0.30277,0.86044 -1.91257,9.1196 -2.21064,8.24162 -2.43932,8.92969 -2.96786,8.92969 -0.31496,0 -0.63484,0.16204 -0.71084,0.36009 -0.19608,0.51096 -20.02677,-4.78013 -20.02677,-5.34341 z m -9.33708,0.4854 c 0.0766,-0.29287 0.3609,-0.52917 0.63669,-0.52917 0.47972,0 0.49831,-0.39485 0.49831,-10.58333 0,-10.40694 -0.009,-10.58333 -0.52917,-10.58333 -0.29104,0 -0.52917,-0.16586 -0.52917,-0.36857 0,-0.20271 -0.18833,-0.44084 -0.41851,-0.52917 -0.23018,-0.0883 -5.34312,-0.1606 -11.36209,-0.1606 -10.27031,0 -10.96483,0.0296 -11.28929,0.48045 -0.19016,0.26424 -0.55409,0.55816 -0.80876,0.65315 -0.43012,0.16044 -0.46302,0.90706 -0.46302,10.50807 0,9.60101 0.0329,10.34763 0.46302,10.50807 0.25467,0.095 0.6186,0.38891 0.80876,0.65315 0.32472,0.45126 1.02949,0.48045 11.60029,0.48045 11.03204,0 11.2573,-0.0105 11.39294,-0.52917 z m -16.92282,-0.19812 c 2.9468,-0.0426 7.76883,-0.0426 10.71563,0 2.9468,0.0426 0.53578,0.0774 -5.35782,0.0774 -5.89359,0 -8.30461,-0.0348 -5.35781,-0.0774 z m -4.96094,-0.97468 c 0,-0.20847 -0.23812,-0.45462 -0.52916,-0.54699 -0.51584,-0.16372 -0.52917,-0.40033 -0.52917,-9.39271 0,-8.99238 0.0133,-9.22899 0.52917,-9.39271 0.29104,-0.0924 0.52916,-0.33852 0.52916,-0.54699 0,-0.32253 1.53864,-0.37905 10.31875,-0.37905 8.93684,0 10.31876,0.0525 10.31876,0.39183 0,0.21551 0.29765,0.46655 0.66146,0.55785 l 0.66145,0.16602 v 9.20305 9.20305 l -0.66145,0.16602 c -0.36381,0.0913 -0.66146,0.34234 -0.66146,0.55785 0,0.33935 -1.38192,0.39183 -10.31876,0.39183 -8.78011,0 -10.31875,-0.0565 -10.31875,-0.37905 z m -1.78555,-14.76835 c 0.0432,-2.65575 0.0785,-0.48286 0.0785,4.82865 0,5.31151 -0.0353,7.4844 -0.0785,4.82865 -0.0432,-2.65576 -0.0432,-7.00154 0,-9.6573 z m -75.94621,-0.55914 c 1.12025,-0.85111 1.12488,-2.73615 0.009,-3.614 -1.21703,-0.95732 -2.97465,-0.46084 -3.52885,0.99681 -0.32144,0.84545 0.13308,2.34655 0.82219,2.71535 0.6846,0.36639 2.15684,0.31282 2.69778,-0.0982 z m -2.26234,-1.53534 c -0.19968,-0.31864 -0.17985,-0.55702 0.0715,-0.8599 0.48487,-0.58423 1.26724,-0.52269 1.61496,0.12703 0.58999,1.10241 -1.01722,1.80083 -1.68648,0.73287 z m 195.232166,0.98203 c 1.60096,-1.60095 0.023,-4.21784 -2.24318,-3.7201 -2.50257,0.54966 -1.93989,4.36953 0.64366,4.36953 0.65596,0 1.15114,-0.20105 1.59952,-0.64943 z m -2.44368,-1.10632 c -0.21888,-0.57038 0.25115,-1.28695 0.84416,-1.28695 0.25932,0 0.59271,0.19217 0.74087,0.42705 0.40421,0.64081 0.0306,1.29274 -0.74087,1.29274 -0.38369,0 -0.75018,-0.18792 -0.84416,-0.43284 z m 2.38321,-0.67511 c 0.0845,-0.21106 0.14716,-0.14837 0.15985,0.15986 0.0115,0.27891 -0.0511,0.43518 -0.13896,0.34726 -0.0879,-0.0879 -0.0973,-0.31612 -0.0209,-0.50712 z m -163.940226,-7.18023 c 0.11637,-0.19288 0.41994,-0.42727 0.6746,-0.52087 0.43025,-0.15813 0.46302,-0.90744 0.46302,-10.58705 v -10.41688 l -0.66146,-0.30138 c -0.3638,-0.16576 -0.66145,-0.423 -0.66145,-0.57164 0,-0.17976 -3.81221,-0.27025 -11.38539,-0.27025 -9.74451,0 -11.40678,0.0558 -11.53382,0.3868 -0.0816,0.21274 -0.37555,0.45889 -0.65315,0.547 -0.48536,0.15405 -0.50473,0.56138 -0.50473,10.61817 0,10.11058 0.017,10.46242 0.51087,10.59158 0.28097,0.0735 0.57489,0.30045 0.65315,0.5044 0.20557,0.53569 22.77542,0.55535 23.09836,0.0201 z m -21.88113,-1.1293 c 0,-0.23191 -0.23812,-0.48392 -0.52916,-0.56003 -0.51659,-0.13509 -0.52917,-0.36089 -0.52917,-9.50023 0,-8.23052 0.049,-9.36184 0.40518,-9.36184 0.22285,0 0.47371,-0.1786 0.55747,-0.39688 0.13175,-0.34334 1.53661,-0.39687 10.41443,-0.39687 8.87783,0 10.28268,0.0535 10.41443,0.39687 0.0838,0.21828 0.33463,0.39688 0.55748,0.39688 0.35621,0 0.40518,1.13132 0.40518,9.36184 0,9.13934 -0.0126,9.36514 -0.52917,9.50023 -0.29104,0.0761 -0.52917,0.32812 -0.52917,0.56003 0,0.3786 -1.0535,0.42164 -10.31875,0.42164 -9.26525,0 -10.31875,-0.043 -10.31875,-0.42164 z m 140.943636,-2.57487 c 0.11637,-0.19288 0.41994,-0.42726 0.67461,-0.52086 0.43025,-0.15814 0.46302,-0.90745 0.46302,-10.58706 v -10.41688 l -0.66146,-0.30138 c -0.3638,-0.16576 -0.66146,-0.42299 -0.66146,-0.57163 0,-0.17977 -3.812205,-0.27026 -11.385386,-0.27026 -9.74451,0 -11.40678,0.0557 -11.53381,0.38681 -0.0816,0.21274 -0.37556,0.45889 -0.65316,0.54699 -0.48536,0.15405 -0.50472,0.56138 -0.50472,10.61818 0,10.11057 0.017,10.46242 0.51086,10.59157 0.28098,0.0735 0.5749,0.30046 0.65316,0.5044 0.20556,0.53569 22.775416,0.55535 23.098346,0.0201 z m -21.881116,-1.1293 c 0,-0.2319 -0.23813,-0.48391 -0.52917,-0.56002 -0.51659,-0.13509 -0.52917,-0.3609 -0.52917,-9.50023 0,-8.23053 0.049,-9.36185 0.40518,-9.36185 0.22285,0 0.47371,-0.1786 0.55748,-0.39688 0.13175,-0.34333 1.5366,-0.39687 10.41443,-0.39687 8.877821,0 10.282666,0.0535 10.414426,0.39687 0.0838,0.21828 0.33462,0.39688 0.55747,0.39688 0.35622,0 0.40518,1.13132 0.40518,9.36185 0,9.13933 -0.0126,9.36514 -0.52917,9.50023 -0.29104,0.0761 -0.52916,0.32812 -0.52916,0.56002 0,0.3786 -1.0535,0.42165 -10.318746,0.42165 -9.26526,0 -10.31875,-0.0431 -10.31875,-0.42165 z m -7.9375,-2.55832 c 0,-0.18377 0.26789,-0.45166 0.59531,-0.59531 l 0.59531,-0.26118 v -10.31875 -10.31875 l -0.59531,-0.26118 c -0.32742,-0.14364 -0.59531,-0.41154 -0.59531,-0.59531 0,-0.264 -2.4157,-0.33413 -11.50938,-0.33413 -9.09367,0 -11.50937,0.0701 -11.50937,0.33413 0,0.18377 -0.26789,0.45167 -0.59531,0.59531 l -0.59532,0.26118 v 10.31875 10.31875 l 0.59532,0.26118 c 0.32742,0.14365 0.59531,0.41154 0.59531,0.59531 0,0.264 2.4157,0.33413 11.50937,0.33413 9.09368,0 11.50938,-0.0701 11.50938,-0.33413 z m -21.96042,-1.38566 c 0,-0.22048 -0.23518,-0.39687 -0.52917,-0.39687 -0.51922,0 -0.52916,-0.17639 -0.52916,-9.39271 0,-9.21632 0.01,-9.39271 0.52916,-9.39271 0.29399,0 0.52917,-0.17639 0.52917,-0.39687 0,-0.346 1.32384,-0.39688 10.32705,-0.39688 8.93553,0 10.34758,0.0535 10.47935,0.39688 0.0838,0.21828 0.37769,0.39687 0.65316,0.39687 0.48201,0 0.50086,0.35334 0.50086,9.39271 0,9.03937 -0.0188,9.39271 -0.50086,9.39271 -0.27547,0 -0.56939,0.17859 -0.65316,0.39687 -0.13177,0.3434 -1.54382,0.39688 -10.47935,0.39688 -9.00321,0 -10.32705,-0.0509 -10.32705,-0.39688 z m -37.57083,1.38566 c 0,-0.18377 0.26789,-0.45166 0.59531,-0.59531 l 0.59531,-0.26118 v -10.31875 -10.31875 l -0.59531,-0.26118 c -0.32742,-0.14364 -0.59531,-0.41154 -0.59531,-0.59531 0,-0.264 -2.4157,-0.33413 -11.50938,-0.33413 -9.09369,0 -11.50939,0.0701 -11.50939,0.33413 0,0.18377 -0.26789,0.45167 -0.59531,0.59531 l -0.59531,0.26118 v 10.31875 10.31875 l 0.59531,0.26118 c 0.32742,0.14365 0.59531,0.41154 0.59531,0.59531 0,0.264 2.4157,0.33413 11.50939,0.33413 9.09368,0 11.50938,-0.0701 11.50938,-0.33413 z m -21.86475,-1.38566 c -0.0838,-0.21828 -0.37769,-0.39687 -0.65316,-0.39687 -0.48202,0 -0.50086,-0.35334 -0.50086,-9.39271 0,-9.03937 0.0188,-9.39271 0.50086,-9.39271 0.27547,0 0.56939,-0.17859 0.65316,-0.39687 0.13173,-0.34329 1.53004,-0.39688 10.35537,-0.39688 8.82532,0 10.22363,0.0536 10.35536,0.39688 0.0838,0.21828 0.37769,0.39687 0.65316,0.39687 0.48202,0 0.50086,0.35334 0.50086,9.39271 0,9.03937 -0.0188,9.39271 -0.50086,9.39271 -0.27547,0 -0.56939,0.17859 -0.65316,0.39687 -0.13173,0.34329 -1.53004,0.39688 -10.35536,0.39688 -8.82533,0 -10.22364,-0.0536 -10.35537,-0.39688 z m 51.49808,-2.25463 c 0,-0.14864 0.29765,-0.40587 0.66145,-0.57163 l 0.66146,-0.30138 v -10.41688 c 0,-9.67961 -0.0328,-10.42892 -0.46302,-10.58706 -0.25466,-0.0936 -0.55823,-0.32798 -0.6746,-0.52086 -0.32294,-0.53523 -22.89279,-0.51557 -23.09836,0.0201 -0.0783,0.20394 -0.37218,0.43092 -0.65315,0.5044 -0.4939,0.12915 -0.51087,0.481 -0.51087,10.59157 0,10.0568 0.0194,10.46413 0.50473,10.61818 0.2776,0.0881 0.57152,0.33425 0.65315,0.54699 0.12704,0.33106 1.78931,0.38681 11.53382,0.38681 7.57318,0 11.38539,-0.0905 11.38539,-0.27026 z m -21.79152,-1.44953 c -0.0838,-0.21828 -0.33462,-0.39688 -0.55747,-0.39688 -0.35624,0 -0.40518,-1.13447 -0.40518,-9.39271 0,-8.41792 0.0438,-9.3927 0.42165,-9.3927 0.2319,0 0.48391,-0.23813 0.56002,-0.52917 0.13538,-0.51769 0.3609,-0.52917 10.39541,-0.52917 10.03452,0 10.26004,0.0115 10.39542,0.52917 0.0761,0.29104 0.32812,0.52917 0.56002,0.52917 0.37789,0 0.42165,0.97478 0.42165,9.3927 0,8.25824 -0.0489,9.39271 -0.40518,9.39271 -0.22285,0 -0.47371,0.1786 -0.55748,0.39688 -0.13175,0.34333 -1.5366,0.39687 -10.41443,0.39687 -8.87782,0 -10.28268,-0.0535 -10.41443,-0.39687 z m -37.60745,-17.33021 c 0.0924,-0.29104 0.39805,-0.52917 0.67929,-0.52917 0.49677,0 0.51133,-0.29795 0.51133,-10.45934 0,-9.7191 -0.0328,-10.47157 -0.46302,-10.63206 -0.25466,-0.095 -0.6186,-0.38891 -0.80875,-0.65315 -0.32458,-0.45106 -1.02368,-0.48045 -11.42823,-0.48045 -10.40454,0 -11.10364,0.0294 -11.42822,0.48045 -0.19016,0.26424 -0.55409,0.55816 -0.80876,0.65315 -0.43025,0.16049 -0.46302,0.91296 -0.46302,10.63206 0,10.16139 0.0146,10.45934 0.51134,10.45934 0.28124,0 0.58692,0.23813 0.67929,0.52917 0.16451,0.51832 0.40032,0.52917 11.50937,0.52917 11.10905,0 11.34487,-0.0108 11.50938,-0.52917 z m -16.86719,-0.19812 c 2.9468,-0.0426 7.76883,-0.0426 10.71563,0 2.94679,0.0426 0.53578,0.0774 -5.35782,0.0774 -5.89359,0 -8.30461,-0.0348 -5.35781,-0.0774 z m -4.96094,-0.99251 c 0,-0.22048 -0.23518,-0.39687 -0.52916,-0.39687 -0.51921,0 -0.52917,-0.17639 -0.52917,-9.37488 0,-9.1425 0.0131,-9.37904 0.52917,-9.54283 0.29104,-0.0924 0.52916,-0.33852 0.52916,-0.54699 0,-0.32253 1.53864,-0.37905 10.31875,-0.37905 8.78011,0 10.31875,0.0565 10.31875,0.37905 0,0.20847 0.23813,0.45462 0.52917,0.54699 0.51605,0.16379 0.52917,0.40033 0.52917,9.54283 0,9.19849 -0.01,9.37488 -0.52917,9.37488 -0.29398,0 -0.52917,0.17639 -0.52917,0.39687 0,0.346 -1.32291,0.39688 -10.31875,0.39688 -8.99583,0 -10.31875,-0.0509 -10.31875,-0.39688 z m 140.890636,-2.51354 c 0.0924,-0.29104 0.39805,-0.52916 0.67929,-0.52916 0.49677,0 0.51134,-0.29796 0.51134,-10.45935 0,-9.7191 -0.0328,-10.47157 -0.46302,-10.63205 -0.25467,-0.095 -0.61861,-0.38891 -0.80876,-0.65316 -0.32446,-0.45089 -1.01898,-0.48044 -11.289286,-0.48044 -6.01897,0 -11.1319,0.0723 -11.36209,0.1606 -0.23018,0.0883 -0.41851,0.32645 -0.41851,0.52916 0,0.20271 -0.23812,0.36857 -0.52917,0.36857 -0.52034,0 -0.52916,0.17639 -0.52916,10.58333 0,10.18848 0.0186,10.58334 0.49831,10.58334 0.27579,0 0.56009,0.23629 0.63668,0.52916 0.13568,0.51883 0.3609,0.52917 11.52241,0.52917 11.151646,0 11.387446,-0.0108 11.551966,-0.52917 z m -16.867186,-0.19812 c 2.9468,-0.0426 7.76883,-0.0426 10.71563,0 2.946801,0.0426 0.53578,0.0774 -5.35781,0.0774 -5.8936,0 -8.30461,-0.0348 -5.35782,-0.0774 z m -4.96093,-0.97467 c 0,-0.20848 -0.23813,-0.45463 -0.52917,-0.547 -0.51584,-0.16372 -0.52917,-0.40032 -0.52917,-9.39271 0,-8.99238 0.0133,-9.22898 0.52917,-9.3927 0.29104,-0.0924 0.52917,-0.33853 0.52917,-0.547 0,-0.32253 1.53864,-0.37905 10.31875,-0.37905 8.780111,0 10.318746,0.0565 10.318746,0.37905 0,0.20847 0.23812,0.45462 0.52916,0.547 0.51584,0.16372 0.52917,0.40032 0.52917,9.3927 0,8.99239 -0.0133,9.22899 -0.52917,9.39271 -0.29104,0.0924 -0.52916,0.33852 -0.52916,0.547 0,0.32252 -1.538635,0.37904 -10.318746,0.37904 -8.78011,0 -10.31875,-0.0565 -10.31875,-0.37904 z m -8.01417,-2.53137 c 0.0761,-0.29105 0.34989,-0.52917 0.60839,-0.52917 0.2585,0 0.54227,-0.18833 0.63059,-0.41852 0.2097,-0.54646 0.2097,-19.78317 0,-20.32963 -0.0883,-0.23018 -0.37209,-0.41852 -0.63059,-0.41852 -0.2585,0 -0.53228,-0.23812 -0.60839,-0.52916 -0.13565,-0.51874 -0.36089,-0.52917 -11.43271,-0.52917 -11.07181,0 -11.29706,0.0104 -11.43271,0.52917 -0.0761,0.29104 -0.34988,0.52916 -0.60838,0.52916 -0.2585,0 -0.54227,0.18834 -0.6306,0.41852 -0.2097,0.54646 -0.2097,19.78317 0,20.32963 0.0883,0.23019 0.3721,0.41852 0.6306,0.41852 0.2585,0 0.53227,0.23812 0.60838,0.52917 0.13565,0.51874 0.3609,0.52916 11.43271,0.52916 11.07182,0 11.29706,-0.0104 11.43271,-0.52916 z m -21.88375,-1.2154 c 0,-0.2319 -0.23812,-0.48392 -0.52917,-0.56002 -0.5164,-0.13505 -0.52916,-0.3609 -0.52916,-9.36794 0,-8.26864 0.0439,-9.22956 0.42164,-9.22956 0.23191,0 0.48392,-0.23812 0.56003,-0.52917 0.13537,-0.51765 0.36089,-0.52916 10.36263,-0.52916 9.9377,0 10.2335,0.0148 10.55471,0.52916 0.18176,0.29105 0.50806,0.52917 0.7251,0.52917 0.34228,0 0.39464,1.22871 0.39464,9.26042 0,8.03171 -0.0524,9.26041 -0.39464,9.26041 -0.21704,0 -0.54334,0.23813 -0.7251,0.52917 -0.32123,0.51438 -0.61701,0.52917 -10.58557,0.52917 -9.20702,0 -10.25511,-0.0431 -10.25511,-0.42165 z m 10.92697,-5.56643 c 0.10204,-0.10204 0.18553,-0.99913 0.18553,-1.99352 v -1.80799 h 1.85208 c 1.6757,0 1.85209,-0.0504 1.85209,-0.52916 0,-0.47846 -0.17639,-0.52917 -1.84049,-0.52917 h -1.8405 l -0.0777,-1.91823 c -0.0695,-1.71593 -0.13354,-1.91823 -0.6069,-1.91823 -0.47336,0 -0.53737,0.2023 -0.6069,1.91823 l -0.0777,1.91823 h -1.8405 c -1.6641,0 -1.84049,0.0507 -1.84049,0.52917 0,0.47845 0.17639,0.52916 1.84049,0.52916 h 1.8405 l 0.0777,1.91543 c 0.06,1.47761 0.1714,1.93327 0.48751,1.99352 0.22538,0.043 0.49327,-0.005 0.59531,-0.10744 z m -0.54009,-6.2489 c 0.0502,-1.05503 0.0913,-0.19183 0.0913,1.91823 0,2.11005 -0.0411,2.97325 -0.0913,1.91823 -0.0502,-1.05503 -0.0502,-2.78144 0,-3.83646 z m -48.03438,13.03073 c 0.0761,-0.29105 0.34989,-0.52917 0.60839,-0.52917 0.2585,0 0.54227,-0.18833 0.63059,-0.41852 0.2097,-0.54646 0.2097,-19.78317 0,-20.32963 -0.0883,-0.23018 -0.37209,-0.41852 -0.63059,-0.41852 -0.2585,0 -0.53228,-0.23812 -0.60839,-0.52916 -0.13565,-0.51874 -0.36089,-0.52917 -11.43271,-0.52917 -11.07183,0 -11.29707,0.0104 -11.43272,0.52917 -0.0761,0.29104 -0.34988,0.52916 -0.60838,0.52916 -0.2585,0 -0.54227,0.18834 -0.6306,0.41852 -0.2097,0.54646 -0.2097,19.78317 0,20.32963 0.0883,0.23019 0.3721,0.41852 0.6306,0.41852 0.2585,0 0.53227,0.23812 0.60838,0.52917 0.13565,0.51874 0.36089,0.52916 11.43272,0.52916 11.07182,0 11.29706,-0.0104 11.43271,-0.52916 z m -21.88376,-1.32292 c -0.15576,-0.29104 -0.45761,-0.52917 -0.67077,-0.52917 -0.33298,0 -0.38757,-1.30418 -0.38757,-9.26041 0,-7.95624 0.0546,-9.26042 0.38757,-9.26042 0.21316,0 0.51501,-0.23812 0.67077,-0.52917 0.27562,-0.51499 0.55399,-0.52916 10.39671,-0.52916 9.82697,0 10.12287,0.015 10.44398,0.52916 0.18176,0.29105 0.50806,0.52917 0.7251,0.52917 0.34228,0 0.39464,1.22871 0.39464,9.26042 0,8.03171 -0.0524,9.26041 -0.39464,9.26041 -0.21704,0 -0.54334,0.23813 -0.7251,0.52917 -0.32111,0.51417 -0.61701,0.52917 -10.44398,0.52917 -9.84272,0 -10.12109,-0.0142 -10.39671,-0.52917 z m 51.6449,-2.33253 c 0.19015,-0.26424 0.55409,-0.55816 0.80875,-0.65315 0.43025,-0.16049 0.46302,-0.91296 0.46302,-10.63206 0,-10.16139 -0.0146,-10.45934 -0.51133,-10.45934 -0.28124,0 -0.58692,-0.23813 -0.67929,-0.52917 -0.16451,-0.51832 -0.40033,-0.52917 -11.50938,-0.52917 -11.10905,0 -11.34486,0.0108 -11.50937,0.52917 -0.0924,0.29104 -0.39805,0.52917 -0.67929,0.52917 -0.49687,0 -0.51134,0.2994 -0.51134,10.58333 0,9.92464 0.029,10.58333 0.46553,10.58333 0.25603,0 0.61423,0.23813 0.79599,0.52917 0.32193,0.5155 0.61701,0.52917 11.42572,0.52917 10.41688,0 11.1164,-0.0294 11.44099,-0.48045 z m -21.74698,-1.22152 c 0,-0.20847 -0.23812,-0.45462 -0.52916,-0.54699 -0.51584,-0.16372 -0.52917,-0.40033 -0.52917,-9.39271 0,-8.99238 0.0133,-9.22899 0.52917,-9.39271 0.29104,-0.0924 0.52916,-0.33852 0.52916,-0.54699 0,-0.32253 1.53864,-0.37905 10.31875,-0.37905 8.78011,0 10.31875,0.0565 10.31875,0.37905 0,0.20847 0.23813,0.45462 0.52917,0.54699 0.51584,0.16372 0.52917,0.40033 0.52917,9.39271 0,8.99238 -0.0133,9.22899 -0.52917,9.39271 -0.29104,0.0924 -0.52917,0.33852 -0.52917,0.54699 0,0.32253 -1.53864,0.37905 -10.31875,0.37905 -8.78011,0 -10.31875,-0.0565 -10.31875,-0.37905 z m 4.96094,-20.98574 c 2.9468,-0.0426 7.76883,-0.0426 10.71563,0 2.94679,0.0426 0.53578,0.0774 -5.35782,0.0774 -5.89359,0 -8.30461,-0.0348 -5.35781,-0.0774 z m -42.61107,3.55161 c 0.11637,-0.19288 0.41994,-0.42726 0.6746,-0.52086 0.43025,-0.15814 0.46302,-0.90745 0.46302,-10.58706 v -10.41688 l -0.66146,-0.30138 c -0.3638,-0.16576 -0.66145,-0.42299 -0.66145,-0.57163 0,-0.17977 -3.81221,-0.27026 -11.38539,-0.27026 -9.74451,0 -11.40678,0.0557 -11.53382,0.3868 -0.0816,0.21275 -0.37555,0.45889 -0.65315,0.547 -0.48536,0.15405 -0.50473,0.56138 -0.50473,10.61818 0,10.11057 0.017,10.46242 0.51087,10.59157 0.28097,0.0735 0.57489,0.30046 0.65315,0.5044 0.20557,0.53569 22.77542,0.55535 23.09836,0.0201 z m -21.88113,-1.1293 c 0,-0.2319 -0.23812,-0.48391 -0.52916,-0.56002 -0.51659,-0.13509 -0.52917,-0.3609 -0.52917,-9.50023 0,-8.23053 0.049,-9.36185 0.40518,-9.36185 0.22285,0 0.47371,-0.1786 0.55747,-0.39688 0.13175,-0.34334 1.53661,-0.39687 10.41443,-0.39687 8.87783,0 10.28268,0.0535 10.41443,0.39687 0.0838,0.21828 0.33463,0.39688 0.55748,0.39688 0.35621,0 0.40518,1.13132 0.40518,9.36185 0,9.13933 -0.0126,9.36514 -0.52917,9.50023 -0.29104,0.0761 -0.52917,0.32812 -0.52917,0.56002 0,0.3786 -1.0535,0.42165 -10.31875,0.42165 -9.26525,0 -10.31875,-0.043 -10.31875,-0.42165 z m 140.943636,-2.57487 c 0.11637,-0.19287 0.41994,-0.42726 0.67461,-0.52086 0.43025,-0.15814 0.46302,-0.90744 0.46302,-10.58706 v -10.41687 l -0.66146,-0.30138 c -0.3638,-0.16576 -0.66146,-0.423 -0.66146,-0.57164 0,-0.17976 -3.812205,-0.27026 -11.385386,-0.27026 -9.74451,0 -11.40678,0.0558 -11.53381,0.38681 -0.0816,0.21274 -0.37556,0.45889 -0.65316,0.54699 -0.48536,0.15405 -0.50472,0.56139 -0.50472,10.61818 0,10.11057 0.017,10.46242 0.51086,10.59157 0.28098,0.0735 0.5749,0.30046 0.65316,0.5044 0.20556,0.53569 22.775416,0.55535 23.098346,0.0201 z m -21.881116,-1.12929 c 0,-0.23191 -0.23813,-0.48392 -0.52917,-0.56003 -0.51659,-0.13509 -0.52917,-0.3609 -0.52917,-9.50023 0,-8.23053 0.049,-9.36185 0.40518,-9.36185 0.22285,0 0.47371,-0.17859 0.55748,-0.39687 0.13175,-0.34334 1.5366,-0.39688 10.41443,-0.39688 8.877821,0 10.282666,0.0535 10.414426,0.39688 0.0838,0.21828 0.33462,0.39687 0.55747,0.39687 0.35622,0 0.40518,1.13132 0.40518,9.36185 0,9.13933 -0.0126,9.36514 -0.52917,9.50023 -0.29104,0.0761 -0.52916,0.32812 -0.52916,0.56003 0,0.37859 -1.0535,0.42164 -10.318746,0.42164 -9.26526,0 -10.31875,-0.043 -10.31875,-0.42164 z m -7.9375,-2.55833 c 0,-0.18377 0.26789,-0.45166 0.59531,-0.59531 l 0.59531,-0.26118 v -10.31875 -10.31875 l -0.59531,-0.26117 c -0.32742,-0.14365 -0.59531,-0.41154 -0.59531,-0.59532 0,-0.264 -2.4157,-0.33413 -11.50938,-0.33413 -9.09367,0 -11.50937,0.0701 -11.50937,0.33413 0,0.18378 -0.26789,0.45167 -0.59531,0.59532 l -0.59532,0.26117 v 10.31875 10.31875 l 0.59532,0.26118 c 0.32742,0.14365 0.59531,0.41154 0.59531,0.59531 0,0.26401 2.4157,0.33414 11.50937,0.33414 9.09368,0 11.50938,-0.0701 11.50938,-0.33414 z m -21.96042,-1.38565 c 0,-0.22049 -0.23518,-0.39688 -0.52917,-0.39688 -0.51922,0 -0.52916,-0.17639 -0.52916,-9.39271 0,-9.21632 0.01,-9.39271 0.52916,-9.39271 0.29399,0 0.52917,-0.17638 0.52917,-0.39687 0,-0.346 1.32384,-0.39688 10.32705,-0.39688 8.93553,0 10.34758,0.0535 10.47935,0.39688 0.0838,0.21828 0.37769,0.39687 0.65316,0.39687 0.48201,0 0.50086,0.35335 0.50086,9.39271 0,9.03937 -0.0188,9.39271 -0.50086,9.39271 -0.27547,0 -0.56939,0.17859 -0.65316,0.39688 -0.13177,0.34339 -1.54382,0.39687 -10.47935,0.39687 -9.00321,0 -10.32705,-0.0509 -10.32705,-0.39687 z m -37.57083,1.38565 c 0,-0.18377 0.26789,-0.45166 0.59531,-0.59531 l 0.59531,-0.26118 v -10.31875 -10.31875 l -0.59531,-0.26117 c -0.32742,-0.14365 -0.59531,-0.41154 -0.59531,-0.59532 0,-0.264 -2.4157,-0.33413 -11.50938,-0.33413 -9.09369,0 -11.50939,0.0701 -11.50939,0.33413 0,0.18378 -0.26789,0.45167 -0.59531,0.59532 l -0.59531,0.26117 v 10.31875 10.31875 l 0.59531,0.26118 c 0.32742,0.14365 0.59531,0.41154 0.59531,0.59531 0,0.26401 2.4157,0.33414 11.50939,0.33414 9.09368,0 11.50938,-0.0701 11.50938,-0.33414 z m -21.86475,-1.38565 c -0.0838,-0.21829 -0.37769,-0.39688 -0.65316,-0.39688 -0.48202,0 -0.50086,-0.35334 -0.50086,-9.39271 0,-9.03936 0.0188,-9.39271 0.50086,-9.39271 0.27547,0 0.56939,-0.17859 0.65316,-0.39687 0.13173,-0.34328 1.53004,-0.39688 10.35537,-0.39688 8.82532,0 10.22363,0.0536 10.35536,0.39688 0.0838,0.21828 0.37769,0.39687 0.65316,0.39687 0.48202,0 0.50086,0.35335 0.50086,9.39271 0,9.03937 -0.0188,9.39271 -0.50086,9.39271 -0.27547,0 -0.56939,0.17859 -0.65316,0.39688 -0.13173,0.34328 -1.53004,0.39687 -10.35536,0.39687 -8.82533,0 -10.22364,-0.0536 -10.35537,-0.39687 z m 51.49808,-2.25463 c 0,-0.14865 0.29765,-0.40588 0.66145,-0.57164 l 0.66146,-0.30138 v -10.41688 c 0,-9.67961 -0.0328,-10.42892 -0.46302,-10.58705 -0.25466,-0.0936 -0.55823,-0.32799 -0.6746,-0.52087 -0.32294,-0.53523 -22.89279,-0.51557 -23.09836,0.0201 -0.0783,0.20394 -0.37218,0.43092 -0.65315,0.5044 -0.4939,0.12916 -0.51087,0.481 -0.51087,10.59158 0,10.05679 0.0194,10.46412 0.50473,10.61817 0.2776,0.0881 0.57152,0.33426 0.65315,0.547 0.12704,0.33105 1.78931,0.3868 11.53382,0.3868 7.57318,0 11.38539,-0.0905 11.38539,-0.27026 z m -21.79152,-1.44954 c -0.0838,-0.21828 -0.33462,-0.39688 -0.55747,-0.39688 -0.35624,0 -0.40518,-1.13446 -0.40518,-9.3927 0,-8.41793 0.0438,-9.39271 0.42165,-9.39271 0.2319,0 0.48391,-0.23813 0.56002,-0.52917 0.13538,-0.51769 0.3609,-0.52916 10.39541,-0.52916 10.03452,0 10.26004,0.0115 10.39542,0.52916 0.0761,0.29104 0.32812,0.52917 0.56002,0.52917 0.37789,0 0.42165,0.97478 0.42165,9.39271 0,8.25824 -0.0489,9.3927 -0.40518,9.3927 -0.22285,0 -0.47371,0.1786 -0.55748,0.39688 -0.13175,0.34334 -1.5366,0.39687 -10.41443,0.39687 -8.87782,0 -10.28268,-0.0535 -10.41443,-0.39687 z m 21.69519,-26.62288 c 0.6574,-0.333 1.15466,-1.29816 1.15466,-2.24118 0,-1.78611 -2.82692,-2.68994 -3.94955,-1.26276 -0.66982,0.85155 -0.70902,2.22268 -0.0853,2.98576 0.53816,0.65846 2.06204,0.93262 2.88024,0.51818 z m -1.70284,-1.34358 c -0.7922,-0.7922 0.10726,-2.04247 1.07839,-1.499 0.76525,0.42825 0.40617,1.8165 -0.46985,1.8165 -0.16007,0 -0.43392,-0.14287 -0.60854,-0.3175 z m -18.70604,1.3349 c 1.30285,-0.71261 1.59224,-2.28754 0.64225,-3.49526 -0.75149,-0.95536 -2.36907,-0.97875 -3.30011,-0.0477 -1.77896,1.77896 0.4502,4.75046 2.65786,3.54296 z m -1.66688,-1.3349 c -0.79219,-0.7922 0.10727,-2.04247 1.0784,-1.499 0.76524,0.42825 0.40616,1.8165 -0.46986,1.8165 -0.16007,0 -0.43391,-0.14287 -0.60854,-0.3175 z m 90.504396,1.04511 c 0.97907,-0.74348 1.10933,-2.44401 0.26232,-3.42459 -0.956,-1.10675 -3.05347,-0.73678 -3.7212,0.65639 -0.42713,0.89119 -0.0234,2.42404 0.74703,2.83637 0.68352,0.36581 2.19023,0.32793 2.71185,-0.0682 z m -2.01956,-1.21851 c -0.47831,-0.52853 -0.35818,-1.23117 0.25042,-1.46471 0.51182,-0.19641 1.09568,0.057 1.28838,0.55912 0.14908,0.3885 -0.50919,1.39649 -0.91197,1.39649 -0.10041,0 -0.38248,-0.2209 -0.62683,-0.4909 z m -154.613786,1.21851 c 0.97907,-0.74348 1.10933,-2.44401 0.26232,-3.42459 -0.956,-1.10675 -3.05347,-0.73678 -3.72119,0.65639 -0.42714,0.89119 -0.0234,2.42404 0.74703,2.83637 0.68351,0.36581 2.19022,0.32793 2.71184,-0.0682 z m -2.01955,-1.21851 c -0.47832,-0.52853 -0.35819,-1.23117 0.25041,-1.46471 0.51182,-0.19641 1.09569,0.057 1.28838,0.55912 0.14908,0.3885 -0.50918,1.39649 -0.91196,1.39649 -0.10042,0 -0.38249,-0.2209 -0.62683,-0.4909 z m 76.6284,137.36268 c 0.25466,-0.0666 0.67138,-0.0666 0.92604,0 0.25466,0.0666 0.0463,0.121 -0.46302,0.121 -0.50932,0 -0.71768,-0.0544 -0.46302,-0.121 z m -64.29376,-25.68058 c 6.94862,-0.0392 18.31909,-0.0392 25.26771,0 6.94862,0.0392 1.26338,0.0713 -12.63386,0.0713 -13.89724,0 -19.58247,-0.0321 -12.63385,-0.0713 z"
       id="path1-6" /></g></svg>
